<svg version="1.1" id="Layer_1" xmlns="http://www.w3.org/2000/svg" xmlns:xlink="http://www.w3.org/1999/xlink" x="0px" y="0px"
	 width="100%" viewBox="0 0 512 512" enable-background="new 0 0 512 512" xml:space="preserve">
<path fill="#FFFEFE" opacity="1.000000" stroke="none" 
	d="
M485.000000,513.000000 
	C332.645782,513.000000 180.291550,513.000000 27.757065,512.705444 
	C20.663054,507.489105 19.879398,500.482330 19.894381,492.607910 
	C20.059898,405.614807 19.873455,318.620911 20.132917,231.628265 
	C20.171942,218.543961 21.146229,205.327164 23.212194,192.415543 
	C26.390148,172.554337 32.498482,153.405579 40.997307,135.102600 
	C50.876911,113.825981 63.832943,94.514343 79.492897,77.138885 
	C92.701088,62.483788 107.509293,49.384182 124.387474,39.131725 
	C137.238480,31.325535 150.775131,24.560955 164.359283,18.070805 
	C181.469955,9.895772 199.794586,5.580250 218.528488,2.928497 
	C219.425354,2.801548 220.179428,1.665901 221.000000,0.999998 
	C241.354233,1.000000 261.708466,1.000000 282.229614,1.364636 
	C283.233582,2.151472 284.027313,2.774292 284.914154,2.965604 
	C297.034515,5.580240 309.333618,7.537141 321.259308,10.843904 
	C339.539398,15.912614 356.906067,23.341713 373.490814,32.732250 
	C389.350616,41.712322 404.145203,52.134331 417.607147,64.285728 
	C433.340302,78.487221 446.974854,94.572769 458.248260,112.650841 
	C469.120728,130.085922 477.383636,148.660980 482.901489,168.360611 
	C490.685333,196.150223 492.742249,224.813995 493.825745,253.464340 
	C494.457703,270.175385 493.360321,286.953308 492.993683,303.700134 
	C492.699951,317.116211 492.078583,330.530121 492.047333,343.946045 
	C491.932007,393.430878 491.932770,442.916351 492.074310,492.401062 
	C492.095947,499.976654 491.581604,506.987030 484.816833,511.880890 
	C484.679749,511.980072 484.930298,512.614990 485.000000,513.000000 
M380.909363,499.757721 
	C381.567963,499.517761 382.226562,499.277771 383.852203,499.555695 
	C385.161774,499.710693 386.471313,500.000427 387.780884,500.000519 
	C409.159393,500.001923 430.537903,499.966705 452.860626,500.029358 
	C460.965057,500.029358 469.069458,500.029358 477.740753,500.029358 
	C477.740753,497.343414 477.740753,495.223877 477.740753,493.104370 
	C477.740753,409.545166 477.766785,325.985962 477.705475,242.426834 
	C477.698395,232.783432 477.756897,223.084579 476.787872,213.512375 
	C475.754517,203.304871 473.537079,193.217239 471.733032,182.321716 
	C467.079193,163.677612 460.550964,145.709518 450.889557,129.087708 
	C445.654968,120.081917 439.289673,111.733337 433.216827,102.391617 
	C428.421295,96.656448 423.896027,90.667557 418.787445,85.226257 
	C378.164093,41.956718 327.740601,19.267624 268.899628,15.274716 
	C239.571365,13.284519 210.862747,17.739193 183.060486,27.422966 
	C163.348923,34.288670 144.626831,43.153809 127.113144,55.879456 
	C97.581581,76.540695 74.422966,102.759857 57.762413,135.578552 
	C44.623131,161.037552 36.291367,188.121506 35.364243,216.647797 
	C34.169773,253.400024 35.014320,290.218536 34.859829,327.938019 
	C34.896973,344.584076 34.934120,361.230133 34.858688,378.832977 
	C34.858688,419.125000 34.858688,459.417023 34.858688,499.914490 
	C49.429707,499.914490 63.198982,499.914490 77.901680,500.045563 
	C104.608803,500.007812 131.315933,499.970062 158.955109,500.003418 
	C192.854416,500.011353 226.753738,500.029266 260.653046,500.023438 
	C280.459869,500.020020 300.266693,499.978699 320.994751,500.016327 
	C340.780457,499.944916 360.566193,499.873474 380.909363,499.757721 
z"/>
<path fill="#000000" opacity="1.000000" stroke="none" 
	d="
M485.468658,513.000000 
	C484.930298,512.614990 484.679749,511.980072 484.816833,511.880890 
	C491.581604,506.987030 492.095947,499.976654 492.074310,492.401062 
	C491.932770,442.916351 491.932007,393.430878 492.047333,343.946045 
	C492.078583,330.530121 492.699951,317.116211 492.993683,303.700134 
	C493.360321,286.953308 494.457703,270.175385 493.825745,253.464340 
	C492.742249,224.813995 490.685333,196.150223 482.901489,168.360611 
	C477.383636,148.660980 469.120728,130.085922 458.248260,112.650841 
	C446.974854,94.572769 433.340302,78.487221 417.607147,64.285728 
	C404.145203,52.134331 389.350616,41.712322 373.490814,32.732250 
	C356.906067,23.341713 339.539398,15.912614 321.259308,10.843904 
	C309.333618,7.537141 297.034515,5.580240 284.914154,2.965604 
	C284.027313,2.774292 283.233582,2.151472 282.698273,1.364636 
	C359.623108,1.000000 436.246216,1.000000 512.934692,1.000000 
	C512.934692,171.666656 512.934692,342.333313 512.928223,513.000000 
	C503.926971,513.000000 494.932159,513.000000 485.468658,513.000000 
z"/>
<path fill="#000000" opacity="1.000000" stroke="none" 
	d="
M220.531342,0.999998 
	C220.179428,1.665901 219.425354,2.801548 218.528488,2.928497 
	C199.794586,5.580250 181.469955,9.895772 164.359283,18.070805 
	C150.775131,24.560955 137.238480,31.325535 124.387474,39.131725 
	C107.509293,49.384182 92.701088,62.483788 79.492897,77.138885 
	C63.832943,94.514343 50.876911,113.825981 40.997307,135.102600 
	C32.498482,153.405579 26.390148,172.554337 23.212194,192.415543 
	C21.146229,205.327164 20.171942,218.543961 20.132917,231.628265 
	C19.873455,318.620911 20.059898,405.614807 19.894381,492.607910 
	C19.879398,500.482330 20.663054,507.489105 27.288406,512.705444 
	C18.338337,513.000000 9.676675,513.000000 1.011259,513.000000 
	C1.007506,342.436890 1.007506,171.873764 1.007506,1.000000 
	C74.020599,1.000000 147.041641,1.000000 220.531342,0.999998 
z"/>
<path fill="#FFBE5D" opacity="1.000000" stroke="none" 
	d="
M127.766014,55.636051 
	C144.626831,43.153809 163.348923,34.288670 183.060486,27.422966 
	C210.862747,17.739193 239.571365,13.284519 268.899628,15.274716 
	C327.740601,19.267624 378.164093,41.956718 418.787445,85.226257 
	C423.896027,90.667557 428.421295,96.656448 432.819336,102.739624 
	C429.756073,103.070686 427.081512,102.904549 424.425995,103.061005 
	C407.141876,104.079391 392.963837,111.285942 382.892334,125.388489 
	C369.560120,144.056793 369.517334,166.551132 382.112854,186.168015 
	C392.710663,202.673599 415.415070,211.878494 434.721191,208.385269 
	C451.063171,205.428375 462.801453,196.403671 471.836609,183.077271 
	C473.537079,193.217239 475.754517,203.304871 476.787872,213.512375 
	C477.756897,223.084579 477.698395,232.783432 477.705475,242.426834 
	C477.766785,325.985962 477.740753,409.545166 477.740753,493.104370 
	C477.740753,495.223877 477.740753,497.343414 477.740753,500.029358 
	C469.069458,500.029358 460.965057,500.029358 452.381256,499.534424 
	C450.189728,482.741028 448.477570,466.442505 446.835449,449.723755 
	C446.603912,447.366974 446.374359,445.416016 445.988861,443.496307 
	C443.480347,431.004120 440.937958,418.518738 438.333618,405.623108 
	C437.384155,401.747131 436.507721,398.279236 435.549683,394.434204 
	C435.171539,388.910889 434.875000,383.764709 434.497833,377.219116 
	C440.549805,383.004303 445.376312,387.618103 450.202850,392.231903 
	C450.598785,391.809296 450.994720,391.386688 451.390625,390.964050 
	C446.603210,385.968079 441.815765,380.972076 437.028320,375.976074 
	C437.243927,375.541199 437.459534,375.106323 437.675140,374.671448 
	C444.576721,374.671448 451.478333,374.671448 458.379913,374.671448 
	C458.375854,374.161407 458.371796,373.651398 458.367737,373.141357 
	C451.436829,373.141357 444.505920,373.141357 436.379181,373.141357 
	C442.208618,367.099243 447.072571,362.057831 451.936523,357.016449 
	C451.449738,356.545532 450.962982,356.074646 450.476227,355.603760 
	C445.500763,360.373047 440.525330,365.142334 435.190674,370.255951 
	C433.956909,362.677063 435.861328,355.795288 433.965851,349.294647 
	C433.390808,349.309479 432.815765,349.324341 432.240723,349.339172 
	C432.240723,356.272034 432.240723,363.204865 432.240723,371.623566 
	C428.771912,367.933228 426.425415,365.436920 424.031921,362.647339 
	C423.652985,361.889252 423.321075,361.424408 422.985870,360.978760 
	C422.982574,360.997955 423.019104,361.011108 422.991852,360.651398 
	C421.996368,358.372925 421.065125,356.434479 420.054230,354.538452 
	C409.012512,333.828674 390.540924,321.449158 370.812195,310.221863 
	C369.622437,309.554718 368.349609,309.241180 366.856628,308.662170 
	C351.758301,300.866943 336.425995,294.551453 320.046143,290.511230 
	C320.024231,269.872650 320.024231,249.700882 320.024231,230.691483 
	C325.430969,229.438126 331.020142,228.762802 336.132324,226.827530 
	C346.603699,222.863480 351.708221,214.053741 355.330200,203.925858 
	C359.760345,200.490967 357.872589,197.566132 354.923370,194.397858 
	C354.912201,193.166641 354.888000,192.271240 355.119934,191.101654 
	C357.572296,184.605698 355.502930,181.443298 348.651276,181.084122 
	C347.963165,180.921661 347.687897,180.856689 347.457520,180.538773 
	C347.168549,179.805618 346.834717,179.325394 346.493805,178.458282 
	C346.859100,174.933029 347.457916,171.802032 347.560883,168.654846 
	C347.854980,159.664597 346.236572,150.991684 338.512726,145.487320 
	C333.456848,141.884293 331.887665,137.854965 332.218750,132.020477 
	C332.982758,118.556801 326.366821,109.196251 314.883118,102.977669 
	C306.478577,98.426491 297.247009,97.524879 287.871887,96.894363 
	C283.941772,96.630058 279.790741,95.305603 276.320923,93.403641 
	C267.884521,88.779305 260.098236,82.901497 251.484680,78.683083 
	C237.337845,71.754807 222.319275,69.585922 206.867569,74.072350 
	C199.135162,76.317474 192.706665,80.450386 191.183624,89.060928 
	C189.973618,95.901810 185.962799,98.698212 179.508179,99.968536 
	C171.228180,101.598114 163.107956,104.039513 154.614166,105.984123 
	C152.008331,103.310226 149.707184,100.783340 147.406052,98.256462 
	C147.723938,97.642174 148.041824,97.027893 148.359711,96.413605 
	C154.577179,96.413605 160.794647,96.413605 167.012100,96.413605 
	C167.006592,95.740982 167.001083,95.068359 166.995560,94.395737 
	C160.762711,94.395737 154.529861,94.395737 148.296997,94.395737 
	C147.995499,93.823151 147.693985,93.250557 147.392471,92.677971 
	C151.742218,87.835152 156.091965,82.992332 160.441711,78.149513 
	C159.986801,77.753471 159.531876,77.357430 159.076965,76.961388 
	C155.404724,80.415657 151.732483,83.869919 147.924210,86.944443 
	C146.285416,82.410233 144.782684,78.255760 143.228241,73.717621 
	C142.482101,72.253746 141.787674,71.173531 140.953430,69.773727 
	C136.464417,64.848106 132.115219,60.242081 127.766014,55.636051 
M329.796112,58.007950 
	C320.565460,59.761372 314.589142,65.534355 313.858459,73.403328 
	C313.022705,82.403961 317.141571,89.798141 324.850525,92.723770 
	C332.093597,95.472595 338.639038,94.025726 344.224609,88.726715 
	C349.345795,83.868286 350.905212,75.968590 348.265625,69.409683 
	C345.264557,61.952614 339.410645,58.159096 329.796112,58.007950 
M410.743591,262.340393 
	C400.617737,261.239380 393.040344,265.521454 390.037994,274.041351 
	C387.281677,281.863190 390.260803,290.771729 397.190277,295.061432 
	C403.768951,299.133942 410.505920,299.170013 416.961884,294.953491 
	C423.088745,290.951904 425.817261,284.918640 424.846954,277.759064 
	C423.793610,269.986969 419.269470,264.751678 410.743591,262.340393 
z"/>
<path fill="#C7A7FC" opacity="1.000000" stroke="none" 
	d="
M435.631287,394.811279 
	C436.507721,398.279236 437.384155,401.747131 437.982666,405.723389 
	C435.047424,409.110870 432.390045,411.990021 429.457642,415.167175 
	C424.289825,409.637024 419.518768,404.531464 413.787842,398.398743 
	C414.247498,406.825165 414.621185,413.675629 414.995148,420.531189 
	C407.114655,420.531189 399.997681,420.531189 392.505096,420.531189 
	C394.511566,422.358582 396.221222,423.883026 397.893311,425.447662 
	C399.594116,427.039185 401.161713,428.787109 402.955078,430.263062 
	C409.369965,435.542480 409.407013,435.520996 403.248138,441.147339 
	C402.272675,442.038422 401.075958,442.691376 400.123688,443.602936 
	C397.844025,445.785034 395.649017,448.055542 392.472687,451.239929 
	C400.891296,450.790344 407.745361,450.424316 415.075989,450.032806 
	C414.654633,457.657227 414.279327,464.448364 413.904022,471.239532 
	C418.777191,467.597534 422.495819,463.628510 426.013000,459.488403 
	C428.632111,456.405426 430.479492,456.556671 433.016968,459.814514 
	C436.469604,464.247345 440.507111,468.224670 444.964264,473.136108 
	C444.600800,465.777130 444.296906,459.661163 443.997681,453.544922 
	C443.901947,451.587738 443.908752,449.703400 446.765411,450.144012 
	C448.477570,466.442505 450.189728,482.741028 451.909149,499.489624 
	C430.537903,499.966705 409.159393,500.001923 387.780884,500.000519 
	C386.471313,500.000427 385.161774,499.710693 383.159363,499.085785 
	C382.010223,486.965668 381.612488,475.312683 381.056458,463.667236 
	C380.917664,460.759674 380.268555,457.876495 379.918579,454.518127 
	C379.680420,438.724060 379.377716,423.393921 379.074982,408.063812 
	C378.443359,408.084625 377.811737,408.105438 377.180115,408.126251 
	C377.835327,423.744904 378.490570,439.363525 379.073334,455.446594 
	C379.161102,461.934845 379.321350,467.958649 378.987915,473.987854 
	C376.500214,474.010406 374.478485,473.822296 372.517792,474.086761 
	C368.270813,474.659637 366.469788,473.351715 366.864563,468.718506 
	C367.294037,463.677979 366.962036,458.572540 366.962036,452.428680 
	C361.831299,457.924469 357.088348,463.004913 352.073059,468.377045 
	C347.099426,463.094452 342.473053,458.180695 337.401276,452.793854 
	C337.401276,460.504517 337.401276,467.041046 337.401276,474.126892 
	C330.364807,474.126892 323.548248,474.126892 315.567322,474.126892 
	C321.388397,479.516296 326.302582,484.066071 331.492950,488.871582 
	C327.366455,492.876495 323.720032,496.415527 320.073547,499.954468 
	C300.266693,499.978699 280.459869,500.020020 260.653046,500.023438 
	C226.753738,500.029266 192.854416,500.011353 158.583221,499.603699 
	C160.774323,480.959290 163.857880,462.769073 165.772278,444.456604 
	C168.328308,420.006500 169.976532,395.461426 172.318207,371.098816 
	C174.163727,372.640808 175.705719,374.041107 177.830856,375.971008 
	C177.469040,368.287506 177.146973,361.447937 176.815216,354.403076 
	C184.238388,354.403076 190.891953,354.403076 199.100830,354.403076 
	C193.116241,348.775696 188.052612,344.014313 182.895142,339.164703 
	C188.351212,334.099823 193.385529,329.426453 198.834885,324.367798 
	C191.239319,324.367798 184.389740,324.367798 177.234650,324.367798 
	C177.123779,322.567322 177.013763,320.781006 176.929123,318.628418 
	C177.662308,316.747406 178.370132,315.232605 179.281799,313.663452 
	C179.732925,313.450592 179.909088,313.234131 179.994308,312.960541 
	C179.974487,312.961304 179.950485,312.992889 180.315140,312.962646 
	C187.063019,309.998230 193.446243,307.064087 200.117706,304.144043 
	C211.131500,309.237915 221.857056,314.317688 233.360458,319.765869 
	C224.387253,327.275665 216.046082,334.256470 207.209854,341.651611 
	C209.305008,342.838989 210.924057,343.595337 212.368835,344.601868 
	C220.786606,350.466278 229.525421,355.946381 237.449936,362.420319 
	C245.007309,368.594299 248.545319,377.085876 248.030838,387.125824 
	C247.555099,396.409912 247.420654,405.711487 247.057846,415.347351 
	C246.908768,416.151428 246.837738,416.613495 246.493958,417.243591 
	C243.711655,420.200439 241.202118,422.989197 238.435059,426.064148 
	C233.343185,420.559601 228.608200,415.440826 223.873230,410.322083 
	C223.526917,410.534668 223.180618,410.747223 222.834320,410.959778 
	C223.179520,417.809174 223.524719,424.658539 223.897903,432.063293 
	C216.430435,431.649841 209.623871,431.272980 202.266266,430.865601 
	C202.890411,432.048798 203.013748,432.552124 203.331482,432.843170 
	C206.387573,435.642792 209.440796,438.447479 212.563873,441.171539 
	C217.942780,445.863342 217.856796,447.389954 212.424118,451.790375 
	C208.703033,454.804321 205.248779,458.147705 200.814194,462.113922 
	C209.320435,461.674347 216.484985,461.304108 223.949951,460.918335 
	C223.559357,468.694366 223.218765,475.474731 222.878174,482.255066 
	C228.090546,478.127563 232.198975,473.816467 236.084351,469.312958 
	C237.800323,467.323944 239.204788,467.308044 240.989639,469.365967 
	C241.730392,470.085785 242.391144,470.503448 243.015930,471.192932 
	C242.951202,471.645264 242.922424,471.825745 242.552994,472.071838 
	C241.897064,473.131134 241.581787,474.124756 241.224915,475.361938 
	C241.412125,475.997925 241.640915,476.390381 241.936935,477.112335 
	C242.428482,477.782684 242.852814,478.123505 243.277145,478.464355 
	C243.422653,477.612213 243.568161,476.760040 243.776337,475.598633 
	C243.805283,474.872650 243.771545,474.455963 244.077759,474.110291 
	C247.253860,476.797607 250.090042,479.413910 253.019882,482.199127 
	C253.350632,482.245117 253.587738,482.122192 253.865372,481.573975 
	C253.518829,474.611237 253.131744,468.073761 252.704712,460.861877 
	C259.724640,460.861877 265.749512,460.861877 271.774414,460.861877 
	C272.062195,460.363617 272.349945,459.865326 272.637726,459.367065 
	C268.136658,455.109161 263.635590,450.851257 257.956421,445.478882 
	C263.361298,441.041260 268.227142,437.046204 273.092957,433.051147 
	C272.785767,432.602936 272.478577,432.154694 272.171356,431.706451 
	C265.929321,431.706451 259.687256,431.706451 252.724258,431.706451 
	C253.108414,424.478516 253.466568,417.739594 253.784424,410.813965 
	C253.465759,410.738800 253.187408,410.850342 252.632996,411.084351 
	C251.296249,412.114197 250.235535,413.021606 249.118881,413.502686 
	C249.346710,407.421112 249.831787,401.766754 249.857758,396.110321 
	C249.883850,390.428619 251.821228,385.560547 255.839066,381.801819 
	C259.331573,378.534607 263.162170,375.472687 267.274536,373.052826 
	C280.896576,365.037231 295.984253,360.923859 311.128387,357.688599 
	C309.547668,359.873596 308.062317,361.690094 306.548035,363.541992 
	C313.897583,363.541992 320.757385,363.541992 328.116211,363.541992 
	C327.720428,370.995575 327.344940,378.067169 326.900146,386.444092 
	C331.668976,380.999115 335.457794,376.828827 339.062653,372.505157 
	C341.682526,369.362915 343.522064,369.619904 346.043915,372.856812 
	C349.487793,377.277130 353.521606,381.237762 358.110321,386.283752 
	C357.636993,377.808350 357.243164,370.756226 356.840057,363.537933 
	C364.476196,363.537933 371.371277,363.537933 379.218750,363.537933 
	C374.559753,359.327728 370.709747,355.681732 366.673828,352.254608 
	C363.489044,349.550171 363.338379,347.618011 366.939240,344.907440 
	C371.199005,341.700958 374.910065,337.765533 379.474396,333.582031 
	C371.448212,333.582031 364.466766,333.582031 356.916656,333.582031 
	C357.256775,326.517426 357.581573,319.770966 358.218903,312.750732 
	C362.597382,311.843170 366.663269,311.209351 370.729187,310.575531 
	C390.540924,321.449158 409.012512,333.828674 420.054230,354.538452 
	C421.065125,356.434479 421.996368,358.372925 422.643250,360.638458 
	C420.170776,359.376923 418.019684,357.768585 415.868591,356.160278 
	C415.402161,356.694611 414.935699,357.228943 414.469238,357.763275 
	C417.034088,360.048431 419.719269,362.214569 422.129456,364.652618 
	C424.478058,367.028442 426.545349,369.682404 428.736145,372.214233 
	C428.502075,372.687836 428.268036,373.161469 428.033997,373.635071 
	C421.529541,373.635071 415.025116,373.635071 408.520691,373.635071 
	C408.552460,374.153503 408.584229,374.671967 408.615997,375.190399 
	C415.283081,375.190399 421.950165,375.190399 430.120850,375.190399 
	C424.343994,381.195496 419.638977,386.086426 414.933990,390.977325 
	C415.441895,391.517059 415.949829,392.056793 416.457764,392.596527 
	C421.239105,388.007477 426.020447,383.418427 431.533264,378.127319 
	C431.908142,385.864441 432.224548,392.394379 432.540955,398.924286 
	C433.078766,398.904114 433.616577,398.883911 434.154419,398.863708 
	C434.646698,397.512909 435.138977,396.162109 435.631287,394.811279 
M242.232620,483.395630 
	C241.916840,482.741455 241.601059,482.087311 241.285294,481.433136 
	C240.853409,481.542145 240.421524,481.651154 239.989639,481.760162 
	C240.275497,483.735657 240.561340,485.711151 240.847198,487.686646 
	C241.460632,487.621552 242.074081,487.556488 242.687515,487.491394 
	C242.635391,486.355133 242.583267,485.218903 242.232620,483.395630 
M274.623718,461.514008 
	C274.623718,461.514008 274.407959,461.401550 274.407959,461.401550 
	C274.407959,461.401550 274.444855,461.619293 274.623718,461.514008 
M274.492065,431.372650 
	C274.492065,431.372650 274.374054,431.560638 274.374054,431.560638 
	C274.374054,431.560638 274.615692,431.539520 274.492065,431.372650 
z"/>
<path fill="#E76257" opacity="1.000000" stroke="none" 
	d="
M172.014648,370.957153 
	C169.976532,395.461426 168.328308,420.006500 165.772278,444.456604 
	C163.857880,462.769073 160.774323,480.959290 158.117188,499.568115 
	C131.315933,499.970062 104.608803,500.007812 77.427322,499.521179 
	C76.755257,482.854614 80.248283,467.317749 84.728577,452.409454 
	C84.785599,459.358765 84.785599,465.832062 84.785599,472.305328 
	C85.478813,472.315125 86.172020,472.324921 86.865234,472.334717 
	C86.865234,465.313416 86.865234,458.292114 86.865234,451.270813 
	C87.790695,450.689911 88.716148,450.108978 89.641609,449.528046 
	C94.252258,454.769287 98.862915,460.010498 103.473564,465.251740 
	C103.766373,464.967072 104.059181,464.682434 104.351982,464.397797 
	C99.379120,459.240784 94.406250,454.083801 89.433380,448.926788 
	C89.624207,448.527222 89.815025,448.127655 90.005852,447.728088 
	C96.911903,447.728088 103.817963,447.728088 110.724014,447.728088 
	C110.715683,447.253387 110.707352,446.778656 110.699020,446.303955 
	C103.744621,446.303955 96.790215,446.303955 88.583015,446.303955 
	C94.462341,440.245789 99.380539,435.177948 104.298744,430.110138 
	C103.831581,429.658478 103.364418,429.206818 102.897247,428.755157 
	C97.821548,433.748932 92.745850,438.742706 87.148361,444.249847 
	C87.148361,441.920044 87.148361,440.466614 87.380913,438.727112 
	C90.704575,426.879333 93.795685,415.317566 96.984161,403.400055 
	C102.763336,384.688293 108.441353,366.331177 114.128479,347.976837 
	C117.117867,338.329010 120.123184,328.686127 123.371193,318.784851 
	C129.293442,306.583344 129.514145,293.912933 128.951614,281.038025 
	C128.177536,263.321442 127.790268,245.587967 127.544128,227.787140 
	C132.778412,221.387848 139.896408,219.756241 147.255112,219.178009 
	C149.127548,219.030884 152.618561,220.576706 152.876419,221.849152 
	C154.578339,230.247391 155.661728,238.775558 156.748566,247.286697 
	C156.856705,248.133606 155.740616,249.814621 155.007050,249.930237 
	C153.943283,250.097839 152.181747,249.528503 151.642563,248.683441 
	C149.509583,245.340591 147.674652,241.799942 145.853622,238.268494 
	C144.732086,236.093567 143.835693,233.802536 142.838226,231.563644 
	C142.454773,231.751648 142.071320,231.939636 141.687866,232.127640 
	C143.478119,238.990463 146.030365,245.567413 151.086472,250.810684 
	C154.143341,253.980682 157.386826,253.014694 158.394882,248.620895 
	C159.140533,245.370804 159.003693,241.918243 159.306259,237.949051 
	C160.688263,239.240768 161.485855,240.504883 162.599808,240.919922 
	C164.950607,241.795792 167.795303,243.210007 169.813217,242.535675 
	C171.478882,241.979050 173.069260,238.795547 173.223312,236.669586 
	C173.465759,233.323303 172.473999,229.887604 172.022934,226.442856 
	C172.041092,226.395950 172.063828,226.297943 171.995605,225.870087 
	C172.029037,224.167511 172.130707,222.892776 172.239792,221.525162 
	C176.093964,222.312149 179.696106,223.017609 182.185760,218.797440 
	C182.807861,217.963745 183.211136,217.315277 183.719147,217.145599 
	C183.421280,229.072327 183.018646,240.520264 182.661423,250.676941 
	C186.076462,242.858368 190.008484,233.856186 193.957581,225.316620 
	C194.003342,237.232147 195.902206,248.217453 202.036041,258.545959 
	C201.325424,264.704132 200.380295,270.436218 200.021210,276.204803 
	C199.364822,286.749481 196.070068,295.824310 187.816498,302.989868 
	C184.670761,305.720947 182.542465,309.623962 179.950470,312.992889 
	C179.950485,312.992889 179.974487,312.961304 179.789215,313.018555 
	C179.347382,313.223328 179.172058,313.437317 179.077957,313.717834 
	C178.370132,315.232605 177.662308,316.747406 176.686829,318.935669 
	C174.951019,336.725189 173.482834,353.841156 172.014648,370.957153 
z"/>
<path fill="#FFBE5C" opacity="1.000000" stroke="none" 
	d="
M127.237274,227.861740 
	C127.790268,245.587967 128.177536,263.321442 128.951614,281.038025 
	C129.514145,293.912933 129.293442,306.583344 123.195068,318.490967 
	C108.110687,302.177765 90.189827,295.868774 68.683128,301.047638 
	C53.645191,304.668793 43.041584,314.234100 34.980659,327.008484 
	C35.014320,290.218536 34.169773,253.400024 35.364243,216.647797 
	C36.291367,188.121506 44.623131,161.037552 58.233356,135.437073 
	C69.133736,145.240753 81.425476,150.370483 95.964668,150.031494 
	C110.204468,149.699478 122.303215,144.289719 132.965424,135.426361 
	C134.844162,140.602234 136.105743,145.684052 138.552368,150.110931 
	C142.560226,157.362717 143.441025,164.436920 140.033447,172.055176 
	C133.560150,186.527298 136.140091,199.193054 147.506073,210.072632 
	C142.069321,214.462448 137.766129,219.723221 131.181946,222.261353 
	C129.410645,222.944199 128.527908,225.932007 127.237274,227.861740 
M63.776001,254.958267 
	C64.268669,255.041458 64.763641,255.112976 65.253670,255.209564 
	C72.254799,256.589539 79.533081,253.678497 83.471672,247.646439 
	C87.686958,241.190643 87.786736,234.490738 83.810799,227.887314 
	C80.119316,221.756348 72.937759,218.630219 65.819847,219.810226 
	C57.160648,221.245758 51.761654,226.940887 50.597065,235.867996 
	C49.556911,243.841293 54.150700,250.841705 63.776001,254.958267 
z"/>
<path fill="#B2B68A" opacity="1.000000" stroke="none" 
	d="
M471.784821,182.699493 
	C462.801453,196.403671 451.063171,205.428375 434.721191,208.385269 
	C415.415070,211.878494 392.710663,202.673599 382.112854,186.168015 
	C369.517334,166.551132 369.560120,144.056793 382.892334,125.388489 
	C392.963837,111.285942 407.141876,104.079391 424.425995,103.061005 
	C427.081512,102.904549 429.756073,103.070686 432.928101,103.087959 
	C439.289673,111.733337 445.654968,120.081917 450.889557,129.087708 
	C460.550964,145.709518 467.079193,163.677612 471.784821,182.699493 
z"/>
<path fill="#B2B68A" opacity="1.000000" stroke="none" 
	d="
M34.920246,327.473267 
	C43.041584,314.234100 53.645191,304.668793 68.683128,301.047638 
	C90.189827,295.868774 108.110687,302.177765 122.945175,318.747131 
	C120.123184,328.686127 117.117867,338.329010 114.128479,347.976837 
	C108.441353,366.331177 102.763336,384.688293 96.556946,403.456177 
	C86.486366,405.091980 77.002052,406.117950 67.466042,403.338806 
	C53.170551,399.172638 42.809868,390.182098 34.971268,377.876190 
	C34.934120,361.230133 34.896973,344.584076 34.920246,327.473267 
z"/>
<path fill="#FFBE5D" opacity="1.000000" stroke="none" 
	d="
M34.914978,378.354584 
	C42.809868,390.182098 53.170551,399.172638 67.466042,403.338806 
	C77.002052,406.117950 86.486366,405.091980 96.459579,403.811951 
	C93.795685,415.317566 90.704575,426.879333 87.316933,438.263794 
	C87.020401,432.836945 87.020401,427.587372 87.020401,422.337769 
	C86.318840,422.357300 85.617287,422.376801 84.915726,422.396332 
	C84.915726,429.361420 84.915726,436.326508 84.915726,444.341431 
	C78.954521,438.602570 73.899055,433.735687 68.843597,428.868805 
	C68.380043,429.355011 67.916496,429.841217 67.452942,430.327423 
	C72.241600,435.320007 77.030258,440.312592 81.818909,445.305145 
	C81.628281,445.765625 81.437645,446.226105 81.247017,446.686584 
	C74.585121,446.686584 67.923225,446.686584 61.261333,446.686584 
	C61.282299,447.251373 61.303265,447.816162 61.324234,448.380951 
	C68.125618,448.380951 74.926994,448.380951 83.006996,448.380951 
	C77.188416,454.290009 72.411850,459.140869 67.635284,463.991730 
	C68.028381,464.419556 68.421478,464.847382 68.814575,465.275177 
	C69.968643,464.306091 71.190292,463.406067 72.264214,462.355072 
	C75.597160,459.093353 78.833130,455.731262 82.215187,452.522400 
	C82.744095,452.020569 83.838593,452.114838 84.671562,451.933441 
	C80.248283,467.317749 76.755257,482.854614 76.960609,499.455627 
	C63.198982,499.914490 49.429707,499.914490 34.858688,499.914490 
	C34.858688,459.417023 34.858688,419.125000 34.914978,378.354584 
z"/>
<path fill="#B2B68A" opacity="1.000000" stroke="none" 
	d="
M132.880524,135.038116 
	C122.303215,144.289719 110.204468,149.699478 95.964668,150.031494 
	C81.425476,150.370483 69.133736,145.240753 58.420090,135.133682 
	C74.422966,102.759857 97.581581,76.540695 127.439575,55.757751 
	C132.115219,60.242081 136.464417,64.848106 140.907440,70.232925 
	C141.001266,77.753525 141.001266,84.495331 141.001266,92.344910 
	C135.096924,86.642532 130.043701,81.762161 124.990471,76.881790 
	C124.495255,77.392433 124.000038,77.903076 123.504822,78.413727 
	C128.260544,83.386131 133.016266,88.358543 137.772003,93.330956 
	C137.574188,93.804489 137.376389,94.278030 137.178574,94.751572 
	C130.483276,94.751572 123.787979,94.751572 117.092682,94.751572 
	C117.096909,95.369347 117.101135,95.987114 117.105362,96.604889 
	C123.864563,96.604889 130.623764,96.604889 138.658066,96.604889 
	C132.908615,102.710091 128.231339,107.676796 123.554047,112.643501 
	C124.183929,113.230965 124.813812,113.818428 125.443703,114.405891 
	C129.988831,109.061584 134.533981,103.717278 139.079117,98.372971 
	C139.561340,98.833405 140.043549,99.293831 140.525772,99.754265 
	C140.525772,105.132812 140.525772,110.511360 140.397552,116.289101 
	C135.949280,122.057106 133.310684,128.102982 132.880524,135.038116 
z"/>
<path fill="#FEACBA" opacity="1.000000" stroke="none" 
	d="
M320.534180,499.985413 
	C323.720032,496.415527 327.366455,492.876495 331.492950,488.871582 
	C326.302582,484.066071 321.388397,479.516296 315.567322,474.126892 
	C323.548248,474.126892 330.364807,474.126892 337.401276,474.126892 
	C337.401276,467.041046 337.401276,460.504517 337.401276,452.793854 
	C342.473053,458.180695 347.099426,463.094452 352.073059,468.377045 
	C357.088348,463.004913 361.831299,457.924469 366.962036,452.428680 
	C366.962036,458.572540 367.294037,463.677979 366.864563,468.718506 
	C366.469788,473.351715 368.270813,474.659637 372.517792,474.086761 
	C374.478485,473.822296 376.500214,474.010406 379.084198,474.376984 
	C379.709229,477.229858 379.744293,479.699036 379.504028,482.315247 
	C377.052765,484.453064 374.876801,486.443848 372.062164,489.018982 
	C375.190277,491.443390 377.603668,493.313843 380.125549,495.556702 
	C380.273285,497.220062 380.312592,498.511078 380.351898,499.802063 
	C360.566193,499.873474 340.780457,499.944916 320.534180,499.985413 
z"/>
<path fill="#49242A" opacity="1.000000" stroke="none" 
	d="
M380.630615,499.779907 
	C380.312592,498.511078 380.273285,497.220062 380.204285,495.079254 
	C380.042816,490.209015 379.911102,486.188629 379.779388,482.168213 
	C379.744293,479.699036 379.709229,477.229858 379.577850,474.371552 
	C379.321350,467.958649 379.161102,461.934845 379.250366,455.452393 
	C379.499878,454.993713 379.854004,454.982086 379.854004,454.982086 
	C380.268555,457.876495 380.917664,460.759674 381.056458,463.667236 
	C381.612488,475.312683 382.010223,486.965668 382.675842,498.826843 
	C382.226562,499.277771 381.567963,499.517761 380.630615,499.779907 
z"/>
<path fill="#35110F" opacity="1.000000" stroke="none" 
	d="
M132.965424,135.426361 
	C133.310684,128.102982 135.949280,122.057106 140.516449,116.700020 
	C141.055298,118.069489 141.347031,119.427231 141.638748,120.784973 
	C142.042938,120.719902 142.447128,120.654823 142.851318,120.589752 
	C143.008362,118.163849 143.165390,115.737946 143.634766,113.183136 
	C146.707199,111.230988 149.467285,109.407761 152.525330,107.751373 
	C155.005219,109.874123 157.187149,111.830040 159.369095,113.785950 
	C159.717056,113.428307 160.065018,113.070656 160.412994,112.713013 
	C158.581619,110.519051 156.750259,108.325096 154.918884,106.131134 
	C163.107956,104.039513 171.228180,101.598114 179.508179,99.968536 
	C185.962799,98.698212 189.973618,95.901810 191.183624,89.060928 
	C192.706665,80.450386 199.135162,76.317474 206.867569,74.072350 
	C222.319275,69.585922 237.337845,71.754807 251.484680,78.683083 
	C260.098236,82.901497 267.884521,88.779305 276.320923,93.403641 
	C279.790741,95.305603 283.941772,96.630058 287.871887,96.894363 
	C297.247009,97.524879 306.478577,98.426491 314.883118,102.977669 
	C326.366821,109.196251 332.982758,118.556801 332.218750,132.020477 
	C331.887665,137.854965 333.456848,141.884293 338.512726,145.487320 
	C346.236572,150.991684 347.854980,159.664597 347.560883,168.654846 
	C347.457916,171.802032 346.859100,174.933029 346.076111,178.504822 
	C345.389771,178.985153 345.114105,179.032059 344.446167,179.118011 
	C337.430817,179.696198 332.056824,181.911560 328.571228,188.262680 
	C326.773376,191.538559 323.412292,193.956528 320.741425,196.779175 
	C319.802917,192.745102 319.024384,189.398605 318.165955,185.780945 
	C317.986969,185.351273 317.887909,185.192764 317.711426,184.709747 
	C315.087646,180.637070 311.595337,178.752930 306.645142,178.879105 
	C301.908478,177.414536 297.548157,176.070984 293.016174,174.442108 
	C289.849579,170.471725 286.319824,168.446014 281.327911,169.856720 
	C279.986176,170.235886 278.068939,170.164276 276.963409,169.451004 
	C274.900848,168.120270 271.873535,166.254211 271.759064,164.451492 
	C271.617645,162.223831 273.528564,159.150101 275.485199,157.700821 
	C277.555206,156.167557 280.721008,156.113647 283.444458,155.404114 
	C284.744690,146.974915 282.940063,143.954269 274.943695,141.341934 
	C273.207733,140.774811 271.418274,140.360519 269.707001,139.730438 
	C259.896881,136.118393 254.619995,128.891388 255.089737,118.379501 
	C255.328766,113.030846 256.943542,107.743675 257.978760,102.202133 
	C239.461212,103.639137 223.673981,111.158119 211.035599,125.044899 
	C197.686432,139.712677 192.320770,157.265793 192.596985,176.907135 
	C191.193832,177.258179 190.141449,177.564194 188.970642,178.086975 
	C188.687836,178.603958 188.449249,178.823639 187.905960,178.692200 
	C182.411209,171.142563 172.161499,175.916611 166.114029,187.444946 
	C166.300537,187.701035 166.438980,188.064514 166.692841,188.185120 
	C167.429962,188.535416 168.213379,188.788300 168.969116,189.430954 
	C168.954056,190.016876 168.948502,190.251251 168.537659,190.370300 
	C160.690186,189.683411 156.923706,194.420883 157.554825,202.759598 
	C160.265823,203.942993 162.657318,204.986938 164.673111,206.190125 
	C158.430008,203.266144 154.436630,207.614746 149.586548,209.962585 
	C148.760345,209.958862 148.288101,209.962189 147.815857,209.965515 
	C136.140091,199.193054 133.560150,186.527298 140.033447,172.055176 
	C143.441025,164.436920 142.560226,157.362717 138.552368,150.110931 
	C136.105743,145.684052 134.844162,140.602234 132.965424,135.426361 
M154.283432,190.266800 
	C154.283432,193.991013 154.283432,197.715225 154.283432,201.439438 
	C154.975677,201.425873 155.667908,201.412292 156.360153,201.398727 
	C156.360153,196.515579 156.360153,191.632431 156.360153,186.749298 
	C155.999054,186.728256 155.637955,186.707214 155.276840,186.686172 
	C154.983444,187.616623 154.690033,188.547073 154.283432,190.266800 
z"/>
<path fill="#FE6D60" opacity="1.000000" stroke="none" 
	d="
M318.245850,186.052094 
	C319.024384,189.398605 319.802917,192.745102 320.741425,196.779175 
	C323.412292,193.956528 326.773376,191.538559 328.571228,188.262680 
	C332.056824,181.911560 337.430817,179.696198 344.331909,179.418823 
	C332.154205,189.193619 327.128815,202.448700 325.552917,217.368835 
	C326.914612,215.600662 327.464600,213.494461 328.012573,211.387695 
	C331.205292,199.113037 335.895081,187.787766 347.412628,180.791702 
	C347.687897,180.856689 347.963165,180.921661 348.461609,181.351898 
	C347.407776,183.779190 346.130737,185.841232 344.853699,187.903275 
	C345.212616,188.045456 345.571533,188.187637 345.930450,188.329834 
	C347.377991,186.810196 348.825562,185.290573 350.273102,183.770950 
	C351.515411,185.737823 352.768372,187.698105 353.993042,189.675919 
	C354.327087,190.215439 354.575897,190.807755 354.863831,191.375839 
	C354.888000,192.271240 354.912201,193.166641 354.584229,194.322784 
	C348.741547,193.920959 346.239990,196.535248 347.554718,200.488144 
	C349.193726,199.158722 351.284607,196.195175 352.832153,196.455948 
	C356.761383,197.118042 354.829590,200.851730 354.981689,203.430817 
	C354.991302,203.594376 354.967651,203.759903 354.959473,203.924515 
	C351.708221,214.053741 346.603699,222.863480 336.132324,226.827530 
	C331.020142,228.762802 325.430969,229.438126 320.024231,230.691483 
	C320.024231,249.700882 320.024231,269.872650 319.899902,290.822021 
	C307.580261,308.202881 295.339874,324.773224 283.205597,341.420898 
	C275.099152,352.542603 267.143707,363.774353 258.965210,375.263153 
	C256.087341,378.597382 253.364929,381.625336 250.499619,384.812195 
	C249.585815,380.498779 248.744537,376.527771 247.826050,372.235809 
	C247.485306,371.594696 247.221771,371.274567 246.994995,370.968048 
	C247.031769,370.981659 247.015518,371.058350 247.086975,370.601776 
	C246.257538,361.423706 245.394409,352.698120 244.447708,343.981598 
	C242.607590,327.039185 240.720581,310.101898 238.887177,292.740997 
	C238.936996,290.910461 238.952621,289.501434 239.394409,288.105042 
	C258.872559,284.700348 276.085419,277.363739 290.877747,265.039978 
	C273.469635,265.748932 256.312256,266.447662 238.693390,267.105194 
	C225.635574,266.279510 213.000854,265.650665 202.065811,258.136322 
	C195.902206,248.217453 194.003342,237.232147 193.950806,224.919647 
	C193.650360,221.101807 193.373764,218.143509 193.388947,215.307602 
	C195.391800,216.734192 197.054184,218.108826 198.821930,219.331055 
	C209.273483,226.557343 207.341125,226.889343 216.902405,219.257187 
	C224.294968,213.356186 230.390015,205.829712 237.078003,199.414673 
	C236.149170,202.971115 234.990250,206.093521 234.308426,209.316818 
	C233.232651,214.402771 236.287247,217.563370 241.604141,217.187057 
	C235.191315,212.091125 235.225006,212.102249 238.088760,203.425980 
	C239.223053,199.989395 240.170486,196.491135 241.630524,192.985260 
	C245.011063,193.832581 249.955658,193.976349 250.601334,195.715836 
	C255.670837,209.373352 266.890320,216.679825 278.205994,223.977829 
	C279.191101,224.613190 281.282257,224.704010 282.210785,224.080872 
	C295.778656,214.975342 309.385101,205.825165 311.645203,187.723190 
	C313.900940,187.152100 316.073395,186.602097 318.245850,186.052094 
M252.703918,232.118988 
	C253.286865,231.982712 253.869797,231.846436 254.803879,231.628082 
	C249.190216,228.565247 243.090302,229.964066 240.276978,234.492508 
	C243.405334,233.707413 246.659592,232.890717 249.621338,232.662140 
	C243.001617,241.867844 236.381882,251.073532 229.762161,260.279236 
	C230.265106,260.640778 230.768036,261.002350 231.270981,261.363922 
	C238.180237,251.633621 245.089493,241.903305 252.703918,232.118988 
M229.837372,262.538055 
	C228.960556,262.936157 228.083740,263.334259 227.206924,263.732330 
	C227.449905,264.095459 227.692886,264.458557 227.935883,264.821655 
	C228.546112,264.285919 229.156342,263.750153 229.837372,262.538055 
M292.405273,263.523102 
	C292.405273,263.523102 292.493561,263.539459 292.405273,263.523102 
z"/>
<path fill="#C7A6FA" opacity="1.000000" stroke="none" 
	d="
M259.120667,374.956848 
	C267.143707,363.774353 275.099152,352.542603 283.205597,341.420898 
	C295.339874,324.773224 307.580261,308.202881 319.921814,291.288849 
	C336.425995,294.551453 351.758301,300.866943 366.470947,308.810059 
	C359.209686,310.522095 352.113892,311.820770 344.605072,313.090454 
	C340.703552,313.670685 337.196869,314.198761 333.745087,314.971954 
	C333.192627,315.095703 332.885986,316.316772 332.483643,317.039673 
	C332.501526,317.048798 332.538605,317.033386 332.640686,316.546326 
	C331.577209,315.992950 330.411621,315.926636 329.109528,315.783813 
	C328.648102,315.661743 328.367554,315.744263 327.772797,315.959351 
	C327.270020,316.299591 327.125854,316.635345 326.990234,316.985535 
	C326.998779,317.000000 326.976196,316.974274 326.655823,316.608032 
	C322.543365,316.840179 318.751312,317.438568 313.587891,318.253387 
	C319.204193,322.546204 323.615784,325.918182 328.015808,329.705566 
	C328.410522,333.146454 327.155853,334.209137 324.075104,334.096527 
	C318.252655,333.883698 312.416870,334.035004 306.273865,334.035004 
	C309.672302,337.261444 312.843140,340.604187 316.358948,343.532806 
	C321.798950,348.064240 321.898865,347.944305 317.430847,353.579468 
	C297.573212,358.406494 278.043549,363.113892 261.020752,374.597595 
	C260.529968,374.928711 259.760284,374.846375 259.120667,374.956848 
z"/>
<path fill="#FEACBA" opacity="1.000000" stroke="none" 
	d="
M446.835449,449.723755 
	C443.908752,449.703400 443.901947,451.587738 443.997681,453.544922 
	C444.296906,459.661163 444.600800,465.777130 444.964264,473.136108 
	C440.507111,468.224670 436.469604,464.247345 433.016968,459.814514 
	C430.479492,456.556671 428.632111,456.405426 426.013000,459.488403 
	C422.495819,463.628510 418.777191,467.597534 413.904022,471.239532 
	C414.279327,464.448364 414.654633,457.657227 415.075989,450.032806 
	C407.745361,450.424316 400.891296,450.790344 392.472687,451.239929 
	C395.649017,448.055542 397.844025,445.785034 400.123688,443.602936 
	C401.075958,442.691376 402.272675,442.038422 403.248138,441.147339 
	C409.407013,435.520996 409.369965,435.542480 402.955078,430.263062 
	C401.161713,428.787109 399.594116,427.039185 397.893311,425.447662 
	C396.221222,423.883026 394.511566,422.358582 392.505096,420.531189 
	C399.997681,420.531189 407.114655,420.531189 414.995148,420.531189 
	C414.621185,413.675629 414.247498,406.825165 413.787842,398.398743 
	C419.518768,404.531464 424.289825,409.637024 429.457642,415.167175 
	C432.390045,411.990021 435.047424,409.110870 438.055695,406.131409 
	C440.937958,418.518738 443.480347,431.004120 445.988861,443.496307 
	C446.374359,445.416016 446.603912,447.366974 446.835449,449.723755 
z"/>
<path fill="#FFFEFD" opacity="1.000000" stroke="none" 
	d="
M330.223328,58.001274 
	C339.410645,58.159096 345.264557,61.952614 348.265625,69.409683 
	C350.905212,75.968590 349.345795,83.868286 344.224609,88.726715 
	C338.639038,94.025726 332.093597,95.472595 324.850525,92.723770 
	C317.141571,89.798141 313.022705,82.403961 313.858459,73.403328 
	C314.589142,65.534355 320.565460,59.761372 330.223328,58.001274 
z"/>
<path fill="#FFFEFD" opacity="1.000000" stroke="none" 
	d="
M411.130310,262.478607 
	C419.269470,264.751678 423.793610,269.986969 424.846954,277.759064 
	C425.817261,284.918640 423.088745,290.951904 416.961884,294.953491 
	C410.505920,299.170013 403.768951,299.133942 397.190277,295.061432 
	C390.260803,290.771729 387.281677,281.863190 390.037994,274.041351 
	C393.040344,265.521454 400.617737,261.239380 411.130310,262.478607 
z"/>
<path fill="#F6F2E8" opacity="1.000000" stroke="none" 
	d="
M143.322418,113.312042 
	C143.165390,115.737946 143.008362,118.163849 142.851318,120.589752 
	C142.447128,120.654823 142.042938,120.719902 141.638748,120.784973 
	C141.347031,119.427231 141.055298,118.069489 140.644684,116.300827 
	C140.525772,110.511360 140.525772,105.132812 140.525772,99.754265 
	C140.043549,99.293831 139.561340,98.833405 139.079117,98.372971 
	C134.533981,103.717278 129.988831,109.061584 125.443703,114.405891 
	C124.813812,113.818428 124.183929,113.230965 123.554047,112.643501 
	C128.231339,107.676796 132.908615,102.710091 138.658066,96.604889 
	C130.623764,96.604889 123.864563,96.604889 117.105362,96.604889 
	C117.101135,95.987114 117.096909,95.369347 117.092682,94.751572 
	C123.787979,94.751572 130.483276,94.751572 137.178574,94.751572 
	C137.376389,94.278030 137.574188,93.804489 137.772003,93.330956 
	C133.016266,88.358543 128.260544,83.386131 123.504822,78.413727 
	C124.000038,77.903076 124.495255,77.392433 124.990471,76.881790 
	C130.043701,81.762161 135.096924,86.642532 141.001266,92.344910 
	C141.001266,84.495331 141.001266,77.753525 141.047272,70.552513 
	C141.787674,71.173531 142.482101,72.253746 143.158569,74.169655 
	C143.140594,80.459526 143.140594,85.913712 143.140594,92.577141 
	C145.404724,90.159630 146.732498,88.741905 148.060257,87.324188 
	C151.732483,83.869919 155.404724,80.415657 159.076965,76.961388 
	C159.531876,77.357430 159.986801,77.753471 160.441711,78.149513 
	C156.091965,82.992332 151.742218,87.835152 147.392471,92.677971 
	C147.693985,93.250557 147.995499,93.823151 148.296997,94.395737 
	C154.529861,94.395737 160.762711,94.395737 166.995560,94.395737 
	C167.001083,95.068359 167.006592,95.740982 167.012100,96.413605 
	C160.794647,96.413605 154.577179,96.413605 148.359711,96.413605 
	C148.041824,97.027893 147.723938,97.642174 147.406052,98.256462 
	C149.707184,100.783340 152.008331,103.310226 154.614166,105.984116 
	C156.750259,108.325096 158.581619,110.519051 160.412994,112.713013 
	C160.065018,113.070656 159.717056,113.428307 159.369095,113.785950 
	C157.187149,111.830040 155.005219,109.874123 152.416458,107.444107 
	C149.575729,104.150436 147.141815,101.330879 144.707916,98.511322 
	C144.246078,98.864265 143.784256,99.217209 143.322418,99.570160 
	C143.322418,104.150787 143.322418,108.731415 143.322418,113.312042 
z"/>
<path fill="#FCF5F2" opacity="1.000000" stroke="none" 
	d="
M435.549683,394.434174 
	C435.138977,396.162109 434.646698,397.512909 434.154419,398.863708 
	C433.616577,398.883911 433.078766,398.904114 432.540955,398.924286 
	C432.224548,392.394379 431.908142,385.864441 431.533264,378.127319 
	C426.020447,383.418427 421.239105,388.007477 416.457764,392.596527 
	C415.949829,392.056793 415.441895,391.517059 414.933990,390.977325 
	C419.638977,386.086426 424.343994,381.195496 430.120850,375.190399 
	C421.950165,375.190399 415.283081,375.190399 408.615997,375.190399 
	C408.584229,374.671967 408.552460,374.153503 408.520691,373.635071 
	C415.025116,373.635071 421.529541,373.635071 428.033997,373.635071 
	C428.268036,373.161469 428.502075,372.687836 428.736145,372.214233 
	C426.545349,369.682404 424.478058,367.028442 422.129456,364.652618 
	C419.719269,362.214569 417.034088,360.048431 414.469238,357.763275 
	C414.935699,357.228943 415.402161,356.694611 415.868591,356.160278 
	C418.019684,357.768585 420.170776,359.376923 422.670471,360.998169 
	C423.019104,361.011108 422.982574,360.997955 422.992737,361.285217 
	C423.361542,362.028534 423.720245,362.484558 424.078918,362.940582 
	C426.425415,365.436920 428.771912,367.933228 432.240723,371.623566 
	C432.240723,363.204865 432.240723,356.272034 432.240723,349.339172 
	C432.815765,349.324341 433.390808,349.309479 433.965851,349.294647 
	C435.861328,355.795288 433.956909,362.677063 435.190674,370.255951 
	C440.525330,365.142334 445.500763,360.373047 450.476227,355.603760 
	C450.962982,356.074646 451.449738,356.545532 451.936523,357.016449 
	C447.072571,362.057831 442.208618,367.099243 436.379181,373.141357 
	C444.505920,373.141357 451.436829,373.141357 458.367737,373.141357 
	C458.371796,373.651398 458.375854,374.161407 458.379913,374.671448 
	C451.478333,374.671448 444.576721,374.671448 437.675140,374.671448 
	C437.459534,375.106323 437.243927,375.541199 437.028320,375.976074 
	C441.815765,380.972076 446.603210,385.968079 451.390625,390.964050 
	C450.994720,391.386688 450.598785,391.809296 450.202850,392.231903 
	C445.376312,387.618103 440.549805,383.004303 434.497833,377.219116 
	C434.875000,383.764709 435.171539,388.910889 435.549683,394.434174 
z"/>
<path fill="#521E1A" opacity="1.000000" stroke="none" 
	d="
M347.457520,180.538773 
	C335.895081,187.787766 331.205292,199.113037 328.012573,211.387695 
	C327.464600,213.494461 326.914612,215.600662 325.552917,217.368835 
	C327.128815,202.448700 332.154205,189.193619 344.724182,179.379761 
	C345.114105,179.032059 345.389771,178.985153 346.083191,178.891708 
	C346.834717,179.325394 347.168549,179.805618 347.457520,180.538773 
z"/>
<path fill="#442027" opacity="1.000000" stroke="none" 
	d="
M345.018097,313.119476 
	C352.113892,311.820770 359.209686,310.522095 366.691162,309.075531 
	C368.349609,309.241180 369.622437,309.554718 370.812195,310.221863 
	C366.663269,311.209351 362.597382,311.843170 357.896179,312.732178 
	C356.836182,313.052795 356.411469,313.118256 355.714539,313.149780 
	C355.219879,313.341034 354.997467,313.566223 354.834534,313.740295 
	C354.894012,313.689148 354.770508,313.592377 354.344330,313.502930 
	C351.002563,313.860321 348.086975,314.307159 345.127197,314.345917 
	C345.061401,313.665039 345.039734,313.392273 345.018097,313.119476 
z"/>
<path fill="#B9BA8E" opacity="1.000000" stroke="none" 
	d="
M147.924210,86.944450 
	C146.732498,88.741905 145.404724,90.159630 143.140594,92.577141 
	C143.140594,85.913712 143.140594,80.459526 143.210266,74.553314 
	C144.782684,78.255760 146.285416,82.410233 147.924210,86.944450 
z"/>
<path fill="#FFD1C8" opacity="1.000000" stroke="none" 
	d="
M355.119934,191.101654 
	C354.575897,190.807755 354.327087,190.215439 353.993042,189.675919 
	C352.768372,187.698105 351.515411,185.737823 350.273102,183.770950 
	C348.825562,185.290573 347.377991,186.810196 345.930450,188.329834 
	C345.571533,188.187637 345.212616,188.045456 344.853699,187.903275 
	C346.130737,185.841232 347.407776,183.779190 348.874451,181.449371 
	C355.502930,181.443298 357.572296,184.605698 355.119934,191.101654 
z"/>
<path fill="#FFCBC6" opacity="1.000000" stroke="none" 
	d="
M355.330200,203.925858 
	C354.967651,203.759903 354.991302,203.594376 354.981689,203.430817 
	C354.829590,200.851730 356.761383,197.118042 352.832153,196.455948 
	C351.284607,196.195175 349.193726,199.158722 347.554718,200.488144 
	C346.239990,196.535248 348.741547,193.920959 354.571167,194.658615 
	C357.872589,197.566132 359.760345,200.490967 355.330200,203.925858 
z"/>
<path fill="#C7A7FC" opacity="1.000000" stroke="none" 
	d="
M424.031921,362.647339 
	C423.720245,362.484558 423.361542,362.028534 422.996033,361.266052 
	C423.321075,361.424408 423.652985,361.889252 424.031921,362.647339 
z"/>
<path fill="#FDABB9" opacity="1.000000" stroke="none" 
	d="
M242.893616,472.006226 
	C242.922424,471.825745 242.951202,471.645264 243.233643,470.907166 
	C245.828079,466.622528 245.628372,465.063049 242.610748,462.805298 
	C242.051651,464.862274 241.480652,466.963013 240.909637,469.063782 
	C239.204788,467.308044 237.800323,467.323944 236.084351,469.312958 
	C232.198975,473.816467 228.090546,478.127563 222.878174,482.255066 
	C223.218765,475.474731 223.559357,468.694366 223.949951,460.918335 
	C216.484985,461.304108 209.320435,461.674347 200.814194,462.113922 
	C205.248779,458.147705 208.703033,454.804321 212.424118,451.790375 
	C217.856796,447.389954 217.942780,445.863342 212.563873,441.171539 
	C209.440796,438.447479 206.387573,435.642792 203.331482,432.843170 
	C203.013748,432.552124 202.890411,432.048798 202.266266,430.865601 
	C209.623871,431.272980 216.430435,431.649841 223.897903,432.063293 
	C223.524719,424.658539 223.179520,417.809174 222.834320,410.959778 
	C223.180618,410.747223 223.526917,410.534668 223.873230,410.322083 
	C228.608200,415.440826 233.343185,420.559601 238.435059,426.064148 
	C241.202118,422.989197 243.711655,420.200439 246.537781,417.651062 
	C245.591965,432.187134 244.329529,446.483826 243.067093,460.780487 
	C243.676819,460.829895 244.286530,460.879272 244.896240,460.928650 
	C246.195114,445.620087 247.494003,430.311493 248.893326,414.736206 
	C249.054108,414.289307 249.114441,414.109131 249.174805,413.928955 
	C250.235535,413.021606 251.296249,412.114197 252.862244,411.097839 
	C253.367523,410.988861 253.824707,411.000702 253.824707,411.000702 
	C253.466568,417.739594 253.108414,424.478516 252.724258,431.706451 
	C259.687256,431.706451 265.929321,431.706451 272.171356,431.706451 
	C272.478577,432.154694 272.785767,432.602936 273.092957,433.051147 
	C268.227142,437.046204 263.361298,441.041260 257.956421,445.478882 
	C263.635590,450.851257 268.136658,455.109161 272.637726,459.367065 
	C272.349945,459.865326 272.062195,460.363617 271.774414,460.861877 
	C265.749512,460.861877 259.724640,460.861877 252.704712,460.861877 
	C253.131744,468.073761 253.518829,474.611237 253.641357,481.578827 
	C253.376816,482.008972 252.926224,482.030212 252.926224,482.030212 
	C250.090042,479.413910 247.253860,476.797607 243.977966,474.091644 
	C243.538239,474.001984 243.330551,473.987030 243.236481,473.661987 
	C243.059479,472.893341 242.976547,472.449799 242.893616,472.006226 
z"/>
<path fill="#FDABB9" opacity="1.000000" stroke="none" 
	d="
M355.986725,313.183746 
	C356.411469,313.118256 356.836182,313.052795 357.583618,313.005920 
	C357.581573,319.770966 357.256775,326.517426 356.916656,333.582031 
	C364.466766,333.582031 371.448212,333.582031 379.474396,333.582031 
	C374.910065,337.765533 371.199005,341.700958 366.939240,344.907440 
	C363.338379,347.618011 363.489044,349.550171 366.673828,352.254608 
	C370.709747,355.681732 374.559753,359.327728 379.218750,363.537933 
	C371.371277,363.537933 364.476196,363.537933 356.840057,363.537933 
	C357.243164,370.756226 357.636993,377.808350 358.110321,386.283752 
	C353.521606,381.237762 349.487793,377.277130 346.043915,372.856812 
	C343.522064,369.619904 341.682526,369.362915 339.062653,372.505157 
	C335.457794,376.828827 331.668976,380.999115 326.900146,386.444092 
	C327.344940,378.067169 327.720428,370.995575 328.116211,363.541992 
	C320.757385,363.541992 313.897583,363.541992 306.548035,363.541992 
	C308.062317,361.690094 309.547668,359.873596 311.432068,357.570679 
	C326.779083,354.275879 341.727051,351.467499 357.527466,348.498993 
	C347.321655,340.861694 337.562866,333.558929 327.847717,325.834717 
	C327.622437,322.974243 327.353485,320.535187 327.284607,317.793762 
	C327.315186,317.319000 327.145691,317.146637 326.976196,316.974274 
	C326.976196,316.974274 326.998779,317.000000 327.370056,317.292114 
	C329.340393,317.400604 330.939514,317.216980 332.538605,317.033386 
	C332.538605,317.033386 332.501526,317.048798 332.599670,317.049805 
	C332.697845,317.050842 332.906372,317.155548 332.974426,317.485657 
	C336.086823,321.190765 339.131165,324.565765 342.794739,328.627228 
	C347.099457,323.222900 350.934998,318.407623 354.770508,313.592377 
	C354.770508,313.592377 354.894012,313.689148 355.081787,313.754333 
	C355.609314,313.721130 355.848358,313.509216 355.986725,313.183746 
z"/>
<path fill="#FEBD5D" opacity="1.000000" stroke="none" 
	d="
M202.036041,258.545959 
	C213.000854,265.650665 225.635574,266.279510 238.649612,267.558441 
	C239.034302,274.732727 239.001282,281.412567 238.968262,288.092377 
	C238.952621,289.501434 238.936996,290.910461 238.503769,292.727051 
	C226.610443,296.485626 215.134720,299.836670 203.314606,303.123474 
	C201.569351,302.623993 200.168488,302.188782 197.483185,301.354553 
	C198.886963,303.015045 199.358215,303.572479 199.829468,304.129944 
	C193.446243,307.064087 187.063019,309.998230 180.315125,312.962646 
	C182.542465,309.623962 184.670761,305.720947 187.816498,302.989868 
	C196.070068,295.824310 199.364822,286.749481 200.021210,276.204803 
	C200.380295,270.436218 201.325424,264.704132 202.036041,258.545959 
z"/>
<path fill="#4B262D" opacity="1.000000" stroke="none" 
	d="
M200.117706,304.144043 
	C199.358215,303.572479 198.886963,303.015045 197.483185,301.354553 
	C200.168488,302.188782 201.569351,302.623993 203.555481,303.388367 
	C214.794342,308.826752 225.447937,313.935974 236.751724,319.357025 
	C227.612045,327.046356 219.227676,334.100281 210.586945,341.369843 
	C225.132599,349.172852 238.243927,357.478058 247.015518,371.058350 
	C247.015518,371.058350 247.031769,370.981659 247.072769,371.282715 
	C247.376938,371.908112 247.640106,372.232452 247.903259,372.556763 
	C248.744537,376.527771 249.585815,380.498779 250.499619,384.812195 
	C253.364929,381.625336 256.087341,378.597382 258.965210,375.263123 
	C259.760284,374.846375 260.529968,374.928711 261.020752,374.597595 
	C278.043549,363.113892 297.573212,358.406494 317.890686,353.593262 
	C329.909668,351.447968 341.171204,349.485840 353.228821,347.385010 
	C344.383698,341.034149 336.205536,335.162170 328.027344,329.290192 
	C323.615784,325.918182 319.204193,322.546204 313.587891,318.253387 
	C318.751312,317.438568 322.543365,316.840179 326.655823,316.608032 
	C327.145691,317.146637 327.315186,317.319000 326.880585,317.755615 
	C323.807343,318.434662 321.338196,318.849426 317.870087,319.432037 
	C321.821014,322.146088 324.812561,324.201111 327.804077,326.256165 
	C337.562866,333.558929 347.321655,340.861694 357.527466,348.498993 
	C341.727051,351.467499 326.779083,354.275879 311.527405,357.202179 
	C295.984253,360.923859 280.896576,365.037231 267.274536,373.052826 
	C263.162170,375.472687 259.331573,378.534607 255.839066,381.801819 
	C251.821228,385.560547 249.883850,390.428619 249.857758,396.110321 
	C249.831787,401.766754 249.346710,407.421112 249.118866,413.502655 
	C249.114441,414.109131 249.054108,414.289307 248.617157,414.735962 
	C247.872314,415.003387 247.504105,415.004364 247.135895,415.005341 
	C247.420654,405.711487 247.555099,396.409912 248.030838,387.125824 
	C248.545319,377.085876 245.007309,368.594299 237.449936,362.420319 
	C229.525421,355.946381 220.786606,350.466278 212.368835,344.601868 
	C210.924057,343.595337 209.305008,342.838989 207.209854,341.651611 
	C216.046082,334.256470 224.387253,327.275665 233.360458,319.765869 
	C221.857056,314.317688 211.131500,309.237915 200.117706,304.144043 
z"/>
<path fill="#FDABBA" opacity="1.000000" stroke="none" 
	d="
M172.318207,371.098816 
	C173.482834,353.841156 174.951019,336.725189 176.661469,319.301941 
	C177.013763,320.781006 177.123779,322.567322 177.234650,324.367798 
	C184.389740,324.367798 191.239319,324.367798 198.834885,324.367798 
	C193.385529,329.426453 188.351212,334.099823 182.895142,339.164703 
	C188.052612,344.014313 193.116241,348.775696 199.100830,354.403076 
	C190.891953,354.403076 184.238388,354.403076 176.815216,354.403076 
	C177.146973,361.447937 177.469040,368.287506 177.830856,375.971008 
	C175.705719,374.041107 174.163727,372.640808 172.318207,371.098816 
z"/>
<path fill="#4C2426" opacity="1.000000" stroke="none" 
	d="
M247.057831,415.347351 
	C247.504105,415.004364 247.872314,415.003387 248.516708,415.002686 
	C247.494003,430.311493 246.195114,445.620087 244.896240,460.928650 
	C244.286530,460.879272 243.676819,460.829895 243.067093,460.780487 
	C244.329529,446.483826 245.591965,432.187134 246.810562,417.483002 
	C246.837738,416.613495 246.908768,416.151428 247.057831,415.347351 
z"/>
<path fill="#371312" opacity="1.000000" stroke="none" 
	d="
M379.918579,454.518127 
	C379.854004,454.982086 379.499878,454.993713 379.322815,454.987915 
	C378.490570,439.363525 377.835327,423.744904 377.180115,408.126251 
	C377.811737,408.105438 378.443359,408.084625 379.074982,408.063812 
	C379.377716,423.393921 379.680420,438.724060 379.918579,454.518127 
z"/>
<path fill="#FCABB9" opacity="1.000000" stroke="none" 
	d="
M240.989655,469.365967 
	C241.480652,466.963013 242.051651,464.862274 242.610748,462.805298 
	C245.628372,465.063049 245.828079,466.622528 243.269577,470.635345 
	C242.391144,470.503448 241.730392,470.085785 240.989655,469.365967 
z"/>
<path fill="#C7A7FC" opacity="1.000000" stroke="none" 
	d="
M242.381882,483.739136 
	C242.583267,485.218903 242.635391,486.355133 242.687515,487.491394 
	C242.074081,487.556488 241.460632,487.621552 240.847198,487.686646 
	C240.561340,485.711151 240.275497,483.735657 239.989639,481.760162 
	C240.421524,481.651154 240.853409,481.542145 241.285294,481.433136 
	C241.601059,482.087311 241.916840,482.741455 242.381882,483.739136 
z"/>
<path fill="#C7A7FC" opacity="1.000000" stroke="none" 
	d="
M243.713654,475.907898 
	C243.568161,476.760040 243.422653,477.612213 243.277145,478.464355 
	C242.852814,478.123505 242.428482,477.782684 242.123474,476.927185 
	C242.733078,476.244293 243.223373,476.076080 243.713654,475.907898 
z"/>
<path fill="#C7A7FC" opacity="1.000000" stroke="none" 
	d="
M242.552979,472.071838 
	C242.976547,472.449799 243.059479,472.893341 243.025848,473.889008 
	C242.361694,474.666870 241.814102,474.892639 241.266510,475.118408 
	C241.581787,474.124756 241.897064,473.131134 242.552979,472.071838 
z"/>
<path fill="#FCABB9" opacity="1.000000" stroke="none" 
	d="
M241.224915,475.361938 
	C241.814102,474.892639 242.361694,474.666870 243.119934,474.214050 
	C243.330551,473.987030 243.538239,474.001984 243.638031,474.020630 
	C243.771545,474.455963 243.805283,474.872650 243.776337,475.598633 
	C243.223373,476.076080 242.733078,476.244293 242.056244,476.597687 
	C241.640915,476.390381 241.412125,475.997925 241.224915,475.361938 
z"/>
<path fill="#FCABB9" opacity="1.000000" stroke="none" 
	d="
M274.534302,461.566650 
	C274.444855,461.619293 274.407959,461.401550 274.407959,461.401550 
	C274.407959,461.401550 274.623718,461.514008 274.534302,461.566650 
z"/>
<path fill="#FCABB9" opacity="1.000000" stroke="none" 
	d="
M253.019882,482.199127 
	C252.926224,482.030212 253.376816,482.008972 253.600830,482.004120 
	C253.587738,482.122192 253.350632,482.245117 253.019882,482.199127 
z"/>
<path fill="#FEBD5D" opacity="1.000000" stroke="none" 
	d="
M179.281799,313.663452 
	C179.172058,313.437317 179.347382,313.223328 179.809036,313.017822 
	C179.909088,313.234131 179.732925,313.450592 179.281799,313.663452 
z"/>
<path fill="#FCABB9" opacity="1.000000" stroke="none" 
	d="
M253.784424,410.813965 
	C253.824707,411.000702 253.367523,410.988861 253.138275,410.975403 
	C253.187408,410.850342 253.465759,410.738800 253.784424,410.813965 
z"/>
<path fill="#FCABB9" opacity="1.000000" stroke="none" 
	d="
M274.553894,431.456085 
	C274.615692,431.539520 274.374054,431.560638 274.374054,431.560638 
	C274.374054,431.560638 274.492065,431.372650 274.553894,431.456085 
z"/>
<path fill="#E36056" opacity="1.000000" stroke="none" 
	d="
M149.940506,209.969620 
	C154.436630,207.614746 158.430008,203.266144 164.652832,206.174744 
	C165.008286,206.000076 164.974609,205.962021 164.884003,206.322998 
	C165.208527,206.797867 165.623642,206.911789 166.022980,207.011414 
	C166.007187,206.997147 165.983353,206.961853 165.768768,207.267365 
	C165.750305,208.026474 165.946457,208.480057 166.229553,209.291809 
	C167.546890,213.846970 168.711319,218.065079 170.044067,222.229294 
	C170.500366,223.654953 171.378464,224.945602 172.063828,226.297943 
	C172.063828,226.297943 172.041092,226.395950 171.711487,226.780029 
	C171.371780,229.960495 171.656815,232.800751 171.249939,235.538177 
	C170.968918,237.428879 170.115616,240.240631 168.820160,240.708511 
	C167.347809,241.240311 164.167831,240.181580 163.354767,238.834045 
	C160.511902,234.122314 157.908279,229.149277 156.095871,223.966995 
	C154.418594,219.171112 151.848083,216.677109 146.727325,217.036667 
	C145.676254,217.110458 144.615601,217.047348 142.405411,217.047348 
	C145.468811,214.169907 147.704651,212.069763 149.940506,209.969620 
z"/>
<path fill="#FEF6F1" opacity="1.000000" stroke="none" 
	d="
M84.728577,452.409454 
	C83.838593,452.114838 82.744095,452.020569 82.215187,452.522400 
	C78.833130,455.731262 75.597160,459.093353 72.264214,462.355072 
	C71.190292,463.406067 69.968643,464.306091 68.814575,465.275177 
	C68.421478,464.847382 68.028381,464.419556 67.635284,463.991730 
	C72.411850,459.140869 77.188416,454.290009 83.006996,448.380951 
	C74.926994,448.380951 68.125618,448.380951 61.324234,448.380951 
	C61.303265,447.816162 61.282299,447.251373 61.261333,446.686584 
	C67.923225,446.686584 74.585121,446.686584 81.247017,446.686584 
	C81.437645,446.226105 81.628281,445.765625 81.818909,445.305145 
	C77.030258,440.312592 72.241600,435.320007 67.452942,430.327423 
	C67.916496,429.841217 68.380043,429.355011 68.843597,428.868805 
	C73.899055,433.735687 78.954521,438.602570 84.915726,444.341431 
	C84.915726,436.326508 84.915726,429.361420 84.915726,422.396332 
	C85.617287,422.376801 86.318840,422.357300 87.020401,422.337769 
	C87.020401,427.587372 87.020401,432.836945 87.084381,438.549866 
	C87.148361,440.466614 87.148361,441.920044 87.148361,444.249847 
	C92.745850,438.742706 97.821548,433.748932 102.897247,428.755157 
	C103.364418,429.206818 103.831581,429.658478 104.298744,430.110138 
	C99.380539,435.177948 94.462341,440.245789 88.583015,446.303955 
	C96.790215,446.303955 103.744621,446.303955 110.699020,446.303955 
	C110.707352,446.778656 110.715683,447.253387 110.724014,447.728088 
	C103.817963,447.728088 96.911903,447.728088 90.005852,447.728088 
	C89.815025,448.127655 89.624207,448.527222 89.433380,448.926788 
	C94.406250,454.083801 99.379120,459.240784 104.351982,464.397797 
	C104.059181,464.682434 103.766373,464.967072 103.473564,465.251740 
	C98.862915,460.010498 94.252258,454.769287 89.641609,449.528046 
	C88.716148,450.108978 87.790695,450.689911 86.865234,451.270813 
	C86.865234,458.292114 86.865234,465.313416 86.865234,472.334717 
	C86.172020,472.324921 85.478813,472.315125 84.785599,472.305328 
	C84.785599,465.832062 84.785599,459.358765 84.728577,452.409454 
z"/>
<path fill="#55211B" opacity="1.000000" stroke="none" 
	d="
M149.586548,209.962585 
	C147.704651,212.069763 145.468811,214.169907 142.405411,217.047348 
	C144.615601,217.047348 145.676254,217.110458 146.727325,217.036667 
	C151.848083,216.677109 154.418594,219.171112 156.095871,223.966995 
	C157.908279,229.149277 160.511902,234.122314 163.354767,238.834045 
	C164.167831,240.181580 167.347809,241.240311 168.820160,240.708511 
	C170.115616,240.240631 170.968918,237.428879 171.249939,235.538177 
	C171.656815,232.800751 171.371780,229.960495 171.693329,226.826935 
	C172.473999,229.887604 173.465759,233.323303 173.223312,236.669586 
	C173.069260,238.795547 171.478882,241.979050 169.813217,242.535675 
	C167.795303,243.210007 164.950607,241.795792 162.599808,240.919922 
	C161.485855,240.504883 160.688263,239.240768 159.306259,237.949051 
	C159.003693,241.918243 159.140533,245.370804 158.394882,248.620895 
	C157.386826,253.014694 154.143341,253.980682 151.086472,250.810684 
	C146.030365,245.567413 143.478119,238.990463 141.687866,232.127640 
	C142.071320,231.939636 142.454773,231.751648 142.838226,231.563644 
	C143.835693,233.802536 144.732086,236.093567 145.853622,238.268494 
	C147.674652,241.799942 149.509583,245.340591 151.642563,248.683441 
	C152.181747,249.528503 153.943283,250.097839 155.007050,249.930237 
	C155.740616,249.814621 156.856705,248.133606 156.748566,247.286697 
	C155.661728,238.775558 154.578339,230.247391 152.876419,221.849152 
	C152.618561,220.576706 149.127548,219.030884 147.255112,219.178009 
	C139.896408,219.756241 132.778412,221.387848 127.544121,227.787140 
	C128.527908,225.932007 129.410645,222.944199 131.181946,222.261353 
	C137.766129,219.723221 142.069321,214.462448 147.506073,210.072632 
	C148.288101,209.962189 148.760345,209.958862 149.586548,209.962585 
z"/>
<path fill="#FEBA5C" opacity="1.000000" stroke="none" 
	d="
M193.097168,215.185226 
	C193.373764,218.143509 193.650360,221.101807 193.933731,224.457062 
	C190.008484,233.856186 186.076462,242.858368 182.661423,250.676941 
	C183.018646,240.520264 183.421280,229.072327 183.812958,216.738800 
	C184.040848,214.164413 184.279694,212.475616 184.539459,210.638931 
	C186.278214,210.864456 187.682037,211.046539 189.239471,211.493317 
	C190.627792,212.900421 191.862473,214.042816 193.097168,215.185226 
z"/>
<path fill="#56221F" opacity="1.000000" stroke="none" 
	d="
M189.085846,211.228622 
	C187.682037,211.046539 186.278214,210.864456 184.539459,210.638931 
	C184.279694,212.475616 184.040848,214.164413 183.708221,216.260010 
	C183.211136,217.315277 182.807861,217.963745 181.957001,218.670349 
	C181.321350,218.439316 181.133316,218.150162 181.039627,217.467041 
	C184.242798,206.665436 179.886932,197.165710 168.942963,190.485641 
	C168.948502,190.251251 168.954056,190.016876 169.324768,189.428436 
	C176.785645,191.843384 180.241409,197.654388 183.159073,204.264252 
	C184.075363,206.340042 187.059082,207.503235 189.096512,209.084152 
	C190.394791,207.079239 192.587448,205.177979 192.833878,203.051193 
	C193.811478,194.614349 192.115005,186.523010 188.136505,178.962769 
	C188.449249,178.823639 188.687836,178.603958 189.246429,178.302490 
	C194.120224,185.847275 195.410706,194.123108 194.902649,202.705505 
	C194.676498,206.525757 194.161697,210.538345 189.085846,211.228622 
z"/>
<path fill="#59211D" opacity="1.000000" stroke="none" 
	d="
M180.945267,217.861008 
	C181.133316,218.150162 181.321350,218.439316 181.738159,218.855560 
	C179.696106,223.017609 176.093964,222.312149 172.239792,221.525162 
	C172.130707,222.892776 172.029037,224.167511 171.995605,225.870087 
	C171.378464,224.945602 170.500366,223.654953 170.044067,222.229294 
	C168.711319,218.065079 167.546890,213.846970 166.433319,209.174423 
	C166.780426,208.475983 166.949203,208.213547 167.338959,208.123459 
	C168.508652,210.450134 169.515060,212.523865 170.260345,214.687515 
	C172.349594,220.752884 175.766678,221.799789 180.945267,217.861008 
z"/>
<path fill="#FFFEFD" opacity="1.000000" stroke="none" 
	d="
M63.392677,254.870575 
	C54.150700,250.841705 49.556911,243.841293 50.597065,235.867996 
	C51.761654,226.940887 57.160648,221.245758 65.819847,219.810226 
	C72.937759,218.630219 80.119316,221.756348 83.810799,227.887314 
	C87.786736,234.490738 87.686958,241.190643 83.471672,247.646439 
	C79.533081,253.678497 72.254799,256.589539 65.253670,255.209564 
	C64.763641,255.112976 64.268669,255.041458 63.392677,254.870575 
z"/>
<path fill="#CAA7F9" opacity="1.000000" stroke="none" 
	d="
M379.504028,482.315247 
	C379.911102,486.188629 380.042816,490.209015 380.095795,494.706848 
	C377.603668,493.313843 375.190277,491.443390 372.062164,489.018982 
	C374.876801,486.443848 377.052765,484.453064 379.504028,482.315247 
z"/>
<path fill="#FD6C60" opacity="1.000000" stroke="none" 
	d="
M192.947723,176.862122 
	C192.320770,157.265793 197.686432,139.712677 211.035599,125.044899 
	C223.673981,111.158119 239.461212,103.639137 257.978760,102.202133 
	C256.943542,107.743675 255.328766,113.030846 255.089737,118.379501 
	C254.619995,128.891388 259.896881,136.118393 269.707001,139.730438 
	C271.418274,140.360519 273.207733,140.774811 274.943695,141.341934 
	C282.940063,143.954269 284.744690,146.974915 283.444458,155.404114 
	C280.721008,156.113647 277.555206,156.167557 275.485199,157.700821 
	C273.528564,159.150101 271.617645,162.223831 271.759064,164.451492 
	C271.873535,166.254211 274.900848,168.120270 276.963409,169.451004 
	C278.068939,170.164276 279.986176,170.235886 281.327911,169.856720 
	C286.319824,168.446014 289.849579,170.471725 292.637634,174.515717 
	C288.238800,177.350418 284.046906,179.826218 279.573700,182.468124 
	C262.916046,173.095795 258.079010,174.380402 249.752548,190.891556 
	C248.122971,190.891556 246.466904,190.891571 244.810837,190.891571 
	C243.036072,190.891571 241.261322,190.891556 240.975082,190.891556 
	C238.279449,186.096054 236.826355,181.648148 233.886276,178.666443 
	C227.669693,172.361801 218.619858,172.823776 212.209473,179.434433 
	C209.309250,182.425262 207.328766,183.107071 203.586441,180.581711 
	C200.574905,178.549469 196.532639,178.044662 192.947723,176.862122 
M219.150253,155.620972 
	C218.059326,154.055832 217.308472,151.935654 215.818069,151.022476 
	C209.651581,147.244247 197.385025,153.959076 196.840149,161.147446 
	C196.589157,164.458572 198.484070,166.196609 201.247208,165.689819 
	C206.228912,164.776108 211.193222,163.397583 215.893265,161.529892 
	C217.427826,160.920074 218.118011,158.185394 219.150253,155.620972 
z"/>
<path fill="#FFABB8" opacity="1.000000" stroke="none" 
	d="
M192.596985,176.907150 
	C196.532639,178.044662 200.574905,178.549469 203.586441,180.581711 
	C207.328766,183.107071 209.309250,182.425262 212.209473,179.434433 
	C218.619858,172.823776 227.669693,172.361801 233.886276,178.666443 
	C236.826355,181.648148 238.279449,186.096054 240.975082,190.891556 
	C241.261322,190.891556 243.036072,190.891571 244.810837,190.891571 
	C246.466904,190.891571 248.122971,190.891556 249.752548,190.891556 
	C258.079010,174.380402 262.916046,173.095795 279.573700,182.468124 
	C284.046906,179.826218 288.238800,177.350418 292.809265,174.801025 
	C297.548157,176.070984 301.908478,177.414536 306.813721,179.186005 
	C309.574646,183.846573 312.774750,186.185684 317.788818,185.034241 
	C317.887909,185.192764 317.986969,185.351273 318.165955,185.780945 
	C316.073395,186.602097 313.900940,187.152100 311.645203,187.723190 
	C309.385101,205.825165 295.778656,214.975342 282.210785,224.080872 
	C281.282257,224.704010 279.191101,224.613190 278.205994,223.977829 
	C266.890320,216.679825 255.670837,209.373352 250.601334,195.715836 
	C249.955658,193.976349 245.011063,193.832581 241.279434,192.975311 
	C239.639679,194.251923 238.778503,195.502792 237.662628,196.966217 
	C237.280640,197.802643 237.153320,198.426483 237.023315,199.028717 
	C237.020615,199.007095 237.061874,199.025864 237.061890,199.025879 
	C230.390015,205.829712 224.294968,213.356186 216.902405,219.257187 
	C207.341125,226.889343 209.273483,226.557343 198.821930,219.331055 
	C197.054184,218.108826 195.391800,216.734192 193.388947,215.307602 
	C191.862473,214.042816 190.627792,212.900421 189.239471,211.493317 
	C194.161697,210.538345 194.676498,206.525757 194.902649,202.705505 
	C195.410706,194.123108 194.120224,185.847275 189.364838,178.085724 
	C190.141449,177.564194 191.193832,177.258179 192.596985,176.907150 
z"/>
<path fill="#E46156" opacity="1.000000" stroke="none" 
	d="
M187.905960,178.692200 
	C192.115005,186.523010 193.811478,194.614349 192.833878,203.051193 
	C192.587448,205.177979 190.394791,207.079239 189.096512,209.084152 
	C187.059082,207.503235 184.075363,206.340042 183.159073,204.264252 
	C180.241409,197.654388 176.785645,191.843384 169.334290,189.076904 
	C168.213379,188.788300 167.429962,188.535416 166.692841,188.185120 
	C166.438980,188.064514 166.300537,187.701035 166.114029,187.444946 
	C172.161499,175.916611 182.411209,171.142563 187.905960,178.692200 
z"/>
<path fill="#E46156" opacity="1.000000" stroke="none" 
	d="
M181.039627,217.467041 
	C175.766678,221.799789 172.349594,220.752884 170.260345,214.687515 
	C169.515060,212.523865 168.508652,210.450134 167.244141,207.878464 
	C166.572342,207.268311 166.277847,207.115082 165.983353,206.961853 
	C165.983353,206.961853 166.007187,206.997147 165.981934,206.725006 
	C165.629318,206.289246 165.301956,206.125641 164.974609,205.962021 
	C164.974609,205.962021 165.008286,206.000076 165.028564,206.015472 
	C162.657318,204.986938 160.265823,203.942993 157.554825,202.759598 
	C156.923706,194.420883 160.690186,189.683411 168.537659,190.370300 
	C179.886932,197.165710 184.242798,206.665436 181.039627,217.467041 
z"/>
<path fill="#C4B987" opacity="1.000000" stroke="none" 
	d="
M143.634766,113.183136 
	C143.322418,108.731415 143.322418,104.150787 143.322418,99.570160 
	C143.784256,99.217209 144.246078,98.864265 144.707916,98.511322 
	C147.141815,101.330879 149.575729,104.150436 152.118500,107.277267 
	C149.467285,109.407761 146.707199,111.230988 143.634766,113.183136 
z"/>
<path fill="#D99D4D" opacity="1.000000" stroke="none" 
	d="
M154.340027,189.872162 
	C154.690033,188.547073 154.983444,187.616623 155.276840,186.686172 
	C155.637955,186.707214 155.999054,186.728256 156.360153,186.749298 
	C156.360153,191.632431 156.360153,196.515579 156.360153,201.398727 
	C155.667908,201.412292 154.975677,201.425873 154.283432,201.439438 
	C154.283432,197.715225 154.283432,193.991013 154.340027,189.872162 
z"/>
<path fill="#F76B60" opacity="1.000000" stroke="none" 
	d="
M317.711426,184.709747 
	C312.774750,186.185684 309.574646,183.846573 307.190063,179.307007 
	C311.595337,178.752930 315.087646,180.637070 317.711426,184.709747 
z"/>
<path fill="#C6A5F9" opacity="1.000000" stroke="none" 
	d="
M247.086975,370.601776 
	C238.243927,357.478058 225.132599,349.172852 210.586945,341.369843 
	C219.227676,334.100281 227.612045,327.046356 236.751724,319.357025 
	C225.447937,313.935974 214.794342,308.826752 203.899872,303.452606 
	C215.134720,299.836670 226.610443,296.485626 238.469574,293.148529 
	C240.720581,310.101898 242.607590,327.039185 244.447708,343.981598 
	C245.394409,352.698120 246.257538,361.423706 247.086975,370.601776 
z"/>
<path fill="#391210" opacity="1.000000" stroke="none" 
	d="
M239.394409,288.105042 
	C239.001282,281.412567 239.034302,274.732727 239.111099,267.599670 
	C256.312256,266.447662 273.469635,265.748932 290.877747,265.039978 
	C276.085419,277.363739 258.872559,284.700348 239.394409,288.105042 
z"/>
<path fill="#FFC9CC" opacity="1.000000" stroke="none" 
	d="
M251.998749,232.172989 
	C245.089493,241.903305 238.180237,251.633621 231.270981,261.363922 
	C230.768036,261.002350 230.265106,260.640778 229.762161,260.279236 
	C236.381882,251.073532 243.001617,241.867844 250.116104,232.295364 
	C251.073486,232.010056 251.536118,232.091522 251.998749,232.172989 
z"/>
<path fill="#57201D" opacity="1.000000" stroke="none" 
	d="
M237.917328,196.753662 
	C238.778503,195.502792 239.639679,194.251923 240.851929,193.011017 
	C240.170486,196.491135 239.223053,199.989395 238.088760,203.425980 
	C235.225006,212.102249 235.191315,212.091125 241.604141,217.187057 
	C236.287247,217.563370 233.232651,214.402771 234.308426,209.316818 
	C234.990250,206.093521 236.149170,202.971115 237.078003,199.414673 
	C237.061874,199.025864 237.020615,199.007095 237.314301,198.863998 
	C237.711090,198.065155 237.814209,197.409409 237.917328,196.753662 
z"/>
<path fill="#602622" opacity="1.000000" stroke="none" 
	d="
M252.351318,232.145996 
	C251.536118,232.091522 251.073486,232.010056 250.262360,232.001312 
	C246.659592,232.890717 243.405334,233.707413 240.276978,234.492508 
	C243.090302,229.964066 249.190216,228.565247 254.803879,231.628082 
	C253.869797,231.846436 253.286865,231.982712 252.351318,232.145996 
z"/>
<path fill="#FFC9CC" opacity="1.000000" stroke="none" 
	d="
M229.801971,262.876221 
	C229.156342,263.750153 228.546112,264.285919 227.935883,264.821655 
	C227.692886,264.458557 227.449905,264.095459 227.206924,263.732330 
	C228.083740,263.334259 228.960556,262.936157 229.801971,262.876221 
z"/>
<path fill="#391210" opacity="1.000000" stroke="none" 
	d="
M292.449402,263.531281 
	C292.493561,263.539459 292.405273,263.523102 292.449402,263.531281 
z"/>
<path fill="#C6A5F9" opacity="1.000000" stroke="none" 
	d="
M247.826050,372.235809 
	C247.640106,372.232452 247.376938,371.908112 247.036011,371.269104 
	C247.221771,371.274567 247.485306,371.594696 247.826050,372.235809 
z"/>
<path fill="#FCAAB7" opacity="1.000000" stroke="none" 
	d="
M328.015808,329.705566 
	C336.205536,335.162170 344.383698,341.034149 353.228821,347.385010 
	C341.171204,349.485840 329.909668,351.447968 318.188293,353.396332 
	C321.898865,347.944305 321.798950,348.064240 316.358948,343.532806 
	C312.843140,340.604187 309.672302,337.261444 306.273865,334.035004 
	C312.416870,334.035004 318.252655,333.883698 324.075104,334.096527 
	C327.155853,334.209137 328.410522,333.146454 328.015808,329.705566 
z"/>
<path fill="#512C38" opacity="1.000000" stroke="none" 
	d="
M344.605072,313.090454 
	C345.039734,313.392273 345.061401,313.665039 344.781952,314.466125 
	C340.622711,315.714813 336.764526,316.435181 332.906372,317.155548 
	C332.906372,317.155548 332.697845,317.050842 332.581787,317.040710 
	C332.885986,316.316772 333.192627,315.095703 333.745087,314.971954 
	C337.196869,314.198761 340.703552,313.670685 344.605072,313.090454 
z"/>
<path fill="#4B262D" opacity="1.000000" stroke="none" 
	d="
M332.640686,316.546326 
	C330.939514,317.216980 329.340393,317.400604 327.361481,317.277649 
	C327.125854,316.635345 327.270020,316.299591 328.052185,315.959473 
	C328.875458,315.923492 329.060760,315.891937 329.246063,315.860352 
	C330.411621,315.926636 331.577209,315.992950 332.640686,316.546326 
z"/>
<path fill="#512C38" opacity="1.000000" stroke="none" 
	d="
M329.109528,315.783813 
	C329.060760,315.891937 328.875458,315.923492 328.410767,315.954956 
	C328.367554,315.744263 328.648102,315.661743 329.109528,315.783813 
z"/>
<path fill="#C5A4F7" opacity="1.000000" stroke="none" 
	d="
M332.974426,317.485657 
	C336.764526,316.435181 340.622711,315.714813 344.826111,314.874207 
	C348.086975,314.307159 351.002563,313.860321 354.344330,313.502930 
	C350.934998,318.407623 347.099457,323.222900 342.794739,328.627228 
	C339.131165,324.565765 336.086823,321.190765 332.974426,317.485657 
z"/>
<path fill="#C5A4F7" opacity="1.000000" stroke="none" 
	d="
M355.714539,313.149780 
	C355.848358,313.509216 355.609314,313.721130 355.022308,313.805450 
	C354.997467,313.566223 355.219879,313.341034 355.714539,313.149780 
z"/>
<path fill="#C3A0EE" opacity="1.000000" stroke="none" 
	d="
M327.847717,325.834717 
	C324.812561,324.201111 321.821014,322.146088 317.870087,319.432037 
	C321.338196,318.849426 323.807343,318.434662 326.680511,318.058014 
	C327.353485,320.535187 327.622437,322.974243 327.847717,325.834717 
z"/>
<path fill="#35110F" opacity="1.000000" stroke="none" 
	d="
M165.768768,207.267365 
	C166.277847,207.115082 166.572342,207.268311 166.961670,207.666550 
	C166.949203,208.213547 166.780426,208.475983 166.346375,208.816254 
	C165.946457,208.480057 165.750305,208.026474 165.768768,207.267365 
z"/>
<path fill="#35110F" opacity="1.000000" stroke="none" 
	d="
M164.884003,206.322998 
	C165.301956,206.125641 165.629318,206.289246 165.997726,206.739273 
	C165.623642,206.911789 165.208527,206.797867 164.884003,206.322998 
z"/>
<path fill="#391210" opacity="1.000000" stroke="none" 
	d="
M219.172318,156.021744 
	C218.118011,158.185394 217.427826,160.920074 215.893265,161.529892 
	C211.193222,163.397583 206.228912,164.776108 201.247208,165.689819 
	C198.484070,166.196609 196.589157,164.458572 196.840149,161.147446 
	C197.385025,153.959076 209.651581,147.244247 215.818069,151.022476 
	C217.308472,151.935654 218.059326,154.055832 219.172318,156.021744 
z"/>
<path fill="#FE6D60" opacity="1.000000" stroke="none" 
	d="
M237.662628,196.966217 
	C237.814209,197.409409 237.711090,198.065155 237.316986,198.885620 
	C237.153320,198.426483 237.280640,197.802643 237.662628,196.966217 
z"/>
</svg>