<svg version="1.1" id="Layer_1" xmlns="http://www.w3.org/2000/svg" xmlns:xlink="http://www.w3.org/1999/xlink" x="0px" y="0px"
	 width="100%" viewBox="0 0 512 512" enable-background="new 0 0 512 512" xml:space="preserve">
<path fill="#FFFEFE" opacity="1.000000" stroke="none" 
	d="
M513.000000,225.000000 
	C513.000000,246.020889 513.000000,267.041779 512.635254,288.229675 
	C511.848236,289.233459 511.225220,290.026886 511.033722,290.913544 
	C508.043671,304.758759 505.673096,318.766602 502.022888,332.433289 
	C497.203766,350.476379 489.444153,367.368683 480.156647,383.629669 
	C471.125153,399.442474 461.018616,414.532349 448.523163,427.648315 
	C437.068512,439.671844 424.732727,451.017944 411.788879,461.423157 
	C391.865967,477.438690 369.426819,489.389404 345.309448,497.972046 
	C327.517151,504.303772 309.408661,509.458008 290.467072,511.093414 
	C289.927185,511.140015 289.486786,512.338562 289.000000,513.000000 
	C267.979095,513.000000 246.958206,513.000000 225.770782,512.631714 
	C224.765167,511.843567 223.968948,511.225250 223.080627,511.033417 
	C209.236664,508.043365 195.225769,505.686707 181.564301,502.024200 
	C161.472290,496.637756 142.789032,487.777527 124.950592,477.041382 
	C101.047508,462.655304 80.265045,444.710205 62.055485,423.626740 
	C46.006561,405.044922 33.015705,384.591003 22.991777,362.189575 
	C12.803510,339.420868 5.785041,315.793762 2.922808,290.968201 
	C2.839750,290.247803 1.665483,289.653229 1.000003,289.000000 
	C1.000000,267.979095 1.000000,246.958206 1.364712,225.770309 
	C2.146938,224.933060 2.792448,224.311752 2.948329,223.585373 
	C6.124269,208.785400 8.347934,193.710403 12.597672,179.229095 
	C18.158026,160.281769 26.537891,142.435501 36.772285,125.382942 
	C51.230694,101.292336 69.204201,80.392387 90.380150,62.070930 
	C108.942726,46.010563 129.385254,33.006878 151.798355,22.970804 
	C174.580307,12.769566 198.223297,5.848826 223.031570,2.923067 
	C223.753281,2.837954 224.346741,1.665484 225.000000,1.000004 
	C246.020889,1.000000 267.041779,1.000000 288.229675,1.364733 
	C289.233124,2.151729 290.026245,2.774892 290.912567,2.966196 
	C304.755127,5.954014 318.804199,8.188025 332.419556,11.981695 
	C357.828918,19.061558 381.000397,30.970346 402.825745,45.859432 
	C423.008118,59.627712 440.606659,76.141930 455.999298,94.821861 
	C470.135468,111.976982 481.887329,130.854446 490.884369,151.369781 
	C500.961914,174.348907 508.208954,198.049774 511.077240,223.032928 
	C511.159851,223.752716 512.334534,224.347122 513.000000,225.000000 
M109.965927,447.930664 
	C110.180122,448.182861 110.356712,448.484406 110.613846,448.680206 
	C161.307831,487.282257 218.482468,503.656769 281.862030,498.144073 
	C318.403351,494.965759 352.378906,483.551514 383.752350,464.573914 
	C401.904358,453.593842 418.626617,440.763611 433.554932,424.693359 
	C443.661713,411.723083 454.916382,399.479767 463.672302,385.653992 
	C497.671448,331.968506 508.383911,273.287964 496.592682,211.084869 
	C485.437073,152.235199 455.570160,103.952812 408.701599,66.677704 
	C369.729279,35.682533 324.900330,18.759310 275.294464,15.229542 
	C244.497101,13.038115 214.177109,16.670889 184.709030,26.241034 
	C139.328720,40.978886 101.466331,66.911476 71.156738,103.644608 
	C51.576374,127.374664 37.213696,154.082016 27.873766,183.475189 
	C17.503332,216.111404 14.414833,249.426712 17.965923,283.420807 
	C19.890451,301.844055 23.936911,319.795746 30.089783,337.262054 
	C40.443539,366.653473 55.616772,393.367554 76.551231,416.409668 
	C86.673470,427.551056 98.545334,437.102844 109.965927,447.930664 
z"/>
<path fill="#000000" opacity="1.000000" stroke="none" 
	d="
M224.531342,1.000004 
	C224.346741,1.665484 223.753281,2.837954 223.031570,2.923067 
	C198.223297,5.848826 174.580307,12.769566 151.798355,22.970804 
	C129.385254,33.006878 108.942726,46.010563 90.380150,62.070930 
	C69.204201,80.392387 51.230694,101.292336 36.772285,125.382942 
	C26.537891,142.435501 18.158026,160.281769 12.597672,179.229095 
	C8.347934,193.710403 6.124269,208.785400 2.948329,223.585373 
	C2.792448,224.311752 2.146938,224.933060 1.364712,225.301651 
	C1.000000,150.406296 1.000000,75.812576 1.000000,1.000000 
	C75.354088,1.000000 149.708389,1.000000 224.531342,1.000004 
z"/>
<path fill="#000000" opacity="1.000000" stroke="none" 
	d="
M1.000003,289.468658 
	C1.665483,289.653229 2.839750,290.247803 2.922808,290.968201 
	C5.785041,315.793762 12.803510,339.420868 22.991777,362.189575 
	C33.015705,384.591003 46.006561,405.044922 62.055485,423.626740 
	C80.265045,444.710205 101.047508,462.655304 124.950592,477.041382 
	C142.789032,487.777527 161.472290,496.637756 181.564301,502.024200 
	C195.225769,505.686707 209.236664,508.043365 223.080627,511.033417 
	C223.968948,511.225250 224.765167,511.843567 225.302124,512.631714 
	C150.406296,513.000000 75.812599,513.000000 1.000000,513.000000 
	C1.000000,438.645905 1.000000,364.291626 1.000003,289.468658 
z"/>
<path fill="#000000" opacity="1.000000" stroke="none" 
	d="
M289.468658,513.000000 
	C289.486786,512.338562 289.927185,511.140015 290.467072,511.093414 
	C309.408661,509.458008 327.517151,504.303772 345.309448,497.972046 
	C369.426819,489.389404 391.865967,477.438690 411.788879,461.423157 
	C424.732727,451.017944 437.068512,439.671844 448.523163,427.648315 
	C461.018616,414.532349 471.125153,399.442474 480.156647,383.629669 
	C489.444153,367.368683 497.203766,350.476379 502.022888,332.433289 
	C505.673096,318.766602 508.043671,304.758759 511.033722,290.913544 
	C511.225220,290.026886 511.848236,289.233459 512.635254,288.698334 
	C513.000000,363.593719 513.000000,438.187408 513.000000,513.000000 
	C438.645905,513.000000 364.291626,513.000000 289.468658,513.000000 
z"/>
<path fill="#000000" opacity="1.000000" stroke="none" 
	d="
M513.000000,224.531342 
	C512.334534,224.347122 511.159851,223.752716 511.077240,223.032928 
	C508.208954,198.049774 500.961914,174.348907 490.884369,151.369781 
	C481.887329,130.854446 470.135468,111.976982 455.999298,94.821861 
	C440.606659,76.141930 423.008118,59.627712 402.825745,45.859432 
	C381.000397,30.970346 357.828918,19.061558 332.419556,11.981695 
	C318.804199,8.188025 304.755127,5.954014 290.912567,2.966196 
	C290.026245,2.774892 289.233124,2.151729 288.698334,1.364733 
	C363.593719,1.000000 438.187408,1.000000 513.000000,1.000000 
	C513.000000,75.354088 513.000000,149.708389 513.000000,224.531342 
z"/>
<path fill="#FFC17D" opacity="1.000000" stroke="none" 
	d="
M109.625015,447.374359 
	C98.545334,437.102844 86.673470,427.551056 76.551231,416.409668 
	C55.616772,393.367554 40.443539,366.653473 30.089783,337.262054 
	C23.936911,319.795746 19.890451,301.844055 17.965923,283.420807 
	C14.414833,249.426712 17.503332,216.111404 27.873766,183.475189 
	C37.213696,154.082016 51.576374,127.374664 71.156738,103.644608 
	C101.466331,66.911476 139.328720,40.978886 184.709030,26.241034 
	C214.177109,16.670889 244.497101,13.038115 275.294464,15.229542 
	C324.900330,18.759310 369.729279,35.682533 408.701599,66.677704 
	C455.570160,103.952812 485.437073,152.235199 496.592682,211.084869 
	C508.383911,273.287964 497.671448,331.968506 463.672302,385.653992 
	C454.916382,399.479767 443.661713,411.723083 432.979492,424.663391 
	C410.439514,404.677856 384.576691,393.951019 354.987183,391.685913 
	C354.912811,391.248413 354.879608,391.073914 355.041504,390.622925 
	C361.068359,386.896362 366.765167,383.187927 372.762329,380.054352 
	C382.737091,374.842407 393.792206,371.231415 402.803192,364.740173 
	C420.685822,351.858093 428.774048,334.030426 424.150604,311.592926 
	C420.782074,295.245361 412.724426,281.205475 402.891663,267.680054 
	C406.595337,258.031250 409.140717,248.690613 404.879822,238.599365 
	C404.603851,237.847229 404.299561,237.389587 403.865784,236.623337 
	C398.953796,227.983170 391.611969,224.477478 382.203339,225.033386 
	C379.748596,225.178436 377.314758,225.677216 374.884033,225.593735 
	C375.728699,220.427887 376.410553,215.649719 377.417694,210.941147 
	C382.759369,185.967972 382.623840,161.428848 372.182404,137.563217 
	C371.612427,136.260452 372.090179,134.071121 372.826263,132.692947 
	C378.666077,121.759300 375.411194,110.459396 364.483032,104.768745 
	C362.184326,103.571762 359.633820,102.858360 357.485443,102.032150 
	C358.243530,84.771912 359.293091,67.070198 342.120758,56.915554 
	C326.850830,47.885845 310.360779,46.468102 294.478668,56.941677 
	C291.422974,41.567627 281.542755,33.045731 267.308411,29.239193 
	C253.113098,25.443085 243.893433,32.463821 237.571625,44.630852 
	C219.968567,23.002825 200.700531,25.795086 183.842209,51.988640 
	C160.873749,41.293938 144.796753,43.033287 132.886063,57.585361 
	C128.670151,62.736206 126.174278,68.592239 125.832718,75.352577 
	C125.302330,85.850410 129.412262,94.355446 136.926376,101.212875 
	C120.350906,127.296967 127.771309,144.791458 158.011581,151.345032 
	C157.834000,152.279617 157.573441,153.213760 157.488663,154.163605 
	C156.427887,166.047501 154.432800,177.947372 154.602173,189.815674 
	C154.798508,203.573837 156.902161,217.304779 158.072784,231.377838 
	C156.463409,231.540176 154.812668,231.716797 153.477936,231.149689 
	C142.872086,226.643463 131.798172,228.996475 125.487610,237.177124 
	C124.442726,237.388336 123.742104,237.594330 123.041473,237.800323 
	C123.395935,238.467300 123.750404,239.134293 123.775452,239.975555 
	C119.330162,246.545593 119.229034,253.594391 120.493294,260.693604 
	C122.124382,269.852722 127.030609,277.495758 132.261414,285.128204 
	C130.581696,287.244324 129.088547,289.030640 127.653481,290.862457 
	C113.740509,308.621979 104.392838,328.069702 105.994705,351.334900 
	C107.469994,372.761566 121.730850,395.615814 147.268005,399.020050 
	C158.432907,400.508362 169.732880,400.969086 180.957123,402.046204 
	C182.255615,402.170807 183.461792,403.257416 184.294434,403.878845 
	C168.063522,405.094452 153.797729,410.719055 141.402756,420.356201 
	C130.436951,428.882233 120.189583,438.332275 109.625015,447.374359 
M93.739761,270.608582 
	C93.128822,267.428375 92.517891,264.248169 91.843025,260.735168 
	C89.958618,266.146393 89.501938,272.195984 86.248421,275.443878 
	C83.107918,278.578979 77.082558,278.824280 73.028091,280.115051 
	C76.512711,281.798126 82.195503,282.909241 85.012054,286.359894 
	C87.864967,289.855103 87.883705,295.663696 89.154594,300.456177 
	C91.125465,296.120911 92.159454,290.822296 95.339096,287.729858 
	C98.328667,284.822266 103.583046,284.243378 107.679779,282.700592 
	C102.589081,280.207550 94.838455,279.902374 93.739761,270.608582 
M406.178223,120.101341 
	C405.740570,117.355774 405.302917,114.610214 404.807037,111.499283 
	C402.925873,116.946609 402.441223,123.123451 399.120392,126.557930 
	C396.096558,129.685226 389.993835,129.835464 384.707123,131.464706 
	C396.702728,133.074997 402.802002,139.627487 401.130341,152.298233 
	C403.717285,147.537231 404.856415,142.140182 408.135345,138.926224 
	C411.198761,135.923477 416.533386,135.237869 420.695496,133.600388 
	C414.575806,131.438965 407.023560,130.050323 406.178223,120.101341 
M121.449081,157.039017 
	C122.115021,157.026215 122.783127,157.041870 123.446182,156.991257 
	C123.936905,156.953812 124.421043,156.830154 124.908119,156.744888 
	C112.004631,155.275452 108.993950,146.280472 108.085991,134.944046 
	C105.931885,146.063309 102.637573,155.229782 88.590462,153.136261 
	C91.196938,154.544769 93.286751,155.564621 95.489616,156.179291 
	C101.542801,157.868271 103.930527,162.003326 104.094604,168.003571 
	C104.157822,170.315384 104.863968,172.609619 105.389816,175.539383 
	C108.324203,166.978546 109.527115,157.813766 121.449081,157.039017 
M451.446136,290.854614 
	C450.905243,287.884277 450.364349,284.913971 449.823456,281.943665 
	C447.191986,292.624451 445.027374,303.274506 429.034912,300.412567 
	C442.070282,302.604980 447.869324,309.501160 446.408844,322.481384 
	C449.925751,312.535645 452.859161,302.687897 466.371460,303.892090 
	C459.640533,301.310364 452.633179,300.131592 451.446136,290.854614 
M430.028778,214.287628 
	C430.804688,218.170029 433.145081,220.959503 437.059357,220.764496 
	C439.332428,220.651276 442.662994,218.999802 443.429016,217.167374 
	C444.385315,214.879745 444.015686,211.167664 442.669006,209.061096 
	C441.579163,207.356323 438.092346,206.188965 435.854950,206.440414 
	C432.288574,206.841263 430.219055,209.693741 430.028778,214.287628 
M81.023514,381.575562 
	C78.314430,384.889191 77.933586,388.675934 81.161331,391.346436 
	C83.084396,392.937531 86.668060,393.720062 89.138153,393.181793 
	C93.254745,392.284729 94.763466,387.790070 93.069595,384.055328 
	C90.875404,379.217438 87.369370,378.297638 81.023514,381.575562 
M50.851971,215.029587 
	C47.446480,216.194321 44.633141,218.286514 45.164711,222.099930 
	C45.489761,224.431778 46.975159,227.560699 48.841286,228.459778 
	C50.864475,229.434540 54.587395,229.093689 56.364964,227.742508 
	C58.135128,226.396942 59.303555,223.025833 59.143776,220.649933 
	C58.869678,216.574097 55.595005,214.987793 50.851971,215.029587 
M358.918671,56.643269 
	C361.827637,54.311462 363.352997,51.140396 361.198090,48.008316 
	C359.854675,46.055676 356.750946,44.077229 354.603577,44.244648 
	C352.211243,44.431164 349.138123,46.580734 348.002136,48.739307 
	C347.122864,50.410061 348.156891,53.821480 349.432800,55.727989 
	C351.575073,58.928989 355.009827,58.673847 358.918671,56.643269 
M394.620056,391.929688 
	C396.148956,391.384094 398.421112,391.276978 399.054657,390.203125 
	C400.447296,387.842621 402.130707,384.728241 401.584259,382.421753 
	C401.085205,380.315247 397.929718,377.694427 395.716492,377.460327 
	C393.516418,377.227600 390.342438,379.144073 388.819885,381.080688 
	C385.932831,384.752899 388.235443,389.093750 394.620056,391.929688 
z"/>
<path fill="#7FA8C5" opacity="1.000000" stroke="none" 
	d="
M109.795471,447.652527 
	C120.189583,438.332275 130.436951,428.882233 141.402756,420.356201 
	C153.797729,410.719055 168.063522,405.094452 184.777679,403.912720 
	C188.189590,403.944397 190.701889,403.923126 193.658096,403.887390 
	C211.903137,403.765381 229.278107,405.612610 245.273071,415.012543 
	C245.701889,415.022522 245.873062,414.992065 246.028915,414.983276 
	C246.013580,415.005005 246.024399,414.954071 246.068893,415.224762 
	C246.427048,415.652008 246.740707,415.808594 247.027924,415.981445 
	C247.001495,415.997711 247.024384,415.939972 247.138519,416.241516 
	C247.842789,416.697937 248.432938,416.852783 249.008759,417.008667 
	C248.994415,417.009705 248.988968,416.981476 249.014679,417.269135 
	C249.372192,417.699432 249.703995,417.842072 250.016739,417.992249 
	C249.997696,417.999786 250.017380,417.963745 250.003265,418.299286 
	C250.677521,419.076355 251.365906,419.517914 252.032242,419.981323 
	C252.010178,420.003204 252.023773,419.942596 252.134659,420.246429 
	C252.836533,420.704590 253.427505,420.858917 254.005768,421.012268 
	C253.993057,421.011261 253.984207,420.987335 254.010986,421.274597 
	C254.369537,421.704102 254.701324,421.846375 255.015320,421.994751 
	C254.997498,422.000824 255.013550,421.966736 254.995850,422.302795 
	C255.669403,423.080353 256.360657,423.521851 257.031433,423.984253 
	C257.010986,424.005188 257.027710,423.949371 257.083344,424.213867 
	C257.445740,424.640869 257.752502,424.803314 258.030548,424.980713 
	C258.001831,424.995636 258.023621,424.934662 258.144775,425.231628 
	C258.852173,425.687042 259.438477,425.845551 260.009979,426.006042 
	C259.995209,426.008087 259.992432,425.978363 260.017212,426.265747 
	C260.373138,426.698181 260.704254,426.843231 261.016357,426.994537 
	C260.997406,427.000793 261.013641,426.964294 261.005310,427.299500 
	C261.681396,428.077667 262.365784,428.520630 263.030029,428.984375 
	C263.009918,429.005127 263.028625,428.950806 263.077942,429.218567 
	C263.436707,429.646332 263.746155,429.806396 264.029358,429.983337 
	C264.003143,430.000244 264.031494,429.944733 264.094421,430.205109 
	C264.459351,430.631317 264.761322,430.797119 265.033081,430.978210 
	C265.002838,430.993500 265.025574,430.929688 265.151001,431.223969 
	C265.860168,431.678162 266.443848,431.838104 267.011963,432.001892 
	C266.996368,432.005768 266.997437,431.973541 267.020325,432.261627 
	C267.373627,432.696320 267.704010,432.842926 268.015991,432.995972 
	C267.997620,433.002441 268.010132,432.965546 268.029907,433.253693 
	C268.379272,433.688080 268.708923,433.834290 269.018738,433.990875 
	C268.998932,434.001221 269.018158,433.960907 269.044189,434.243225 
	C269.394287,434.676270 269.718353,434.826996 270.019287,434.986511 
	C269.996216,434.995331 270.026428,434.955994 270.025269,435.289307 
	C270.700256,436.069458 271.376373,436.516296 272.031067,436.983948 
	C272.009644,437.004730 272.029205,436.948547 272.076843,437.218262 
	C272.434143,437.646393 272.743805,437.804810 273.022461,437.968140 
	C272.991425,437.973022 273.043304,437.936768 273.037964,438.284607 
	C273.464996,438.969788 273.897400,439.307098 274.329834,439.644409 
	C274.589386,438.976501 274.848969,438.308594 275.283112,437.426086 
	C276.504791,436.169617 277.551880,435.127716 278.946716,434.078064 
	C279.537415,433.709900 279.780396,433.349457 280.018524,433.000641 
	C280.013672,433.012268 279.991089,433.023346 280.277283,432.996338 
	C280.716400,432.642670 280.869385,432.316010 281.017517,432.000977 
	C281.012665,432.012573 280.989563,432.022430 281.275940,431.995667 
	C281.715454,431.642059 281.868591,431.315216 282.017151,431.000427 
	C282.012634,431.012421 281.988708,431.021759 282.274902,430.994751 
	C282.714447,430.640930 282.867767,430.314087 283.016907,429.999817 
	C283.012695,430.012451 282.987518,430.021118 283.273499,429.993164 
	C283.712982,429.638702 283.866486,429.312256 284.016205,428.999054 
	C284.012451,429.012299 283.985992,429.020081 284.272308,428.992188 
	C284.711853,428.637390 284.865051,428.310455 285.015198,427.997742 
	C285.012146,428.011902 284.983856,428.018341 285.270691,427.990753 
	C285.710022,427.635468 285.862549,427.307800 286.013123,426.995392 
	C286.011200,427.010681 285.980682,427.015015 286.268250,426.988770 
	C286.707703,426.634094 286.859650,426.305695 287.010681,425.993408 
	C287.009796,426.009552 286.977570,426.011475 287.265564,425.986572 
	C287.705505,425.632996 287.857452,425.304382 288.009125,424.992310 
	C288.008850,425.008820 287.975830,425.009460 288.263977,424.985046 
	C288.703949,424.631836 288.855774,424.303040 289.007935,423.991150 
	C289.008270,424.007996 288.974548,424.007507 289.262848,423.983643 
	C289.702637,423.630890 289.854126,423.301971 290.006531,422.990234 
	C290.007416,423.007355 289.973114,423.005707 290.261536,422.982208 
	C290.701141,422.629669 290.852325,422.300629 291.005127,421.988892 
	C291.006775,422.006165 290.972229,422.003113 291.261078,421.980957 
	C291.700104,421.629395 291.850250,421.299927 292.002930,420.987915 
	C292.005432,421.005371 291.970551,421.000519 292.259644,420.979279 
	C292.698608,420.628448 292.848480,420.298859 293.001740,419.986603 
	C293.005127,420.003937 292.970306,419.998016 293.259705,419.978455 
	C293.698090,419.628784 293.847015,419.298706 293.999695,418.986572 
	C294.003448,419.004486 293.967682,418.996399 294.256592,418.975647 
	C294.695526,418.625702 294.845490,418.296448 294.999634,417.985535 
	C295.003815,418.003876 294.967194,417.995514 295.256134,417.974976 
	C295.695038,417.625244 295.845001,417.296112 295.999359,416.985352 
	C296.003723,417.003723 295.966949,416.995026 296.256012,416.974701 
	C296.694794,416.625153 296.844543,416.295929 296.999146,415.984924 
	C297.004028,416.003113 296.967499,415.993958 297.257141,415.975433 
	C297.695770,415.627075 297.844757,415.297272 297.996948,414.985474 
	C298.000183,415.003479 297.968231,414.985565 298.224365,415.058777 
	C298.656891,415.110992 298.833282,415.089935 299.293762,414.951782 
	C300.041901,414.197601 300.505981,413.560577 300.982971,412.957825 
	C300.995911,412.992157 300.933716,412.953247 301.289062,412.962219 
	C305.899170,410.164429 310.111023,407.289673 314.422882,404.573669 
	C317.552582,402.602356 320.814667,400.841248 324.008759,398.993225 
	C323.999817,399.000031 323.979584,399.010132 324.383606,399.063538 
	C334.867889,396.727600 344.948151,394.338287 355.028381,391.948975 
	C384.576691,393.951019 410.439514,404.677856 432.678650,424.813049 
	C418.626617,440.763611 401.904358,453.593842 383.752350,464.573914 
	C352.378906,483.551514 318.403351,494.965759 281.862030,498.144073 
	C218.482468,503.656769 161.307831,487.282257 110.613846,448.680206 
	C110.356712,448.484406 110.180122,448.182861 109.795471,447.652527 
M234.372299,427.054108 
	C234.127350,427.280029 233.960083,427.553467 233.319702,428.481598 
	C233.141449,430.785461 233.506348,433.305695 232.689774,435.355255 
	C229.365479,443.699127 230.922806,451.683075 233.810242,459.658691 
	C236.454376,466.962280 238.170364,474.298676 234.502228,482.008392 
	C234.513504,482.209045 234.524780,482.409668 234.536087,482.610321 
	C234.707321,482.426483 234.878540,482.242645 235.687164,481.685211 
	C240.004990,475.698395 238.039719,469.405579 236.504318,463.180939 
	C235.203873,457.908966 233.365372,452.746155 232.415009,447.419067 
	C231.693100,443.372589 231.214691,438.901886 236.247284,436.801239 
	C238.583237,436.636871 240.919189,436.472473 243.829575,436.091309 
	C244.307373,435.468445 244.785172,434.845581 245.802841,433.798279 
	C245.617996,431.795288 245.433151,429.792267 245.062057,427.201599 
	C244.454803,426.705872 243.847549,426.210144 242.795441,425.147949 
	C240.457367,425.355286 238.119308,425.562622 235.362747,426.018738 
	C235.082291,426.208405 234.885895,426.462952 234.372299,427.054108 
M321.125549,483.538116 
	C321.324341,483.802490 321.580170,483.988312 322.272430,484.688171 
	C324.235260,485.479065 326.198090,486.269958 328.160889,487.060852 
	C328.307465,486.556824 328.454010,486.052795 328.600555,485.548767 
	C326.465820,484.964111 324.331055,484.379456 321.970032,483.373474 
	C321.769501,483.112427 321.516388,482.920837 321.012482,482.414795 
	C320.789062,482.449738 320.565613,482.484680 320.342194,482.519562 
	C320.526672,482.718964 320.711182,482.918365 321.125549,483.538116 
M318.029602,437.631958 
	C318.220856,437.895569 318.464203,438.095917 318.852875,438.795990 
	C319.177979,439.246033 319.503113,439.696075 319.931793,440.968018 
	C320.325104,443.744568 321.352783,446.609467 320.980896,449.279449 
	C320.184326,454.998535 318.511444,460.589386 317.487732,466.284912 
	C316.613434,471.149200 315.961639,476.112061 319.363007,480.502350 
	C316.746857,474.371429 318.545624,468.460358 320.082275,462.552338 
	C320.876465,459.498840 322.076111,456.517548 322.545807,453.420685 
	C323.262054,448.698212 324.225159,443.779297 320.111694,439.223236 
	C319.790527,438.761597 319.469360,438.299957 318.916473,437.422821 
	C318.721283,437.161438 318.473633,436.966797 317.946259,436.409760 
	C317.737701,436.152679 317.480042,435.962036 316.786560,435.155487 
	C316.534485,433.566559 316.231293,431.983765 316.039429,430.387604 
	C315.326111,424.453339 309.945496,422.273132 304.447449,426.099792 
	C304.166504,426.299164 303.982727,426.565582 303.284393,427.303070 
	C301.441650,430.063599 301.142944,432.708893 304.090240,435.562012 
	C304.288971,435.832428 304.545410,436.026733 305.291626,436.759552 
	C307.136536,437.132141 309.002380,437.878845 310.820740,437.777100 
	C312.830566,437.664642 314.796906,436.775055 317.024811,436.641998 
	C317.212708,436.922302 317.466583,437.116211 318.029602,437.631958 
M231.693939,484.587250 
	C232.026031,484.333588 232.358139,484.079956 232.690216,483.826294 
	C232.502243,483.645691 232.314270,483.465057 232.126297,483.284454 
	C231.860519,483.590088 231.594757,483.895752 231.693939,484.587250 
z"/>
<path fill="#D2542B" opacity="1.000000" stroke="none" 
	d="
M125.831863,237.171875 
	C131.798172,228.996475 142.872086,226.643463 153.477936,231.149689 
	C154.812668,231.716797 156.463409,231.540176 158.287018,231.640579 
	C160.633255,235.110123 162.660187,238.647232 165.350525,243.342026 
	C172.279129,226.851715 176.954544,211.696472 178.314911,195.635406 
	C179.729645,178.932526 180.147171,162.389175 170.396530,147.359360 
	C172.430130,146.077209 174.313980,144.889450 176.205887,143.696640 
	C183.421143,156.253708 191.860672,160.619949 203.318405,158.403793 
	C215.170395,156.111343 223.172302,149.043259 228.403809,138.175552 
	C235.356979,145.113022 243.554886,146.961945 252.586777,145.938950 
	C262.277618,144.841339 267.510162,138.300980 270.882172,129.510254 
	C284.807587,147.513489 310.953430,147.185837 318.915985,125.785492 
	C324.343475,129.117950 329.622223,133.650772 335.737946,135.782806 
	C343.158691,138.369766 348.645599,133.865631 351.709167,126.509743 
	C354.410645,129.944778 356.580658,132.476654 358.451447,135.213120 
	C359.059906,136.103119 359.384094,137.730423 358.997894,138.678009 
	C349.349213,162.353226 350.311127,186.462387 356.151001,210.692429 
	C358.069092,218.650757 360.802979,226.412476 363.453125,235.226288 
	C367.959991,231.589951 371.415680,228.801743 374.871338,226.013519 
	C377.314758,225.677216 379.748596,225.178436 382.203339,225.033386 
	C391.611969,224.477478 398.953796,227.983170 403.502686,236.715088 
	C389.069733,241.437912 376.739502,248.428299 368.356750,261.074188 
	C378.467072,250.328049 390.460236,242.679886 404.851501,238.893860 
	C409.140717,248.690613 406.595337,258.031250 402.636536,267.878540 
	C395.858429,281.256012 385.829681,289.799377 371.747559,293.918640 
	C371.224579,294.294556 370.995605,294.614227 370.438934,294.726196 
	C361.925507,293.613953 361.849060,293.663635 360.185211,301.338654 
	C360.044708,301.986786 359.985870,302.652496 359.883484,303.309143 
	C357.520538,318.466644 350.110809,330.486877 336.852875,338.277008 
	C329.743073,342.454559 321.974854,345.511505 314.155731,349.067200 
	C305.130646,350.639130 297.839294,354.899231 290.751556,360.027802 
	C279.418335,368.228302 266.927887,368.405426 255.094147,361.732391 
	C247.309464,357.342651 239.403198,356.004181 230.529419,355.867432 
	C226.922134,355.117249 223.662659,354.554443 220.413269,353.938507 
	C202.385483,350.521301 186.675735,343.569580 178.542145,325.628387 
	C176.019135,320.063080 174.024261,314.249786 171.960159,308.488251 
	C170.753006,305.118713 169.886932,301.626984 169.369308,299.882111 
	C160.990524,298.115204 153.950974,296.630737 146.731354,295.040588 
	C146.551270,294.934937 146.141022,294.857330 145.913330,294.603424 
	C141.282074,291.172852 136.878510,287.996185 132.474930,284.819519 
	C127.030609,277.495758 122.124382,269.852722 120.493294,260.693604 
	C119.229034,253.594391 119.330162,246.545593 124.169174,239.975494 
	C140.623596,243.782181 152.470749,253.455017 162.928070,265.487274 
	C161.496201,262.333435 159.645203,259.564392 157.426086,257.131073 
	C148.734909,247.600861 137.715027,241.686951 125.831863,237.171875 
M305.861572,205.905258 
	C314.691071,208.671295 323.551025,207.586472 332.413177,206.111877 
	C336.939087,205.358780 340.924011,203.680908 341.787384,198.612991 
	C342.660919,193.485672 339.798187,189.659348 335.625641,187.638702 
	C325.581055,182.774368 314.915527,180.535233 303.807617,183.295364 
	C298.926331,184.508286 295.675842,187.944855 295.145691,193.110229 
	C294.658386,197.858353 297.082489,201.390671 301.020874,203.849838 
	C302.270325,204.629974 303.740051,205.057281 305.861572,205.905258 
M229.244202,203.911285 
	C233.954590,200.889114 236.266953,196.597565 234.716965,191.144516 
	C233.247345,185.974152 229.132736,183.250565 223.903687,182.937393 
	C219.305481,182.662018 214.457382,182.311142 210.090912,183.435471 
	C203.938644,185.019638 197.378754,186.897385 192.355087,190.532043 
	C185.450394,195.527649 187.686203,204.537491 195.874710,206.334290 
	C206.870529,208.747086 217.967911,209.527618 229.244202,203.911285 
M258.658997,286.033051 
	C249.843948,288.724152 241.028900,291.415283 231.947464,294.187744 
	C256.232269,298.879761 280.594543,297.315094 306.073914,295.010712 
	C298.983887,292.227966 292.963287,290.001556 287.052856,287.513428 
	C278.017334,283.709778 268.893677,282.557465 258.658997,286.033051 
M206.601151,236.782715 
	C212.280228,241.756226 218.461121,241.753235 222.740692,236.774872 
	C226.573502,232.316238 225.882309,225.527527 221.205551,221.697250 
	C217.385162,218.568314 211.816269,218.624847 207.933563,221.832001 
	C203.738678,225.297012 203.129898,230.200317 206.601151,236.782715 
M323.427277,220.039261 
	C322.746399,219.564545 322.100830,219.026215 321.378876,218.625458 
	C316.863770,216.119019 312.704102,216.818970 309.032318,220.277710 
	C305.454254,223.648193 304.885895,227.848785 306.751709,232.179916 
	C308.784729,236.899277 312.755493,238.587906 317.758698,238.087509 
	C326.002197,237.263031 329.110809,228.495148 323.427277,220.039261 
M296.460938,244.468185 
	C296.815063,245.029602 297.192291,245.577911 297.519531,246.154587 
	C299.541351,249.717651 301.165527,253.359879 298.959625,257.437927 
	C296.692078,261.629944 292.654053,260.808105 288.859131,261.170685 
	C284.645386,261.573273 280.224640,262.052551 276.398346,263.682404 
	C271.935455,265.583405 267.947845,265.525421 263.401520,264.417877 
	C258.292450,263.173157 252.988663,262.309387 247.741928,262.140808 
	C238.662109,261.849182 237.051041,259.750702 240.670303,251.392731 
	C241.325851,249.878891 242.356232,248.530945 243.077591,247.040619 
	C243.481918,246.205276 243.607315,245.234924 244.064194,243.579910 
	C238.775635,247.365891 235.406525,254.992477 236.938263,259.728790 
	C237.498856,261.462219 239.427536,263.726318 241.024506,263.992157 
	C250.783905,265.616913 260.627289,266.737213 270.443268,268.021393 
	C270.605927,268.042664 270.802734,268.064850 270.938019,267.996490 
	C278.669525,264.090363 287.151001,263.999207 295.481293,262.939331 
	C299.793152,262.390717 302.016693,258.970551 302.308228,254.793808 
	C302.617676,250.360123 301.588562,246.197037 297.775513,243.291229 
	C297.600952,243.158188 296.969849,243.624268 296.460938,244.468185 
M163.483047,267.478790 
	C163.483047,267.478790 163.518097,267.443481 163.483047,267.478790 
z"/>
<path fill="#341610" opacity="1.000000" stroke="none" 
	d="
M374.884033,225.593750 
	C371.415680,228.801743 367.959991,231.589951 363.453125,235.226288 
	C360.802979,226.412476 358.069092,218.650757 356.151001,210.692429 
	C350.311127,186.462387 349.349213,162.353226 358.997894,138.678009 
	C359.384094,137.730423 359.059906,136.103119 358.451447,135.213120 
	C356.580658,132.476654 354.410645,129.944778 351.709167,126.509743 
	C348.645599,133.865631 343.158691,138.369766 335.737946,135.782806 
	C329.622223,133.650772 324.343475,129.117950 318.915985,125.785492 
	C310.953430,147.185837 284.807587,147.513489 270.882172,129.510254 
	C267.510162,138.300980 262.277618,144.841339 252.586777,145.938950 
	C243.554886,146.961945 235.356979,145.113022 228.403809,138.175552 
	C223.172302,149.043259 215.170395,156.111343 203.318405,158.403793 
	C191.860672,160.619949 183.421143,156.253708 176.205887,143.696640 
	C174.313980,144.889450 172.430130,146.077209 170.396530,147.359360 
	C180.147171,162.389175 179.729645,178.932526 178.314911,195.635406 
	C176.954544,211.696472 172.279129,226.851715 165.350525,243.342026 
	C162.660187,238.647232 160.633255,235.110123 158.392090,231.310287 
	C156.902161,217.304779 154.798508,203.573837 154.602173,189.815674 
	C154.432800,177.947372 156.427887,166.047501 157.488663,154.163605 
	C157.573441,153.213760 157.834000,152.279617 158.011581,151.345032 
	C127.771309,144.791458 120.350906,127.296967 136.926376,101.212875 
	C129.412262,94.355446 125.302330,85.850410 125.832718,75.352577 
	C126.174278,68.592239 128.670151,62.736206 132.886063,57.585361 
	C144.796753,43.033287 160.873749,41.293938 183.842209,51.988640 
	C200.700531,25.795086 219.968567,23.002825 237.571625,44.630852 
	C243.893433,32.463821 253.113098,25.443085 267.308411,29.239193 
	C281.542755,33.045731 291.422974,41.567627 294.478668,56.941677 
	C310.360779,46.468102 326.850830,47.885845 342.120758,56.915554 
	C359.293091,67.070198 358.243530,84.771912 357.485443,102.032150 
	C359.633820,102.858360 362.184326,103.571762 364.483032,104.768745 
	C375.411194,110.459396 378.666077,121.759300 372.826263,132.692947 
	C372.090179,134.071121 371.612427,136.260452 372.182404,137.563217 
	C382.623840,161.428848 382.759369,185.967972 377.417694,210.941147 
	C376.410553,215.649719 375.728699,220.427887 374.884033,225.593750 
z"/>
<path fill="#7FA8C4" opacity="1.000000" stroke="none" 
	d="
M372.041565,293.862396 
	C385.829681,289.799377 395.858429,281.256012 402.572449,268.259766 
	C412.724426,281.205475 420.782074,295.245361 424.150604,311.592926 
	C428.774048,334.030426 420.685822,351.858093 402.803192,364.740173 
	C393.792206,371.231415 382.737091,374.842407 372.762329,380.054352 
	C366.765167,383.187927 361.068359,386.896362 354.616516,390.643982 
	C343.531708,391.923096 333.338562,393.914917 323.979584,399.010132 
	C323.979584,399.010132 323.999817,399.000031 323.648621,398.977905 
	C321.531158,399.609314 319.764893,400.262817 317.999146,400.561066 
	C317.999603,399.495239 317.999512,398.784668 318.244751,397.888977 
	C319.068756,396.891724 319.647400,396.079590 320.498474,395.195251 
	C321.221008,394.797363 321.671112,394.471710 322.429169,394.090332 
	C323.533997,393.399536 324.330902,392.764496 325.413177,392.056152 
	C326.017944,391.538116 326.337341,391.093414 326.656738,390.648682 
	C326.024933,391.026825 325.393127,391.404938 324.438263,391.817078 
	C323.339386,392.485413 322.563568,393.119751 321.513824,393.823364 
	C320.790436,394.217865 320.340912,394.543030 319.577606,394.937988 
	C318.486053,395.390442 317.708313,395.773132 316.993774,395.685211 
	C316.392578,385.416595 315.728210,375.618591 315.123169,365.375427 
	C314.956238,359.644897 314.730011,354.359497 314.503784,349.074127 
	C321.974854,345.511505 329.743073,342.454559 336.852875,338.277008 
	C350.110809,330.486877 357.520538,318.466644 359.883484,303.309143 
	C359.985870,302.652496 360.044708,301.986786 360.185211,301.338654 
	C361.849060,293.663635 361.925507,293.613953 370.717834,294.638794 
	C371.563477,294.460205 371.802521,294.161285 372.041565,293.862396 
M378.402863,364.047424 
	C378.148743,364.256042 377.955322,364.510712 377.214844,364.985748 
	C376.389008,365.884796 375.563171,366.783844 374.203583,367.857056 
	C373.758362,368.185547 373.313141,368.514038 372.252625,368.962311 
	C371.443085,369.588226 370.633514,370.214111 369.457123,371.071625 
	C369.488678,371.293457 369.520203,371.515289 369.551758,371.737122 
	C369.777222,371.572693 370.002686,371.408264 370.874237,371.164124 
	C371.659363,370.532776 372.444489,369.901428 373.773712,369.122223 
	C374.228790,368.803253 374.683868,368.484314 375.761871,368.006561 
	C376.594452,367.090607 377.427032,366.174683 378.669556,365.006226 
	C378.949524,364.822021 379.147949,364.572876 379.659332,363.995789 
	C379.909729,363.793518 380.110168,363.550140 380.881836,363.084167 
	C381.646515,362.104950 382.411194,361.125732 383.623230,359.796692 
	C383.853027,359.284698 384.082794,358.772705 384.942078,357.991486 
	C388.108673,353.544403 390.460297,348.857391 389.947571,342.831421 
	C387.772522,348.169952 385.799347,353.013062 383.385742,358.214813 
	C383.162872,358.729645 382.940002,359.244507 382.109619,359.946411 
	C381.344269,360.906952 380.578949,361.867493 379.409851,363.074829 
	C379.155609,363.273834 378.961090,363.520020 378.402863,364.047424 
M347.332489,379.831787 
	C343.988708,381.162781 340.644958,382.493774 337.301178,383.824768 
	C337.494568,384.277374 337.687988,384.730011 337.881378,385.182648 
	C347.910461,381.393768 357.939545,377.604889 367.968658,373.816010 
	C367.788300,373.360626 367.607971,372.905243 367.427643,372.449860 
	C360.973206,374.819183 354.518768,377.188538 347.332489,379.831787 
M389.663330,327.106293 
	C388.566986,323.479675 387.470642,319.853027 386.374298,316.226410 
	C385.823486,316.415283 385.272705,316.604156 384.721924,316.793030 
	C386.211151,320.396820 387.700409,324.000610 389.663330,327.106293 
M330.588654,389.114380 
	C331.191345,388.866455 331.794067,388.618500 332.396759,388.370575 
	C332.007660,387.914581 331.618591,387.458588 331.229492,387.002594 
	C330.252380,387.769867 329.275238,388.537140 328.298126,389.304413 
	C328.404510,389.421265 328.510895,389.538116 328.687897,389.732513 
	C329.112457,389.632050 329.561676,389.525757 330.588654,389.114380 
M381.769287,307.851135 
	C380.047272,308.418549 380.047272,308.418549 383.046204,311.216156 
	C382.563446,309.788666 382.330048,309.098541 381.769287,307.851135 
M375.938324,301.832214 
	C376.391632,302.008881 376.844971,302.185547 377.298248,302.362213 
	C377.377258,302.084412 377.456268,301.806641 377.535309,301.528870 
	C376.948303,301.478302 376.361328,301.427765 375.938324,301.832214 
M374.548492,297.518799 
	C373.997040,297.445679 373.445587,297.372589 372.894135,297.299469 
	C372.883423,297.534210 372.872681,297.768921 372.861969,298.003662 
	C373.468750,298.003662 374.075500,298.003662 374.548492,297.518799 
M390.524902,330.629303 
	C390.470551,330.840790 390.416199,331.052277 390.361816,331.263763 
	C390.495392,331.127838 390.628967,330.991913 390.524902,330.629303 
M383.720184,312.523193 
	C383.572845,312.507965 383.425476,312.492737 383.278137,312.477478 
	C383.342834,312.571167 383.407532,312.664856 383.720184,312.523193 
M384.280304,314.479248 
	C384.427399,314.494629 384.574493,314.510040 384.721588,314.525452 
	C384.657196,314.431305 384.592773,314.337158 384.280304,314.479248 
M379.457153,305.766541 
	C379.457153,305.766541 379.598572,305.417511 379.598572,305.417511 
	C379.598572,305.417511 379.262238,305.506989 379.457153,305.766541 
M333.524261,386.277985 
	C333.430847,386.343109 333.337433,386.408264 333.243988,386.473389 
	C333.322296,386.555878 333.394836,386.696167 333.480530,386.704712 
	C333.566864,386.713318 333.666229,386.591034 333.524261,386.277985 
M335.756989,385.521454 
	C335.585266,385.502563 335.413513,385.483673 335.241791,385.464783 
	C335.319519,385.547943 335.397247,385.631104 335.756989,385.521454 
z"/>
<path fill="#7FA8C5" opacity="1.000000" stroke="none" 
	d="
M132.261414,285.128204 
	C136.878510,287.996185 141.282074,291.172852 145.629364,294.773499 
	C145.377518,295.803925 145.181976,296.410400 144.992706,297.007935 
	C144.998993,296.998993 145.012085,296.981567 144.693329,297.124817 
	C143.246368,300.185669 142.118164,303.103302 140.994888,306.010498 
	C140.999817,306.000061 141.014221,305.982056 140.669342,306.080933 
	C138.305939,313.116272 136.287415,320.052734 134.191467,327.447815 
	C134.089600,330.538940 133.822632,333.195953 134.085876,335.799347 
	C134.898270,343.833740 136.327637,351.698883 142.004807,358.009155 
	C141.998566,358.000885 141.984634,357.985443 142.054092,358.243286 
	C142.419861,358.671417 142.716171,358.841675 143.006104,359.006409 
	C142.999710,359.000885 142.989029,358.987946 143.007324,359.320984 
	C143.688126,360.106201 144.350616,360.558380 145.006256,361.005219 
	C144.999390,360.999878 144.988510,360.986389 145.028931,361.262268 
	C145.384033,361.695770 145.698700,361.853424 146.006638,362.005554 
	C145.999908,362.000000 145.988907,361.986633 146.027344,362.263733 
	C146.381332,362.697205 146.696899,362.853577 147.006226,363.005005 
	C146.999969,363.000000 146.990021,362.987549 147.025269,363.264618 
	C147.378098,363.698090 147.695663,363.854492 148.006699,364.005676 
	C148.000153,364.000488 147.990036,363.987305 147.973236,364.333679 
	C148.975113,365.457245 149.993790,366.234406 151.005692,367.006104 
	C150.998917,367.000671 150.985168,366.989868 151.119522,367.276978 
	C151.841110,367.712036 152.428360,367.860016 153.007904,368.004150 
	C153.000214,368.000305 152.989212,367.987366 152.994232,368.345917 
	C154.004745,369.139252 155.010254,369.574036 156.007904,370.004456 
	C156.000061,370.000122 155.988495,369.986664 155.994110,370.340088 
	C158.990738,372.407867 161.812744,374.577881 165.001007,375.760376 
	C181.791779,381.987854 198.673676,387.969788 215.533569,394.010071 
	C215.971573,394.167023 216.519730,394.016418 217.008270,394.004639 
	C217.000000,394.000000 216.987518,393.985840 217.020874,394.261780 
	C217.373245,394.695251 217.692276,394.852814 218.005325,395.005493 
	C217.999344,395.000610 217.987305,394.990845 218.123413,395.311218 
	C219.511948,396.090790 220.764374,396.550018 222.008484,397.004730 
	C222.000153,397.000183 221.987457,396.986389 222.000122,397.340942 
	C223.013229,398.132996 224.013657,398.570496 225.007050,399.003998 
	C225.000000,399.000000 224.989502,398.987671 225.025085,399.262329 
	C225.378067,399.695343 225.695465,399.853668 226.006012,400.006500 
	C225.999146,400.000977 225.985352,399.989868 226.118988,400.276611 
	C226.840012,400.711487 227.427399,400.859650 228.007599,401.004181 
	C228.000381,401.000549 227.989410,400.989044 228.002274,401.346924 
	C229.019669,402.133392 230.024200,402.562012 231.013153,402.996887 
	C230.997604,403.003113 231.003571,402.970184 231.024246,403.257751 
	C231.376785,403.689117 231.708649,403.832886 232.020142,403.988342 
	C231.999786,404.000000 232.020767,403.958038 232.055862,404.234314 
	C232.411224,404.663574 232.731491,404.816559 233.025757,404.983612 
	C232.999756,404.997681 233.026337,404.944855 233.092712,405.248962 
	C233.606766,406.186768 234.054428,406.820496 233.724869,406.353943 
	C222.313370,404.954590 210.230896,403.382965 198.117966,402.098877 
	C196.564545,401.934204 194.852661,403.264221 193.214188,403.901855 
	C190.701889,403.923126 188.189590,403.944397 185.194031,403.931854 
	C183.461792,403.257416 182.255615,402.170807 180.957123,402.046204 
	C169.732880,400.969086 158.432907,400.508362 147.268005,399.020050 
	C121.730850,395.615814 107.469994,372.761566 105.994705,351.334900 
	C104.392838,328.069702 113.740509,308.621979 127.653481,290.862457 
	C129.088547,289.030640 130.581696,287.244324 132.261414,285.128204 
z"/>
<path fill="#FADCCE" opacity="1.000000" stroke="none" 
	d="
M93.826187,271.008698 
	C94.838455,279.902374 102.589081,280.207550 107.679779,282.700592 
	C103.583046,284.243378 98.328667,284.822266 95.339096,287.729858 
	C92.159454,290.822296 91.125465,296.120911 89.149216,300.457581 
	C87.883705,295.663696 87.864967,289.855103 85.012054,286.359894 
	C82.195503,282.909241 76.512711,281.798126 73.028091,280.115051 
	C77.082558,278.824280 83.107918,278.578979 86.248421,275.443878 
	C89.501938,272.195984 89.958618,266.146393 91.843025,260.735168 
	C92.517891,264.248169 93.128822,267.428375 93.826187,271.008698 
z"/>
<path fill="#FADCCE" opacity="1.000000" stroke="none" 
	d="
M406.307831,120.494873 
	C407.023560,130.050323 414.575806,131.438965 420.695496,133.600388 
	C416.533386,135.237869 411.198761,135.923477 408.135345,138.926224 
	C404.856415,142.140182 403.717285,147.537231 401.130341,152.298233 
	C402.802002,139.627487 396.702728,133.074997 384.707123,131.464706 
	C389.993835,129.835464 396.096558,129.685226 399.120392,126.557930 
	C402.441223,123.123451 402.925873,116.946609 404.807037,111.499283 
	C405.302917,114.610214 405.740570,117.355774 406.307831,120.494873 
z"/>
<path fill="#FADDCF" opacity="1.000000" stroke="none" 
	d="
M121.056496,157.061371 
	C109.527115,157.813766 108.324203,166.978546 105.389816,175.539383 
	C104.863968,172.609619 104.157822,170.315384 104.094604,168.003571 
	C103.930527,162.003326 101.542801,157.868271 95.489616,156.179291 
	C93.286751,155.564621 91.196938,154.544769 88.590462,153.136261 
	C102.637573,155.229782 105.931885,146.063309 108.085991,134.944046 
	C108.993950,146.280472 112.004631,155.275452 124.908119,156.744888 
	C124.421043,156.830154 123.936905,156.953812 123.446182,156.991257 
	C122.783127,157.041870 122.115021,157.026215 121.056496,157.061371 
z"/>
<path fill="#FADDCF" opacity="1.000000" stroke="none" 
	d="
M451.587494,291.238007 
	C452.633179,300.131592 459.640533,301.310364 466.371460,303.892090 
	C452.859161,302.687897 449.925751,312.535645 446.408844,322.481384 
	C447.869324,309.501160 442.070282,302.604980 429.034912,300.412567 
	C445.027374,303.274506 447.191986,292.624451 449.823456,281.943665 
	C450.364349,284.913971 450.905243,287.884277 451.587494,291.238007 
z"/>
<path fill="#FADDD0" opacity="1.000000" stroke="none" 
	d="
M430.017548,213.895294 
	C430.219055,209.693741 432.288574,206.841263 435.854950,206.440414 
	C438.092346,206.188965 441.579163,207.356323 442.669006,209.061096 
	C444.015686,211.167664 444.385315,214.879745 443.429016,217.167374 
	C442.662994,218.999802 439.332428,220.651276 437.059357,220.764496 
	C433.145081,220.959503 430.804688,218.170029 430.017548,213.895294 
z"/>
<path fill="#FADDD0" opacity="1.000000" stroke="none" 
	d="
M81.296814,381.307007 
	C87.369370,378.297638 90.875404,379.217438 93.069595,384.055328 
	C94.763466,387.790070 93.254745,392.284729 89.138153,393.181793 
	C86.668060,393.720062 83.084396,392.937531 81.161331,391.346436 
	C77.933586,388.675934 78.314430,384.889191 81.296814,381.307007 
z"/>
<path fill="#FADDD0" opacity="1.000000" stroke="none" 
	d="
M51.248062,215.015106 
	C55.595005,214.987793 58.869678,216.574097 59.143776,220.649933 
	C59.303555,223.025833 58.135128,226.396942 56.364964,227.742508 
	C54.587395,229.093689 50.864475,229.434540 48.841286,228.459778 
	C46.975159,227.560699 45.489761,224.431778 45.164711,222.099930 
	C44.633141,218.286514 47.446480,216.194321 51.248062,215.015106 
z"/>
<path fill="#FADDD0" opacity="1.000000" stroke="none" 
	d="
M358.610535,56.895470 
	C355.009827,58.673847 351.575073,58.928989 349.432800,55.727989 
	C348.156891,53.821480 347.122864,50.410061 348.002136,48.739307 
	C349.138123,46.580734 352.211243,44.431164 354.603577,44.244648 
	C356.750946,44.077229 359.854675,46.055676 361.198090,48.008316 
	C363.352997,51.140396 361.827637,54.311462 358.610535,56.895470 
z"/>
<path fill="#FADDD1" opacity="1.000000" stroke="none" 
	d="
M394.242432,391.876770 
	C388.235443,389.093750 385.932831,384.752899 388.819885,381.080688 
	C390.342438,379.144073 393.516418,377.227600 395.716492,377.460327 
	C397.929718,377.694427 401.085205,380.315247 401.584259,382.421753 
	C402.130707,384.728241 400.447296,387.842621 399.054657,390.203125 
	C398.421112,391.276978 396.148956,391.384094 394.242432,391.876770 
z"/>
<path fill="#4D2015" opacity="1.000000" stroke="none" 
	d="
M125.487610,237.177124 
	C137.715027,241.686951 148.734909,247.600861 157.426086,257.131073 
	C159.645203,259.564392 161.496201,262.333435 162.928070,265.487274 
	C152.470749,253.455017 140.623596,243.782181 124.498596,239.801208 
	C123.750404,239.134293 123.395935,238.467300 123.041473,237.800323 
	C123.742104,237.594330 124.442726,237.388336 125.487610,237.177124 
z"/>
<path fill="#4F2015" opacity="1.000000" stroke="none" 
	d="
M404.879822,238.599365 
	C390.460236,242.679886 378.467072,250.328049 368.356750,261.074188 
	C376.739502,248.428299 389.069733,241.437912 403.632141,237.023712 
	C404.299561,237.389587 404.603851,237.847229 404.879822,238.599365 
z"/>
<path fill="#DACFCD" opacity="1.000000" stroke="none" 
	d="
M324.383606,399.063538 
	C333.338562,393.914917 343.531708,391.923096 354.421417,390.920471 
	C354.879608,391.073914 354.912811,391.248413 354.987183,391.685913 
	C344.948151,394.338287 334.867889,396.727600 324.383606,399.063538 
z"/>
<path fill="#D3552C" opacity="1.000000" stroke="none" 
	d="
M315.063843,365.820587 
	C315.728210,375.618591 316.392578,385.416595 316.724121,395.836975 
	C314.417572,398.469971 312.443848,400.480621 310.287964,402.630066 
	C309.864105,402.961395 309.653351,403.183289 309.196411,403.618347 
	C306.257446,406.852509 303.595581,409.902863 300.933716,412.953247 
	C300.933716,412.953247 300.995911,412.992157 300.723145,412.718689 
	C299.931000,412.879333 299.411560,413.313446 298.651093,413.882935 
	C298.262756,414.340698 298.115479,414.663147 297.968231,414.985565 
	C297.968231,414.985565 298.000183,415.003479 297.722046,415.027466 
	C297.285095,415.365662 297.126312,415.679810 296.967529,415.993958 
	C296.967499,415.993958 297.004028,416.003113 296.724609,416.028198 
	C296.285797,416.367188 296.126373,416.681122 295.966949,416.995026 
	C295.966949,416.995026 296.003723,417.003723 295.724609,417.028442 
	C295.286041,417.367279 295.126617,417.681396 294.967194,417.995514 
	C294.967194,417.995514 295.003815,418.003876 294.724854,418.028687 
	C294.286469,418.367767 294.127075,418.682068 293.967682,418.996399 
	C293.967682,418.996399 294.003448,419.004486 293.724243,419.028625 
	C293.286804,419.367828 293.128571,419.682922 292.970306,419.998016 
	C292.970306,419.998016 293.005127,420.003937 292.726868,420.030212 
	C292.289246,420.371124 292.129883,420.685822 291.970551,421.000519 
	C291.970551,421.000519 292.005432,421.005371 291.728210,421.032288 
	C291.291412,421.373840 291.131836,421.688477 290.972229,422.003113 
	C290.972229,422.003113 291.006775,422.006165 290.731171,422.035217 
	C290.294739,422.378052 290.133911,422.691864 289.973083,423.005707 
	C289.973114,423.005707 290.007416,423.007355 289.732544,423.036774 
	C289.296661,423.379974 289.135620,423.693756 288.974548,424.007507 
	C288.974548,424.007507 289.008270,424.007996 288.734375,424.038605 
	C288.298950,424.382629 288.137390,424.696045 287.975830,425.009460 
	C287.975830,425.009460 288.008850,425.008820 287.735535,425.039917 
	C287.300690,425.384491 287.139130,425.697968 286.977570,426.011475 
	C286.977570,426.011475 287.009796,426.009552 286.737488,426.042175 
	C286.303680,426.388184 286.142181,426.701599 285.980652,427.015015 
	C285.980682,427.015015 286.011200,427.010681 285.741272,427.046265 
	C285.308838,427.393982 285.146332,427.706146 284.983856,428.018341 
	C284.983856,428.018341 285.012146,428.011902 284.743958,428.049072 
	C284.312500,428.397522 284.149231,428.708801 283.985962,429.020081 
	C283.985992,429.020081 284.012451,429.012299 283.745300,429.050568 
	C283.314606,429.399597 283.151062,429.710358 282.987518,430.021118 
	C282.987518,430.021118 283.012695,430.012451 282.746857,430.052368 
	C282.316925,430.402130 282.152802,430.711945 281.988708,431.021759 
	C281.988708,431.021759 282.012634,431.012421 281.748047,431.054108 
	C281.318817,431.404663 281.154205,431.713562 280.989563,432.022430 
	C280.989563,432.022430 281.012665,432.012573 280.748871,432.055237 
	C280.320404,432.406403 280.155731,432.714874 279.991089,433.023346 
	C279.991089,433.023346 280.013672,433.012268 279.721252,433.087708 
	C279.152222,433.470673 278.875580,433.778229 278.598969,434.085785 
	C277.551880,435.127716 276.504791,436.169617 274.939880,437.515076 
	C273.962494,437.858032 273.502899,437.897400 273.043304,437.936768 
	C273.043304,437.936768 272.991425,437.973022 273.042053,437.663513 
	C272.738159,437.218842 272.383667,437.083710 272.029205,436.948547 
	C272.029205,436.948547 272.009644,437.004730 272.036591,436.658691 
	C271.384491,435.860443 270.705475,435.408234 270.026428,434.955994 
	C270.026428,434.955994 269.996216,434.995331 269.990356,434.705963 
	C269.662384,434.264709 269.340271,434.112793 269.018158,433.960907 
	C269.018158,433.960907 268.998932,434.001221 268.981750,433.714569 
	C268.646423,433.273804 268.328278,433.119690 268.010132,432.965546 
	C268.010132,432.965546 267.997620,433.002441 267.969849,432.722870 
	C267.627197,432.286713 267.312317,432.130127 266.997437,431.973511 
	C266.997437,431.973541 266.996368,432.005768 266.892029,431.691895 
	C266.200287,431.228577 265.612946,431.079132 265.025574,430.929688 
	C265.025574,430.929688 265.002838,430.993500 265.079041,430.657593 
	C264.780670,430.196014 264.406067,430.070374 264.031494,429.944733 
	C264.031494,429.944733 264.003143,430.000244 264.055969,429.673157 
	C263.748749,429.214325 263.388702,429.082550 263.028625,428.950806 
	C263.028625,428.950806 263.009918,429.005127 263.047485,428.657898 
	C262.394592,427.861908 261.704132,427.413086 261.013641,426.964294 
	C261.013641,426.964294 260.997406,427.000793 260.974487,426.718811 
	C260.631866,426.283997 260.312134,426.131165 259.992432,425.978363 
	C259.992432,425.978363 259.995209,426.008087 259.889862,425.698303 
	C259.197540,425.237213 258.610596,425.085938 258.023621,424.934662 
	C258.023621,424.934662 258.001831,424.995636 258.070221,424.665527 
	C257.768311,424.206757 257.398010,424.078064 257.027710,423.949371 
	C257.027710,423.949371 257.010986,424.005188 257.052917,423.658081 
	C256.401093,422.862915 255.707321,422.414825 255.013550,421.966736 
	C255.013550,421.966736 254.997498,422.000824 254.970581,421.720612 
	C254.623840,421.289368 254.304031,421.138336 253.984222,420.987305 
	C253.984207,420.987335 253.993057,421.011261 253.876709,420.717163 
	C253.181503,420.262939 252.602631,420.102783 252.023773,419.942627 
	C252.023773,419.942596 252.010178,420.003204 252.067291,419.652100 
	C251.422073,418.855225 250.719727,418.409485 250.017380,417.963745 
	C250.017380,417.963745 249.997696,417.999786 249.973907,417.717346 
	C249.629730,417.283752 249.309357,417.132599 248.988968,416.981476 
	C248.988968,416.981476 248.994415,417.009705 248.878860,416.712891 
	C248.183670,416.257385 247.604019,416.098694 247.024384,415.939972 
	C247.024384,415.939972 247.001495,415.997711 247.048309,415.677826 
	C246.738205,415.223328 246.381302,415.088715 246.024399,414.954071 
	C246.024399,414.954071 246.013580,415.005005 246.015259,414.701050 
	C245.708939,414.191528 245.400955,413.985931 244.920410,413.498962 
	C240.840668,410.459991 236.933502,407.702423 233.026337,404.944855 
	C233.026337,404.944855 232.999756,404.997681 233.036865,404.685181 
	C232.722885,404.234497 232.371826,404.096283 232.020767,403.958038 
	C232.020767,403.958038 231.999786,404.000000 231.988785,403.710693 
	C231.653046,403.270996 231.328308,403.120575 231.003571,402.970154 
	C231.003571,402.970184 230.997604,403.003113 230.922424,402.717865 
	C230.266983,401.906647 229.686707,401.380676 229.123581,400.416656 
	C229.616425,389.023804 230.092133,378.069000 230.786407,367.308105 
	C231.936752,368.450470 232.934906,369.342865 233.790436,370.355682 
	C249.968506,389.508118 276.538361,391.592194 296.199554,380.240082 
	C302.996857,376.315460 308.804260,370.676483 315.063843,365.820587 
z"/>
<path fill="#D6CDCE" opacity="1.000000" stroke="none" 
	d="
M233.092712,405.248962 
	C236.933502,407.702423 240.840668,410.459991 244.889648,413.796692 
	C245.026093,414.574615 245.020752,414.773376 245.015411,414.972107 
	C229.278107,405.612610 211.903137,403.765381 193.658096,403.887421 
	C194.852661,403.264221 196.564545,401.934204 198.117966,402.098877 
	C210.230896,403.382965 222.313370,404.954590 233.724869,406.353943 
	C234.054428,406.820496 233.606766,406.186768 233.092712,405.248962 
z"/>
<path fill="#DCD1D0" opacity="1.000000" stroke="none" 
	d="
M234.872162,481.880859 
	C238.170364,474.298676 236.454376,466.962280 233.810242,459.658691 
	C230.922806,451.683075 229.365479,443.699127 232.689774,435.355255 
	C233.506348,433.305695 233.141449,430.785461 233.667053,428.243042 
	C234.014389,428.004456 234.161072,428.131287 234.142929,428.499146 
	C234.689178,430.180298 235.253571,431.493561 235.890747,432.881958 
	C235.963547,432.957092 236.114700,433.101685 236.071411,433.445892 
	C236.071106,434.473541 236.114090,435.156952 236.065475,435.936768 
	C235.973877,436.033112 235.792450,436.227509 235.792450,436.227509 
	C231.214691,438.901886 231.693100,443.372589 232.415009,447.419067 
	C233.365372,452.746155 235.203873,457.908966 236.504318,463.180939 
	C238.039719,469.405579 240.004990,475.698395 235.325211,481.826385 
	C234.963257,481.967560 234.872162,481.880859 234.872162,481.880859 
z"/>
<path fill="#DACFCD" opacity="1.000000" stroke="none" 
	d="
M301.289062,412.962219 
	C303.595581,409.902863 306.257446,406.852509 309.363708,403.798676 
	C309.808075,403.795197 310.185577,404.110687 310.311096,404.345825 
	C311.098297,404.335205 311.760010,404.089508 312.421692,403.843811 
	C311.992554,403.617523 311.563446,403.391266 310.973999,402.990906 
	C310.813660,402.816864 310.470154,402.491272 310.470154,402.491272 
	C312.443848,400.480621 314.417572,398.469971 316.660950,396.307556 
	C317.708313,395.773132 318.486053,395.390442 319.661743,395.037415 
	C320.059662,395.067017 320.226044,395.267456 320.226044,395.267456 
	C319.647400,396.079590 319.068756,396.891724 317.943146,398.013123 
	C316.566772,399.241974 315.737335,400.161560 314.907898,401.081146 
	C315.131775,401.339050 315.355652,401.596954 315.579529,401.854858 
	C316.385895,401.542023 317.192261,401.229156 317.998627,400.916321 
	C319.764893,400.262817 321.531158,399.609314 323.657532,398.971100 
	C320.814667,400.841248 317.552582,402.602356 314.422882,404.573669 
	C310.111023,407.289673 305.899170,410.164429 301.289062,412.962219 
z"/>
<path fill="#D8CFCF" opacity="1.000000" stroke="none" 
	d="
M320.259552,439.776733 
	C324.225159,443.779297 323.262054,448.698212 322.545807,453.420685 
	C322.076111,456.517548 320.876465,459.498840 320.082275,462.552338 
	C318.545624,468.460358 316.746857,474.371429 319.363007,480.502350 
	C315.961639,476.112061 316.613434,471.149200 317.487732,466.284912 
	C318.511444,460.589386 320.184326,454.998535 320.980896,449.279449 
	C321.352783,446.609467 320.325104,443.744568 319.987427,440.464233 
	C320.043091,439.960480 320.259552,439.776733 320.259552,439.776733 
z"/>
<path fill="#D8CFCF" opacity="1.000000" stroke="none" 
	d="
M316.782196,436.223938 
	C314.796906,436.775055 312.830566,437.664642 310.820740,437.777100 
	C309.002380,437.878845 307.136536,437.132141 305.166748,436.349243 
	C305.041840,435.938904 305.219269,435.728760 305.618988,435.803040 
	C308.247040,435.742554 310.475372,435.607819 312.703674,435.473083 
	C312.721344,435.037689 312.739014,434.602295 312.756653,434.166901 
	C311.679932,433.300140 310.603210,432.433411 308.802582,430.983917 
	C311.336853,431.396759 312.832306,431.640381 314.475433,431.908051 
	C313.251740,425.988129 312.395996,425.500488 305.129578,426.162964 
	C305.052399,426.070923 304.893372,425.890930 304.893372,425.890930 
	C309.945496,422.273132 315.326111,424.453339 316.039429,430.387604 
	C316.231293,431.983765 316.534485,433.566559 316.881348,435.592407 
	C316.976166,436.029358 316.782196,436.223969 316.782196,436.223938 
z"/>
<path fill="#D8CFCF" opacity="1.000000" stroke="none" 
	d="
M303.868408,435.128510 
	C301.142944,432.708893 301.441650,430.063599 303.675598,427.176514 
	C304.066833,427.049927 304.241272,427.196411 304.185242,427.613312 
	C304.167999,430.286713 304.206818,432.543243 304.150391,434.880859 
	C304.055115,434.961945 303.868408,435.128510 303.868408,435.128510 
z"/>
<path fill="#D8CFCF" opacity="1.000000" stroke="none" 
	d="
M322.196289,483.794769 
	C324.331055,484.379456 326.465820,484.964111 328.600555,485.548767 
	C328.454010,486.052795 328.307465,486.556824 328.160889,487.060852 
	C326.198090,486.269958 324.235260,485.479065 322.159637,484.317780 
	C322.046844,483.947388 322.196289,483.794769 322.196289,483.794769 
z"/>
<path fill="#DCD1D0" opacity="1.000000" stroke="none" 
	d="
M243.255142,436.308105 
	C240.919189,436.472473 238.583237,436.636871 236.019867,436.514374 
	C235.792450,436.227509 235.973877,436.033112 236.481293,435.990845 
	C238.965454,435.931183 240.942215,435.913757 243.003571,435.998840 
	C243.088150,436.101349 243.255142,436.308105 243.255142,436.308105 
z"/>
<path fill="#DCD1D0" opacity="1.000000" stroke="none" 
	d="
M235.781235,425.769958 
	C238.119308,425.562622 240.457367,425.355286 242.936401,425.530396 
	C243.077347,425.912811 242.913040,426.110016 242.490479,426.067841 
	C240.092529,426.074982 238.117157,426.124298 236.052536,426.071930 
	C235.963287,425.970215 235.781235,425.769958 235.781235,425.769958 
z"/>
<path fill="#DCD1D0" opacity="1.000000" stroke="none" 
	d="
M245.248291,427.789276 
	C245.433151,429.792267 245.617996,431.795288 245.434341,433.929199 
	C245.065842,434.060120 244.868576,433.897614 244.900909,433.485718 
	C244.911774,431.416199 244.890320,429.758636 244.963882,428.023285 
	C245.058884,427.945526 245.248291,427.789276 245.248291,427.789276 
z"/>
<path fill="#E6C7BD" opacity="1.000000" stroke="none" 
	d="
M270.025269,435.289307 
	C270.705475,435.408234 271.384491,435.860443 272.058014,436.637909 
	C271.376373,436.516296 270.700256,436.069458 270.025269,435.289307 
z"/>
<path fill="#DCD1D0" opacity="1.000000" stroke="none" 
	d="
M231.511475,484.394348 
	C231.594757,483.895752 231.860519,483.590088 232.126297,483.284454 
	C232.314270,483.465057 232.502243,483.645691 232.690216,483.826294 
	C232.358139,484.079956 232.026031,484.333588 231.511475,484.394348 
z"/>
<path fill="#E6C7BD" opacity="1.000000" stroke="none" 
	d="
M250.003265,418.299286 
	C250.719727,418.409485 251.422073,418.855225 252.089355,419.630219 
	C251.365906,419.517914 250.677521,419.076355 250.003265,418.299286 
z"/>
<path fill="#E6C7BD" opacity="1.000000" stroke="none" 
	d="
M261.005310,427.299500 
	C261.704132,427.413086 262.394592,427.861908 263.067627,428.637146 
	C262.365784,428.520630 261.681396,428.077667 261.005310,427.299500 
z"/>
<path fill="#E6C7BD" opacity="1.000000" stroke="none" 
	d="
M254.995850,422.302795 
	C255.707321,422.414825 256.401093,422.862915 257.073364,423.637177 
	C256.360657,423.521851 255.669403,423.080353 254.995850,422.302795 
z"/>
<path fill="#E6C7BD" opacity="1.000000" stroke="none" 
	d="
M273.037964,438.284607 
	C273.502899,437.897400 273.962494,437.858032 274.765320,437.729675 
	C274.848969,438.308594 274.589386,438.976501 274.329834,439.644409 
	C273.897400,439.307098 273.464996,438.969788 273.037964,438.284607 
z"/>
<path fill="#DACFCD" opacity="1.000000" stroke="none" 
	d="
M298.892151,413.747559 
	C299.411560,413.313446 299.931000,412.879333 300.710205,412.684387 
	C300.505981,413.560577 300.041901,414.197601 299.274536,414.620117 
	C298.944885,414.186249 298.918518,413.966888 298.892151,413.747559 
z"/>
<path fill="#DCD1D0" opacity="1.000000" stroke="none" 
	d="
M243.158813,425.813599 
	C243.847549,426.210144 244.454803,426.705872 245.155182,427.495422 
	C245.248291,427.789276 245.058884,427.945526 244.719910,427.881348 
	C243.891647,427.248138 243.402344,426.679077 242.913040,426.110016 
	C242.913040,426.110016 243.077347,425.912811 243.158813,425.813599 
z"/>
<path fill="#DCD1D0" opacity="1.000000" stroke="none" 
	d="
M245.164398,434.141418 
	C244.785172,434.845581 244.307373,435.468445 243.542358,436.199707 
	C243.255142,436.308105 243.088150,436.101349 243.143219,435.752808 
	C243.755035,434.902039 244.311813,434.399811 244.868576,433.897614 
	C244.868576,433.897614 245.065842,434.060120 245.164398,434.141418 
z"/>
<path fill="#E6C7BD" opacity="1.000000" stroke="none" 
	d="
M258.144775,425.231628 
	C258.610596,425.085938 259.197540,425.237213 259.904633,425.696259 
	C259.438477,425.845551 258.852173,425.687042 258.144775,425.231628 
z"/>
<path fill="#E6C7BD" opacity="1.000000" stroke="none" 
	d="
M252.134659,420.246460 
	C252.602631,420.102783 253.181503,420.262939 253.889435,420.718170 
	C253.427505,420.858917 252.836533,420.704590 252.134659,420.246460 
z"/>
<path fill="#E6C7BD" opacity="1.000000" stroke="none" 
	d="
M265.151001,431.223969 
	C265.612946,431.079132 266.200287,431.228577 266.907593,431.688019 
	C266.443848,431.838104 265.860168,431.678162 265.151001,431.223969 
z"/>
<path fill="#D8CFCF" opacity="1.000000" stroke="none" 
	d="
M319.935669,440.053284 
	C319.503113,439.696075 319.177979,439.246033 318.904419,438.416809 
	C318.955933,438.037598 319.148193,437.838318 319.148193,437.838318 
	C319.469360,438.299957 319.790527,438.761597 320.185608,439.500000 
	C320.259552,439.776733 320.043091,439.960480 319.935669,440.053284 
z"/>
<path fill="#E6C7BD" opacity="1.000000" stroke="none" 
	d="
M247.138519,416.241516 
	C247.604019,416.098694 248.183670,416.257385 248.893204,416.711853 
	C248.432938,416.852783 247.842789,416.697937 247.138519,416.241516 
z"/>
<path fill="#E6C7BD" opacity="1.000000" stroke="none" 
	d="
M268.029907,433.253693 
	C268.328278,433.119690 268.646423,433.273804 269.001556,433.704224 
	C268.708923,433.834290 268.379272,433.688080 268.029907,433.253693 
z"/>
<path fill="#EBC7BA" opacity="1.000000" stroke="none" 
	d="
M280.277252,432.996338 
	C280.155731,432.714874 280.320404,432.406403 280.753723,432.043640 
	C280.869385,432.316010 280.716400,432.642670 280.277252,432.996338 
z"/>
<path fill="#E6C7BD" opacity="1.000000" stroke="none" 
	d="
M267.020325,432.261597 
	C267.312317,432.130127 267.627197,432.286713 267.988220,432.716400 
	C267.704010,432.842926 267.373627,432.696320 267.020325,432.261597 
z"/>
<path fill="#EBC7BA" opacity="1.000000" stroke="none" 
	d="
M281.275940,431.995667 
	C281.154205,431.713562 281.318817,431.404663 281.752563,431.042114 
	C281.868591,431.315216 281.715454,431.642059 281.275940,431.995667 
z"/>
<path fill="#EBC7BA" opacity="1.000000" stroke="none" 
	d="
M282.274902,430.994751 
	C282.152802,430.711945 282.316925,430.402130 282.751068,430.039764 
	C282.867767,430.314087 282.714447,430.640930 282.274902,430.994751 
z"/>
<path fill="#E6C7BD" opacity="1.000000" stroke="none" 
	d="
M264.094421,430.205109 
	C264.406067,430.070374 264.780670,430.196014 265.109253,430.642334 
	C264.761322,430.797119 264.459351,430.631317 264.094421,430.205109 
z"/>
<path fill="#EBC7BA" opacity="1.000000" stroke="none" 
	d="
M283.273499,429.993164 
	C283.151062,429.710358 283.314606,429.399597 283.749054,429.037323 
	C283.866486,429.312256 283.712982,429.638702 283.273499,429.993164 
z"/>
<path fill="#E6C7BD" opacity="1.000000" stroke="none" 
	d="
M263.077942,429.218536 
	C263.388702,429.082550 263.748749,429.214325 264.082214,429.656250 
	C263.746155,429.806396 263.436707,429.646332 263.077942,429.218536 
z"/>
<path fill="#EBC7BA" opacity="1.000000" stroke="none" 
	d="
M284.272278,428.992188 
	C284.149231,428.708801 284.312500,428.397522 284.747009,428.034912 
	C284.865051,428.310455 284.711853,428.637390 284.272278,428.992188 
z"/>
<path fill="#EBC7BA" opacity="1.000000" stroke="none" 
	d="
M278.946716,434.078064 
	C278.875580,433.778229 279.152222,433.470673 279.726135,433.076080 
	C279.780396,433.349457 279.537415,433.709900 278.946716,434.078064 
z"/>
<path fill="#E6C7BD" opacity="1.000000" stroke="none" 
	d="
M269.044189,434.243225 
	C269.340271,434.112793 269.662384,434.264709 270.013428,434.697144 
	C269.718353,434.826996 269.394287,434.676270 269.044189,434.243225 
z"/>
<path fill="#D8CFCF" opacity="1.000000" stroke="none" 
	d="
M304.950684,436.041901 
	C304.545410,436.026733 304.288971,435.832428 303.979309,435.345276 
	C303.868408,435.128510 304.055115,434.961945 304.345337,434.996948 
	C304.880646,435.221832 305.075226,435.454132 305.219269,435.728760 
	C305.219269,435.728760 305.041840,435.938904 304.950684,436.041901 
z"/>
<path fill="#D8CFCF" opacity="1.000000" stroke="none" 
	d="
M317.074707,435.933594 
	C317.480042,435.962036 317.737701,436.152679 317.961365,436.720154 
	C317.976471,437.030548 317.786438,437.223724 317.786438,437.223724 
	C317.466583,437.116211 317.212708,436.922302 316.903503,436.432983 
	C316.782196,436.223969 316.976166,436.029358 317.074707,435.933594 
z"/>
<path fill="#E6C7BD" opacity="1.000000" stroke="none" 
	d="
M272.076843,437.218262 
	C272.383667,437.083710 272.738159,437.218842 273.073059,437.658600 
	C272.743805,437.804810 272.434143,437.646393 272.076843,437.218262 
z"/>
<path fill="#D8CFCF" opacity="1.000000" stroke="none" 
	d="
M318.857819,438.135254 
	C318.464203,438.095917 318.220856,437.895569 317.908020,437.427856 
	C317.786438,437.223724 317.976471,437.030548 318.075012,436.934723 
	C318.473633,436.966797 318.721283,437.161438 319.032349,437.630554 
	C319.148193,437.838318 318.955933,438.037598 318.857819,438.135254 
z"/>
<path fill="#DCD1D0" opacity="1.000000" stroke="none" 
	d="
M235.006516,482.013184 
	C234.878540,482.242645 234.707321,482.426483 234.536072,482.610321 
	C234.524780,482.409668 234.513504,482.209045 234.687195,481.944641 
	C234.872162,481.880859 234.963257,481.967560 235.006516,482.013184 
z"/>
<path fill="#D8CFCF" opacity="1.000000" stroke="none" 
	d="
M320.895691,483.117767 
	C320.711182,482.918365 320.526672,482.718964 320.342163,482.519592 
	C320.565613,482.484680 320.789062,482.449738 321.030151,482.686584 
	C321.047791,482.958405 320.895660,483.117767 320.895691,483.117767 
z"/>
<path fill="#D8CFCF" opacity="1.000000" stroke="none" 
	d="
M321.969971,484.021484 
	C321.580170,483.988312 321.324341,483.802490 321.010620,483.327942 
	C320.895660,483.117767 321.047791,482.958405 321.129242,482.878540 
	C321.516388,482.920837 321.769501,483.112427 322.083160,483.584106 
	C322.196289,483.794769 322.046844,483.947388 321.969971,484.021484 
z"/>
<path fill="#EBC7BA" opacity="1.000000" stroke="none" 
	d="
M297.257141,415.975433 
	C297.126312,415.679810 297.285095,415.365662 297.718811,415.009460 
	C297.844757,415.297272 297.695770,415.627075 297.257141,415.975433 
z"/>
<path fill="#EBC7BA" opacity="1.000000" stroke="none" 
	d="
M298.651093,413.882935 
	C298.918518,413.966888 298.944885,414.186249 298.990448,414.737244 
	C298.833282,415.089935 298.656891,415.110992 298.224365,415.058777 
	C298.115479,414.663147 298.262756,414.340698 298.651093,413.882935 
z"/>
<path fill="#EBC7BA" opacity="1.000000" stroke="none" 
	d="
M296.256012,416.974701 
	C296.126373,416.681122 296.285797,416.367188 296.719727,416.009979 
	C296.844543,416.295929 296.694794,416.625153 296.256012,416.974701 
z"/>
<path fill="#E6C7BD" opacity="1.000000" stroke="none" 
	d="
M249.014679,417.269135 
	C249.309357,417.132599 249.629730,417.283752 249.992950,417.709778 
	C249.703995,417.842072 249.372192,417.699432 249.014679,417.269135 
z"/>
<path fill="#EBC7BA" opacity="1.000000" stroke="none" 
	d="
M295.256134,417.974976 
	C295.126617,417.681396 295.286041,417.367279 295.720245,417.010071 
	C295.845001,417.296112 295.695038,417.625244 295.256134,417.974976 
z"/>
<path fill="#E6C7BD" opacity="1.000000" stroke="none" 
	d="
M245.273071,415.012543 
	C245.020752,414.773376 245.026093,414.574615 245.062225,414.078064 
	C245.400955,413.985931 245.708939,414.191528 246.030579,414.679321 
	C245.873062,414.992065 245.701889,415.022522 245.273071,415.012543 
z"/>
<path fill="#EBC7BA" opacity="1.000000" stroke="none" 
	d="
M294.256592,418.975647 
	C294.127075,418.682068 294.286469,418.367767 294.720673,418.010345 
	C294.845490,418.296448 294.695526,418.625702 294.256592,418.975647 
z"/>
<path fill="#EBC7BA" opacity="1.000000" stroke="none" 
	d="
M293.259705,419.978455 
	C293.128571,419.682922 293.286804,419.367828 293.720520,419.010681 
	C293.847015,419.298706 293.698090,419.628784 293.259705,419.978455 
z"/>
<path fill="#EBC7BA" opacity="1.000000" stroke="none" 
	d="
M292.259644,420.979279 
	C292.129883,420.685822 292.289246,420.371124 292.723480,420.012878 
	C292.848480,420.298859 292.698608,420.628448 292.259644,420.979279 
z"/>
<path fill="#E6C7BD" opacity="1.000000" stroke="none" 
	d="
M254.010986,421.274567 
	C254.304031,421.138336 254.623840,421.289368 254.988403,421.714539 
	C254.701324,421.846375 254.369537,421.704102 254.010986,421.274567 
z"/>
<path fill="#EBC7BA" opacity="1.000000" stroke="none" 
	d="
M291.261078,421.980957 
	C291.131836,421.688477 291.291412,421.373840 291.725708,421.014832 
	C291.850250,421.299927 291.700104,421.629395 291.261078,421.980957 
z"/>
<path fill="#EBC7BA" opacity="1.000000" stroke="none" 
	d="
M290.261536,422.982208 
	C290.133911,422.691864 290.294739,422.378052 290.729553,422.017914 
	C290.852325,422.300629 290.701141,422.629669 290.261536,422.982208 
z"/>
<path fill="#EBC7BA" opacity="1.000000" stroke="none" 
	d="
M289.262848,423.983643 
	C289.135620,423.693756 289.296661,423.379974 289.731659,423.019653 
	C289.854126,423.301971 289.702637,423.630890 289.262848,423.983643 
z"/>
<path fill="#E6C7BD" opacity="1.000000" stroke="none" 
	d="
M257.083344,424.213867 
	C257.398010,424.078064 257.768311,424.206757 258.098938,424.650604 
	C257.752502,424.803314 257.445740,424.640869 257.083344,424.213867 
z"/>
<path fill="#EBC7BA" opacity="1.000000" stroke="none" 
	d="
M288.263977,424.985046 
	C288.137390,424.696045 288.298950,424.382629 288.734070,424.021729 
	C288.855774,424.303040 288.703949,424.631836 288.263977,424.985046 
z"/>
<path fill="#EBC7BA" opacity="1.000000" stroke="none" 
	d="
M287.265564,425.986572 
	C287.139130,425.697968 287.300690,425.384491 287.735840,425.023376 
	C287.857452,425.304382 287.705505,425.632996 287.265564,425.986572 
z"/>
<path fill="#DCD1D0" opacity="1.000000" stroke="none" 
	d="
M234.773590,426.782379 
	C234.885895,426.462952 235.082291,426.208405 235.571991,425.894348 
	C235.781235,425.769958 235.963287,425.970215 235.932739,426.277405 
	C235.697235,426.840576 235.440002,427.022827 235.041473,427.043884 
	C234.952423,426.956482 234.773590,426.782379 234.773590,426.782379 
z"/>
<path fill="#E6C7BD" opacity="1.000000" stroke="none" 
	d="
M260.017212,426.265747 
	C260.312134,426.131165 260.631866,426.283997 260.993469,426.712555 
	C260.704254,426.843231 260.373138,426.698181 260.017212,426.265747 
z"/>
<path fill="#EBC7BA" opacity="1.000000" stroke="none" 
	d="
M286.268219,426.988770 
	C286.142181,426.701599 286.303680,426.388184 286.738403,426.026062 
	C286.859650,426.305695 286.707703,426.634094 286.268219,426.988770 
z"/>
<path fill="#D8CFCF" opacity="1.000000" stroke="none" 
	d="
M303.981506,426.974487 
	C303.982727,426.565582 304.166504,426.299164 304.670410,425.995361 
	C304.893372,425.890930 305.052399,426.070923 305.008667,426.356506 
	C304.771515,426.889282 304.530304,427.074036 304.241272,427.196411 
	C304.241272,427.196411 304.066833,427.049927 303.981506,426.974487 
z"/>
<path fill="#DCD1D0" opacity="1.000000" stroke="none" 
	d="
M233.942444,427.939453 
	C233.960083,427.553467 234.127350,427.280029 234.572937,426.918243 
	C234.773590,426.782379 234.952423,426.956482 234.934265,427.259949 
	C234.741684,427.855438 234.489990,428.044739 234.161072,428.131287 
	C234.161072,428.131287 234.014389,428.004456 233.942444,427.939453 
z"/>
<path fill="#EBC7BA" opacity="1.000000" stroke="none" 
	d="
M285.270691,427.990753 
	C285.146332,427.706146 285.308838,427.393982 285.743225,427.030945 
	C285.862549,427.307800 285.710022,427.635468 285.270691,427.990753 
z"/>
<path fill="#E6C7BD" opacity="1.000000" stroke="none" 
	d="
M246.068893,415.224762 
	C246.381302,415.088715 246.738205,415.223328 247.074738,415.661560 
	C246.740707,415.808594 246.427048,415.652008 246.068893,415.224762 
z"/>
<path fill="#7FA8C4" opacity="1.000000" stroke="none" 
	d="
M230.567841,367.114227 
	C230.092133,378.069000 229.616425,389.023804 228.843109,400.439911 
	C228.360138,400.930542 228.174774,400.959808 227.989410,400.989044 
	C227.989410,400.989044 228.000381,401.000549 227.872711,400.719757 
	C227.158478,400.289246 226.571915,400.139557 225.985352,399.989868 
	C225.985352,399.989868 225.999146,400.000977 225.966675,399.733704 
	C225.619293,399.306854 225.304398,399.147247 224.989502,398.987671 
	C224.989502,398.987671 225.000000,399.000000 224.895264,398.696350 
	C223.856171,397.923889 222.921814,397.455139 221.987457,396.986389 
	C221.987457,396.986389 222.000153,397.000183 221.867889,396.686340 
	C220.486191,395.911926 219.236755,395.451385 217.987305,394.990845 
	C217.987305,394.990845 217.999344,395.000610 217.973694,394.729187 
	C217.627853,394.300446 217.307693,394.143158 216.987518,393.985840 
	C216.987518,393.985840 217.000000,394.000000 216.868927,393.688904 
	C213.235031,391.559021 209.879013,389.340851 206.204163,387.990051 
	C189.514740,381.855286 172.735443,375.964966 155.988495,369.986664 
	C155.988495,369.986664 156.000061,370.000122 155.884827,369.704163 
	C154.842789,368.934631 153.916000,368.460999 152.989212,367.987366 
	C152.989212,367.987366 153.000214,368.000305 152.868591,367.722351 
	C152.153030,367.292877 151.569092,367.141357 150.985168,366.989868 
	C150.985168,366.989868 150.998917,367.000671 151.009827,366.664124 
	C150.010483,365.547455 149.000259,364.767395 147.990036,363.987305 
	C147.990036,363.987305 148.000153,364.000488 147.939911,363.748535 
	C147.583130,363.326935 147.286575,363.157227 146.990021,362.987549 
	C146.990021,362.987549 146.999969,363.000000 146.939850,362.747437 
	C146.582794,362.325470 146.285843,362.156067 145.988892,361.986633 
	C145.988907,361.986633 145.999908,362.000000 145.942139,361.746338 
	C145.585754,361.323883 145.287140,361.155121 144.988510,360.986389 
	C144.988510,360.986389 144.999390,360.999878 144.978607,360.677032 
	C144.301575,359.898773 143.645309,359.443359 142.989029,358.987946 
	C142.989029,358.987946 142.999710,359.000885 142.962570,358.729797 
	C142.611832,358.300934 142.298233,358.143188 141.984634,357.985443 
	C141.984634,357.985443 141.998566,358.000885 142.058258,357.629639 
	C137.209045,347.753479 135.070862,337.675598 135.915421,326.581146 
	C137.652206,319.440552 139.333221,312.711304 141.014221,305.982056 
	C141.014221,305.982056 140.999817,306.000061 141.287781,305.824005 
	C142.721191,302.759155 143.866638,299.870361 145.012085,296.981567 
	C145.012085,296.981567 144.998993,296.998993 145.277008,296.970032 
	C146.007141,296.342804 146.459290,295.744507 146.911423,295.146240 
	C153.950974,296.630737 160.990524,298.115204 169.369308,299.882111 
	C169.886932,301.626984 170.753006,305.118713 171.960159,308.488251 
	C174.024261,314.249786 176.019135,320.063080 178.542145,325.628387 
	C186.675735,343.569580 202.385483,350.521301 220.413269,353.938507 
	C223.662659,354.554443 226.922134,355.117249 230.511734,356.299683 
	C230.753632,360.301270 230.660736,363.707764 230.567841,367.114227 
z"/>
<path fill="#8D391F" opacity="1.000000" stroke="none" 
	d="
M230.786407,367.308105 
	C230.660736,363.707764 230.753632,360.301270 230.864212,356.462524 
	C239.403198,356.004181 247.309464,357.342651 255.094147,361.732391 
	C266.927887,368.405426 279.418335,368.228302 290.751556,360.027802 
	C297.839294,354.899231 305.130646,350.639130 314.155762,349.067200 
	C314.730011,354.359497 314.956238,359.644897 315.123169,365.375427 
	C308.804260,370.676483 302.996857,376.315460 296.199554,380.240082 
	C276.538361,391.592194 249.968506,389.508118 233.790436,370.355682 
	C232.934906,369.342865 231.936752,368.450470 230.786407,367.308105 
z"/>
<path fill="#361611" opacity="1.000000" stroke="none" 
	d="
M305.485291,205.775665 
	C303.740051,205.057281 302.270325,204.629974 301.020874,203.849838 
	C297.082489,201.390671 294.658386,197.858353 295.145691,193.110229 
	C295.675842,187.944855 298.926331,184.508286 303.807617,183.295364 
	C314.915527,180.535233 325.581055,182.774368 335.625641,187.638702 
	C339.798187,189.659348 342.660919,193.485672 341.787384,198.612991 
	C340.924011,203.680908 336.939087,205.358780 332.413177,206.111877 
	C323.551025,207.586472 314.691071,208.671295 305.485291,205.775665 
z"/>
<path fill="#351610" opacity="1.000000" stroke="none" 
	d="
M228.907181,204.081619 
	C217.967911,209.527618 206.870529,208.747086 195.874710,206.334290 
	C187.686203,204.537491 185.450394,195.527649 192.355087,190.532043 
	C197.378754,186.897385 203.938644,185.019638 210.090912,183.435471 
	C214.457382,182.311142 219.305481,182.662018 223.903687,182.937393 
	C229.132736,183.250565 233.247345,185.974152 234.716965,191.144516 
	C236.266953,196.597565 233.954590,200.889114 228.907181,204.081619 
z"/>
<path fill="#A34123" opacity="1.000000" stroke="none" 
	d="
M259.069092,285.988159 
	C268.893677,282.557465 278.017334,283.709778 287.052856,287.513428 
	C292.963287,290.001556 298.983887,292.227966 306.073914,295.010712 
	C280.594543,297.315094 256.232269,298.879761 231.947464,294.187744 
	C241.028900,291.415283 249.843948,288.724152 259.069092,285.988159 
z"/>
<path fill="#371711" opacity="1.000000" stroke="none" 
	d="
M206.377106,236.477676 
	C203.129898,230.200317 203.738678,225.297012 207.933563,221.832001 
	C211.816269,218.624847 217.385162,218.568314 221.205551,221.697250 
	C225.882309,225.527527 226.573502,232.316238 222.740692,236.774872 
	C218.461121,241.753235 212.280228,241.756226 206.377106,236.477676 
z"/>
<path fill="#371611" opacity="1.000000" stroke="none" 
	d="
M323.694336,220.307159 
	C329.110809,228.495148 326.002197,237.263031 317.758698,238.087509 
	C312.755493,238.587906 308.784729,236.899277 306.751709,232.179916 
	C304.885895,227.848785 305.454254,223.648193 309.032318,220.277710 
	C312.704102,216.818970 316.863770,216.119019 321.378876,218.625458 
	C322.100830,219.026215 322.746399,219.564545 323.694336,220.307159 
z"/>
<path fill="#461C13" opacity="1.000000" stroke="none" 
	d="
M296.506165,244.139740 
	C296.969849,243.624268 297.600952,243.158188 297.775513,243.291229 
	C301.588562,246.197037 302.617676,250.360123 302.308228,254.793808 
	C302.016693,258.970551 299.793152,262.390717 295.481293,262.939331 
	C287.151001,263.999207 278.669525,264.090363 270.938019,267.996490 
	C270.802734,268.064850 270.605927,268.042664 270.443268,268.021393 
	C260.627289,266.737213 250.783905,265.616913 241.024506,263.992157 
	C239.427536,263.726318 237.498856,261.462219 236.938263,259.728790 
	C235.406525,254.992477 238.775635,247.365891 244.064194,243.579910 
	C243.607315,245.234924 243.481918,246.205276 243.077591,247.040619 
	C242.356232,248.530945 241.325851,249.878891 240.670303,251.392731 
	C237.051041,259.750702 238.662109,261.849182 247.741928,262.140808 
	C252.988663,262.309387 258.292450,263.173157 263.401520,264.417877 
	C267.947845,265.525421 271.935455,265.583405 276.398346,263.682404 
	C280.224640,262.052551 284.645386,261.573273 288.859131,261.170685 
	C292.654053,260.808105 296.692078,261.629944 298.959625,257.437927 
	C301.165527,253.359879 299.541351,249.717651 297.519531,246.154587 
	C297.192291,245.577911 296.815063,245.029602 296.506165,244.139740 
z"/>
<path fill="#DAD0CF" opacity="1.000000" stroke="none" 
	d="
M146.731354,295.040588 
	C146.459290,295.744507 146.007141,296.342804 145.270721,296.978973 
	C145.181976,296.410400 145.377518,295.803925 145.857040,295.027405 
	C146.141022,294.857330 146.551270,294.934937 146.731354,295.040588 
z"/>
<path fill="#7FA8C4" opacity="1.000000" stroke="none" 
	d="
M371.747559,293.918640 
	C371.802521,294.161285 371.563477,294.460205 371.045532,294.846497 
	C370.995605,294.614227 371.224579,294.294556 371.747559,293.918640 
z"/>
<path fill="#4D2015" opacity="1.000000" stroke="none" 
	d="
M163.500580,267.461121 
	C163.518097,267.443481 163.483047,267.478790 163.500580,267.461121 
z"/>
<path fill="#DACFCD" opacity="1.000000" stroke="none" 
	d="
M347.698425,379.694824 
	C354.518768,377.188538 360.973206,374.819183 367.427643,372.449860 
	C367.607971,372.905243 367.788300,373.360626 367.968658,373.816010 
	C357.939545,377.604889 347.910461,381.393768 337.881378,385.182648 
	C337.687988,384.730011 337.494568,384.277374 337.301178,383.824768 
	C340.644958,382.493774 343.988708,381.162781 347.698425,379.694824 
z"/>
<path fill="#DACFCD" opacity="1.000000" stroke="none" 
	d="
M383.826172,357.856171 
	C385.799347,353.013062 387.772522,348.169952 389.947571,342.831421 
	C390.460297,348.857391 388.108673,353.544403 384.503357,358.024536 
	C384.064636,358.057617 383.826172,357.856171 383.826172,357.856171 
z"/>
<path fill="#DAD0D0" opacity="1.000000" stroke="none" 
	d="
M389.426483,327.355347 
	C387.700409,324.000610 386.211151,320.396820 384.721924,316.793030 
	C385.272705,316.604156 385.823486,316.415283 386.374298,316.226410 
	C387.470642,319.853027 388.566986,323.479675 389.426483,327.355347 
z"/>
<path fill="#7FA8C4" opacity="1.000000" stroke="none" 
	d="
M317.999146,400.561035 
	C317.192261,401.229156 316.385895,401.542023 315.579529,401.854858 
	C315.355652,401.596954 315.131775,401.339050 314.907898,401.081146 
	C315.737335,400.161560 316.566772,399.241974 317.697815,398.198242 
	C317.999512,398.784668 317.999603,399.495239 317.999146,400.561035 
z"/>
<path fill="#DACFCD" opacity="1.000000" stroke="none" 
	d="
M330.299805,389.266937 
	C329.561676,389.525757 329.112457,389.632050 328.687897,389.732513 
	C328.510895,389.538116 328.404510,389.421265 328.298126,389.304413 
	C329.275238,388.537140 330.252380,387.769867 331.229492,387.002594 
	C331.618591,387.458588 332.007660,387.914581 332.396759,388.370575 
	C331.794067,388.618500 331.191345,388.866455 330.299805,389.266937 
z"/>
<path fill="#DAD0D0" opacity="1.000000" stroke="none" 
	d="
M381.932983,308.129761 
	C382.330048,309.098541 382.563446,309.788666 383.046204,311.216156 
	C380.047272,308.418549 380.047272,308.418549 381.932983,308.129761 
z"/>
<path fill="#DACFCD" opacity="1.000000" stroke="none" 
	d="
M379.813599,362.828003 
	C380.578949,361.867493 381.344269,360.906952 382.528503,359.949158 
	C382.947388,359.951904 383.175873,360.146545 383.175873,360.146545 
	C382.411194,361.125732 381.646515,362.104950 380.459045,363.063446 
	C380.036285,363.042725 379.813568,362.828003 379.813599,362.828003 
z"/>
<path fill="#DACFCD" opacity="1.000000" stroke="none" 
	d="
M378.259613,365.258728 
	C377.427032,366.174683 376.594452,367.090607 375.348846,367.966309 
	C374.935822,367.926056 374.737335,367.682922 374.737335,367.682922 
	C375.563171,366.783844 376.389008,365.884796 377.627563,365.010803 
	C378.040314,365.035858 378.259613,365.258728 378.259613,365.258728 
z"/>
<path fill="#DACFCD" opacity="1.000000" stroke="none" 
	d="
M369.823944,370.839996 
	C370.633514,370.214111 371.443085,369.588226 372.651733,369.009460 
	C373.050873,369.056641 373.229614,369.270050 373.229614,369.270081 
	C372.444489,369.901428 371.659363,370.532776 370.451660,371.101501 
	C370.029114,371.038879 369.823944,370.839996 369.823944,370.839996 
z"/>
<path fill="#DACFCD" opacity="1.000000" stroke="none" 
	d="
M321.787720,393.754059 
	C322.563568,393.119751 323.339386,392.485413 324.531311,391.902191 
	C324.947418,391.953308 325.127808,392.129486 325.127808,392.129486 
	C324.330902,392.764496 323.533997,393.399536 322.345093,393.991821 
	C321.953094,393.949066 321.787720,393.754059 321.787720,393.754059 
z"/>
<path fill="#7FA8C4" opacity="1.000000" stroke="none" 
	d="
M375.856323,301.604736 
	C376.361328,301.427765 376.948303,301.478302 377.535278,301.528870 
	C377.456268,301.806641 377.377258,302.084412 377.298279,302.362213 
	C376.844971,302.185547 376.391632,302.008881 375.856323,301.604736 
z"/>
<path fill="#DACFCD" opacity="1.000000" stroke="none" 
	d="
M324.854370,391.868164 
	C325.393127,391.404938 326.024933,391.026825 326.656738,390.648682 
	C326.337341,391.093414 326.017944,391.538116 325.413177,392.056152 
	C325.127808,392.129486 324.947418,391.953308 324.854370,391.868164 
z"/>
<path fill="#7FA8C4" opacity="1.000000" stroke="none" 
	d="
M374.615387,297.761230 
	C374.075500,298.003662 373.468750,298.003662 372.861969,298.003662 
	C372.872681,297.768921 372.883423,297.534210 372.894135,297.299469 
	C373.445587,297.372589 373.997040,297.445679 374.615387,297.761230 
z"/>
<path fill="#7FA8C4" opacity="1.000000" stroke="none" 
	d="
M390.643738,330.742645 
	C390.628967,330.991913 390.495392,331.127838 390.361816,331.263763 
	C390.416199,331.052277 390.470551,330.840790 390.643738,330.742645 
z"/>
<path fill="#DACFCD" opacity="1.000000" stroke="none" 
	d="
M382.832275,359.855621 
	C382.940002,359.244507 383.162872,358.729645 383.605957,358.035492 
	C383.826172,357.856171 384.064636,358.057617 384.188599,358.159149 
	C384.082794,358.772705 383.853027,359.284698 383.399536,359.971619 
	C383.175873,360.146545 382.947388,359.951904 382.832275,359.855621 
z"/>
<path fill="#DACFCD" opacity="1.000000" stroke="none" 
	d="
M375.037415,368.045715 
	C374.683868,368.484314 374.228790,368.803253 373.501648,369.196136 
	C373.229614,369.270050 373.050873,369.056641 372.959381,368.949585 
	C373.313141,368.514038 373.758362,368.185547 374.470459,367.769989 
	C374.737335,367.682922 374.935822,367.926056 375.037415,368.045715 
z"/>
<path fill="#DACFCD" opacity="1.000000" stroke="none" 
	d="
M319.975525,394.967590 
	C320.340912,394.543030 320.790436,394.217865 321.513824,393.823364 
	C321.787720,393.754059 321.953094,393.949066 322.037170,394.047546 
	C321.671112,394.471710 321.221008,394.797363 320.498474,395.195251 
	C320.226044,395.267456 320.059662,395.067017 319.975525,394.967590 
z"/>
<path fill="#DACFCD" opacity="1.000000" stroke="none" 
	d="
M370.128632,371.141357 
	C370.002686,371.408264 369.777222,371.572693 369.551758,371.737122 
	C369.520203,371.515289 369.488678,371.293457 369.640533,370.955811 
	C369.823944,370.839996 370.029114,371.038879 370.128632,371.141357 
z"/>
<path fill="#DAD0D0" opacity="1.000000" stroke="none" 
	d="
M383.596191,312.640869 
	C383.407532,312.664856 383.342834,312.571167 383.278137,312.477478 
	C383.425476,312.492737 383.572845,312.507965 383.596191,312.640869 
z"/>
<path fill="#DAD0D0" opacity="1.000000" stroke="none" 
	d="
M384.404327,314.361145 
	C384.592773,314.337158 384.657196,314.431305 384.721588,314.525452 
	C384.574493,314.510040 384.427399,314.494629 384.404327,314.361145 
z"/>
<path fill="#DACFCD" opacity="1.000000" stroke="none" 
	d="
M377.931458,364.923676 
	C377.955322,364.510712 378.148743,364.256042 378.723450,364.042480 
	C379.044006,364.037567 379.264801,364.258759 379.264801,364.258759 
	C379.147949,364.572876 378.949524,364.822021 378.464600,365.132477 
	C378.259613,365.258728 378.040314,365.035858 377.931458,364.923676 
z"/>
<path fill="#DACFCD" opacity="1.000000" stroke="none" 
	d="
M378.935120,363.925476 
	C378.961090,363.520020 379.155609,363.273834 379.611694,362.951416 
	C379.813568,362.828003 380.036285,363.042725 380.148499,363.154175 
	C380.110168,363.550140 379.909729,363.793518 379.462067,364.127258 
	C379.264801,364.258759 379.044006,364.037567 378.935120,363.925476 
z"/>
<path fill="#DAD0D0" opacity="1.000000" stroke="none" 
	d="
M379.359680,305.636780 
	C379.262238,305.506989 379.598572,305.417511 379.598572,305.417511 
	C379.598572,305.417511 379.457153,305.766541 379.359680,305.636780 
z"/>
<path fill="#DACFCD" opacity="1.000000" stroke="none" 
	d="
M333.642059,386.402039 
	C333.666229,386.591034 333.566864,386.713318 333.480530,386.704712 
	C333.394836,386.696167 333.322296,386.555878 333.243988,386.473389 
	C333.337433,386.408264 333.430847,386.343109 333.642059,386.402039 
z"/>
<path fill="#DACFCD" opacity="1.000000" stroke="none" 
	d="
M335.615967,385.617859 
	C335.397247,385.631104 335.319519,385.547943 335.241791,385.464783 
	C335.413513,385.483673 335.585266,385.502563 335.615967,385.617859 
z"/>
<path fill="#D6CDCE" opacity="1.000000" stroke="none" 
	d="
M155.994110,370.340088 
	C172.735443,375.964966 189.514740,381.855286 206.204163,387.990051 
	C209.879013,389.340851 213.235031,391.559021 216.877197,393.693512 
	C216.519730,394.016418 215.971573,394.167023 215.533569,394.010071 
	C198.673676,387.969788 181.791779,381.987854 165.001007,375.760376 
	C161.812744,374.577881 158.990738,372.407867 155.994110,370.340088 
z"/>
<path fill="#D6CDCE" opacity="1.000000" stroke="none" 
	d="
M135.859650,326.992493 
	C135.070862,337.675598 137.209045,347.753479 142.064499,357.637939 
	C136.327637,351.698883 134.898270,343.833740 134.085876,335.799347 
	C133.822632,333.195953 134.089600,330.538940 134.454712,327.449646 
	C135.150146,326.992737 135.504898,326.992615 135.859650,326.992493 
z"/>
<path fill="#DAD0CF" opacity="1.000000" stroke="none" 
	d="
M135.915421,326.581146 
	C135.504898,326.992615 135.150146,326.992737 134.532135,326.991028 
	C136.287415,320.052734 138.305939,313.116272 140.669342,306.080933 
	C139.333221,312.711304 137.652206,319.440552 135.915421,326.581146 
z"/>
<path fill="#DAD0CF" opacity="1.000000" stroke="none" 
	d="
M144.693329,297.124817 
	C143.866638,299.870361 142.721191,302.759155 141.282837,305.834442 
	C142.118164,303.103302 143.246368,300.185669 144.693329,297.124817 
z"/>
<path fill="#D6CDCE" opacity="1.000000" stroke="none" 
	d="
M147.973236,364.333679 
	C149.000259,364.767395 150.010483,365.547455 151.016602,366.669556 
	C149.993790,366.234406 148.975113,365.457245 147.973236,364.333679 
z"/>
<path fill="#D6CDCE" opacity="1.000000" stroke="none" 
	d="
M218.123413,395.311218 
	C219.236755,395.451385 220.486191,395.911926 221.876221,396.690857 
	C220.764374,396.550018 219.511948,396.090790 218.123413,395.311218 
z"/>
<path fill="#D6CDCE" opacity="1.000000" stroke="none" 
	d="
M152.994232,368.345917 
	C153.916000,368.460999 154.842789,368.934631 155.892670,369.708527 
	C155.010254,369.574036 154.004745,369.139252 152.994232,368.345917 
z"/>
<path fill="#D6CDCE" opacity="1.000000" stroke="none" 
	d="
M222.000122,397.340942 
	C222.921814,397.455139 223.856171,397.923889 224.902313,398.700317 
	C224.013657,398.570496 223.013229,398.132996 222.000122,397.340942 
z"/>
<path fill="#D6CDCE" opacity="1.000000" stroke="none" 
	d="
M228.002274,401.346924 
	C228.174774,400.959808 228.360138,400.930542 228.825989,400.877991 
	C229.686707,401.380676 230.266983,401.906647 230.937988,402.711609 
	C230.024200,402.562012 229.019669,402.133392 228.002274,401.346924 
z"/>
<path fill="#D6CDCE" opacity="1.000000" stroke="none" 
	d="
M143.007324,359.320984 
	C143.645309,359.443359 144.301575,359.898773 144.985474,360.682373 
	C144.350616,360.558380 143.688126,360.106201 143.007324,359.320984 
z"/>
<path fill="#D6CDCE" opacity="1.000000" stroke="none" 
	d="
M226.118988,400.276611 
	C226.571915,400.139557 227.158478,400.289246 227.879913,400.723389 
	C227.427399,400.859650 226.840012,400.711487 226.118988,400.276611 
z"/>
<path fill="#D6CDCE" opacity="1.000000" stroke="none" 
	d="
M151.119522,367.276978 
	C151.569092,367.141357 152.153030,367.292877 152.876282,367.726196 
	C152.428360,367.860016 151.841110,367.712036 151.119522,367.276978 
z"/>
<path fill="#D6CDCE" opacity="1.000000" stroke="none" 
	d="
M147.025269,363.264618 
	C147.286575,363.157227 147.583130,363.326935 147.946472,363.753754 
	C147.695663,363.854492 147.378098,363.698090 147.025269,363.264618 
z"/>
<path fill="#D6CDCE" opacity="1.000000" stroke="none" 
	d="
M146.027328,362.263733 
	C146.285843,362.156067 146.582794,362.325470 146.946106,362.752441 
	C146.696899,362.853577 146.381332,362.697205 146.027328,362.263733 
z"/>
<path fill="#D6CDCE" opacity="1.000000" stroke="none" 
	d="
M142.054092,358.243286 
	C142.298233,358.143188 142.611832,358.300934 142.968964,358.735321 
	C142.716171,358.841675 142.419861,358.671417 142.054092,358.243286 
z"/>
<path fill="#D6CDCE" opacity="1.000000" stroke="none" 
	d="
M231.024261,403.257751 
	C231.328308,403.120575 231.653046,403.270996 232.009155,403.699036 
	C231.708649,403.832886 231.376785,403.689117 231.024261,403.257751 
z"/>
<path fill="#D6CDCE" opacity="1.000000" stroke="none" 
	d="
M232.055862,404.234314 
	C232.371826,404.096283 232.722885,404.234497 233.062866,404.671143 
	C232.731491,404.816559 232.411224,404.663574 232.055862,404.234314 
z"/>
<path fill="#D6CDCE" opacity="1.000000" stroke="none" 
	d="
M225.025085,399.262329 
	C225.304398,399.147247 225.619293,399.306854 225.973526,399.739227 
	C225.695465,399.853668 225.378067,399.695343 225.025085,399.262329 
z"/>
<path fill="#D6CDCE" opacity="1.000000" stroke="none" 
	d="
M217.020874,394.261780 
	C217.307693,394.143158 217.627853,394.300446 217.979675,394.734070 
	C217.692276,394.852814 217.373245,394.695251 217.020874,394.261780 
z"/>
<path fill="#D6CDCE" opacity="1.000000" stroke="none" 
	d="
M145.028931,361.262268 
	C145.287140,361.155121 145.585754,361.323883 145.948868,361.751862 
	C145.698700,361.853424 145.384033,361.695770 145.028931,361.262268 
z"/>
<path fill="#DACFCD" opacity="1.000000" stroke="none" 
	d="
M309.640808,403.614868 
	C309.653351,403.183289 309.864105,402.961395 310.287964,402.630066 
	C310.470154,402.491272 310.813660,402.816864 310.858154,403.187378 
	C310.713135,403.806335 310.474091,403.990601 310.185577,404.110687 
	C310.185577,404.110687 309.808075,403.795197 309.640808,403.614868 
z"/>
<path fill="#85ABC6" opacity="1.000000" stroke="none" 
	d="
M234.142929,428.499146 
	C234.489990,428.044739 234.741684,427.855438 235.023315,427.347382 
	C235.440002,427.022827 235.697235,426.840576 236.022003,426.379120 
	C238.117157,426.124298 240.092529,426.074982 242.490479,426.067841 
	C243.402344,426.679077 243.891647,427.248138 244.624908,427.959106 
	C244.890320,429.758636 244.911774,431.416199 244.900909,433.485718 
	C244.311813,434.399811 243.755035,434.902039 243.058624,435.650269 
	C240.942215,435.913757 238.965454,435.931183 236.572876,435.894501 
	C236.114090,435.156952 236.071106,434.473541 236.286743,433.328186 
	C236.825211,432.660675 236.993088,432.386505 237.296356,431.975098 
	C237.714676,431.624878 237.885666,431.343353 238.329437,431.067596 
	C238.866867,430.938477 239.131485,430.803650 239.396088,430.668793 
	C239.243134,430.498810 238.986954,430.163269 238.953110,430.184357 
	C238.596344,430.406799 238.275009,430.686035 237.694611,431.016479 
	C237.278671,431.369202 237.112061,431.655029 236.699646,431.995056 
	C236.241898,432.301788 236.029938,432.554321 235.817963,432.806854 
	C235.253571,431.493561 234.689178,430.180298 234.142929,428.499146 
z"/>
<path fill="#7FA8C4" opacity="1.000000" stroke="none" 
	d="
M310.311096,404.345825 
	C310.474091,403.990601 310.713135,403.806335 311.018494,403.361450 
	C311.563446,403.391266 311.992554,403.617523 312.421692,403.843811 
	C311.760010,404.089508 311.098297,404.335205 310.311096,404.345825 
z"/>
<path fill="#81A9C5" opacity="1.000000" stroke="none" 
	d="
M304.185242,427.613312 
	C304.530304,427.074036 304.771515,426.889282 305.085815,426.448547 
	C312.395996,425.500488 313.251740,425.988129 314.475433,431.908051 
	C312.832306,431.640381 311.336853,431.396759 308.802582,430.983917 
	C310.603210,432.433411 311.679932,433.300140 312.756653,434.166901 
	C312.739014,434.602295 312.721344,435.037689 312.703674,435.473083 
	C310.475372,435.607819 308.247040,435.742554 305.618988,435.803040 
	C305.075226,435.454132 304.880646,435.221832 304.440582,434.915833 
	C304.206818,432.543243 304.167999,430.286713 304.185242,427.613312 
z"/>
<path fill="#DCD1D0" opacity="1.000000" stroke="none" 
	d="
M237.943909,430.949615 
	C238.275009,430.686035 238.596344,430.406799 238.953110,430.184357 
	C238.986954,430.163269 239.243134,430.498810 239.396088,430.668793 
	C239.131485,430.803650 238.866867,430.938477 238.301239,431.037354 
	C238.000229,431.001343 237.943909,430.949615 237.943909,430.949615 
z"/>
<path fill="#DCD1D0" opacity="1.000000" stroke="none" 
	d="
M235.890762,432.881958 
	C236.029938,432.554321 236.241898,432.301788 236.724579,432.021759 
	C236.995316,431.994263 237.049042,432.043762 237.049042,432.043762 
	C236.993088,432.386505 236.825211,432.660675 236.330048,432.983948 
	C236.114700,433.101685 235.963547,432.957092 235.890762,432.881958 
z"/>
<path fill="#DCD1D0" opacity="1.000000" stroke="none" 
	d="
M236.970383,431.967560 
	C237.112061,431.655029 237.278671,431.369202 237.694611,431.016479 
	C237.943909,430.949615 238.000229,431.001343 238.028442,431.031616 
	C237.885666,431.343353 237.714676,431.624878 237.296356,431.975098 
	C237.049042,432.043762 236.995316,431.994263 236.970383,431.967560 
z"/>
</svg>