<svg version="1.1" id="Layer_1" xmlns="http://www.w3.org/2000/svg" xmlns:xlink="http://www.w3.org/1999/xlink" x="0px" y="0px"
	 width="100%" viewBox="0 0 512 512" enable-background="new 0 0 512 512" xml:space="preserve">
<path fill="#FEFEFE" opacity="1.000000" stroke="none" 
	d="
M1.000001,289.000000 
	C1.000000,267.979095 1.000000,246.958206 1.368744,225.770966 
	C2.156846,224.764999 2.773997,223.968140 2.965955,223.079422 
	C5.956179,209.235382 8.288104,195.216217 11.981874,181.564850 
	C17.412313,161.495132 26.175539,142.773392 36.948395,124.942886 
	C51.374458,101.065811 69.296928,80.275078 90.369064,62.054169 
	C109.444122,45.560123 130.475861,32.229916 153.531815,22.102932 
	C175.754684,12.341871 198.855667,5.681001 223.031647,2.921971 
	C223.751511,2.839818 224.346695,1.665247 225.000000,1.000003 
	C246.020889,1.000000 267.041779,1.000000 288.229553,1.364559 
	C289.233551,2.151263 290.030701,2.809707 290.913910,2.958855 
	C299.375458,4.387761 307.998871,5.138801 316.296906,7.204691 
	C345.956268,14.588717 373.716736,26.464714 399.136047,43.595104 
	C417.828705,56.192310 434.556091,70.917915 449.524994,87.850746 
	C466.045258,106.538544 479.418976,127.143951 489.934814,149.649658 
	C500.834320,172.976517 508.141937,197.379349 511.077850,223.031067 
	C511.160309,223.751266 512.334717,224.346512 513.000000,225.000000 
	C513.000000,246.020889 513.000000,267.041779 512.635376,288.229553 
	C511.848633,289.233429 511.226013,290.027100 511.034485,290.913910 
	C508.043701,304.760040 505.795868,318.809082 502.012360,332.432404 
	C494.950653,357.859528 483.129517,381.102966 468.106232,402.845917 
	C455.411255,421.219147 440.378937,437.313507 423.610291,451.926300 
	C405.598480,467.622314 385.625824,480.123505 363.906250,490.103882 
	C340.605927,500.810638 316.359039,507.810760 290.969452,511.076508 
	C290.242523,511.170044 289.653381,512.334778 289.000000,513.000000 
	C267.979095,513.000000 246.958206,513.000000 225.770447,512.635437 
	C224.933395,511.853485 224.306107,511.177521 223.586517,511.058197 
	C214.961243,509.627930 206.164932,508.907684 197.717361,506.789337 
	C175.264450,501.158905 153.711578,493.114990 133.345078,481.878723 
	C112.304733,470.270691 93.192360,456.079041 76.102829,439.345032 
	C67.134979,430.563751 59.126518,420.700714 51.416439,410.758789 
	C36.642426,391.708191 25.336134,370.626831 17.001701,348.004242 
	C10.136809,329.370544 4.621873,310.382172 2.905209,290.466339 
	C2.858706,289.926849 1.660919,289.486542 1.000001,289.000000 
M411.001038,445.684814 
	C422.032318,434.845001 434.130280,424.884644 443.914642,413.016815 
	C492.516510,354.066101 511.241486,286.248352 496.409424,211.412003 
	C479.545532,126.324089 429.332092,66.567604 349.453979,32.430550 
	C323.247894,21.230993 295.590210,15.526041 266.040894,15.030082 
	C259.969635,15.066930 253.898346,15.103778 246.958023,15.098272 
	C237.050064,16.124315 227.022919,16.498198 217.253799,18.283821 
	C160.195251,28.713127 112.184784,55.496151 74.651161,99.834297 
	C27.129986,155.970627 8.946880,221.125153 19.359222,293.641052 
	C27.611296,351.111908 54.572334,399.268646 97.841026,437.923340 
	C108.308220,447.274353 120.470360,454.728119 132.179214,463.664154 
	C189.620880,498.252686 251.118652,507.570526 316.228699,492.438538 
	C351.166595,484.318756 382.593262,468.589783 411.001038,445.684814 
z"/>
<path fill="#000000" opacity="1.000000" stroke="none" 
	d="
M513.000000,224.531342 
	C512.334717,224.346512 511.160309,223.751266 511.077850,223.031067 
	C508.141937,197.379349 500.834320,172.976517 489.934814,149.649658 
	C479.418976,127.143951 466.045258,106.538544 449.524994,87.850746 
	C434.556091,70.917915 417.828705,56.192310 399.136047,43.595104 
	C373.716736,26.464714 345.956268,14.588717 316.296906,7.204691 
	C307.998871,5.138801 299.375458,4.387761 290.913910,2.958855 
	C290.030701,2.809707 289.233551,2.151263 288.698242,1.364559 
	C363.593719,1.000000 438.187408,1.000000 513.000000,1.000000 
	C513.000000,75.354088 513.000000,149.708389 513.000000,224.531342 
z"/>
<path fill="#000000" opacity="1.000000" stroke="none" 
	d="
M289.468658,513.000000 
	C289.653381,512.334778 290.242523,511.170044 290.969452,511.076508 
	C316.359039,507.810760 340.605927,500.810638 363.906250,490.103882 
	C385.625824,480.123505 405.598480,467.622314 423.610291,451.926300 
	C440.378937,437.313507 455.411255,421.219147 468.106232,402.845917 
	C483.129517,381.102966 494.950653,357.859528 502.012360,332.432404 
	C505.795868,318.809082 508.043701,304.760040 511.034485,290.913910 
	C511.226013,290.027100 511.848633,289.233429 512.635376,288.698242 
	C513.000000,363.593719 513.000000,438.187408 513.000000,513.000000 
	C438.645905,513.000000 364.291626,513.000000 289.468658,513.000000 
z"/>
<path fill="#000000" opacity="1.000000" stroke="none" 
	d="
M224.531342,1.000003 
	C224.346695,1.665247 223.751511,2.839818 223.031647,2.921971 
	C198.855667,5.681001 175.754684,12.341871 153.531815,22.102932 
	C130.475861,32.229916 109.444122,45.560123 90.369064,62.054169 
	C69.296928,80.275078 51.374458,101.065811 36.948395,124.942886 
	C26.175539,142.773392 17.412313,161.495132 11.981874,181.564850 
	C8.288104,195.216217 5.956179,209.235382 2.965955,223.079422 
	C2.773997,223.968140 2.156846,224.764999 1.368744,225.302307 
	C1.000000,150.406296 1.000000,75.812576 1.000000,1.000000 
	C75.354088,1.000000 149.708389,1.000000 224.531342,1.000003 
z"/>
<path fill="#000000" opacity="1.000000" stroke="none" 
	d="
M1.000001,289.468658 
	C1.660919,289.486542 2.858706,289.926849 2.905209,290.466339 
	C4.621873,310.382172 10.136809,329.370544 17.001701,348.004242 
	C25.336134,370.626831 36.642426,391.708191 51.416439,410.758789 
	C59.126518,420.700714 67.134979,430.563751 76.102829,439.345032 
	C93.192360,456.079041 112.304733,470.270691 133.345078,481.878723 
	C153.711578,493.114990 175.264450,501.158905 197.717361,506.789337 
	C206.164932,508.907684 214.961243,509.627930 223.586517,511.058197 
	C224.306107,511.177521 224.933395,511.853485 225.301788,512.635437 
	C150.406296,513.000000 75.812599,513.000000 1.000000,513.000000 
	C1.000000,438.645905 1.000000,364.291626 1.000001,289.468658 
z"/>
<path fill="#FFC17D" opacity="1.000000" stroke="none" 
	d="
M247.827072,15.140626 
	C253.898346,15.103778 259.969635,15.066930 266.787811,15.304335 
	C290.431396,20.963202 307.452728,33.531517 316.457123,55.877548 
	C317.274689,55.762100 317.922943,55.692051 318.563141,55.576992 
	C332.092316,53.145386 344.060150,55.722023 353.267578,66.669136 
	C356.365967,70.352951 359.181091,74.279373 362.049164,78.151604 
	C367.479370,85.483116 374.666779,89.835060 383.722992,90.967316 
	C389.813141,91.728729 395.932373,92.257675 402.022278,93.020714 
	C414.142456,94.539330 423.486816,100.652466 430.282166,110.658096 
	C438.302307,122.467117 438.307434,135.135239 434.422211,148.388107 
	C432.143860,156.159851 430.687500,164.172546 428.627686,172.183868 
	C428.553253,173.110199 428.712524,173.929504 428.870850,175.192001 
	C428.826050,182.699387 431.482697,188.639786 436.652557,193.351059 
	C440.454681,196.815979 444.339264,200.240631 448.498383,203.253464 
	C457.967560,210.112854 465.306976,218.532562 467.935486,230.135498 
	C471.811829,247.246689 468.294098,262.585785 455.320618,274.949371 
	C446.497589,283.357635 440.756073,293.298004 437.701141,305.076965 
	C435.829559,312.293427 433.558533,319.489807 430.604279,326.322235 
	C426.223724,336.453339 419.658752,344.957794 407.771973,346.432709 
	C402.626434,347.071167 397.086670,346.556244 392.011658,345.356537 
	C377.321625,341.884003 364.610474,343.997162 354.805023,356.448334 
	C354.191864,357.226929 353.409729,357.876740 352.680267,358.558716 
	C338.532715,371.786102 324.598175,376.483215 306.282654,365.415466 
	C305.125946,364.716461 302.933380,365.731598 301.199219,365.605530 
	C300.548126,362.108215 299.920563,358.954620 299.365692,355.637146 
	C299.403564,355.212341 299.267639,355.024445 299.059753,354.529297 
	C298.676788,352.432861 298.264679,350.716705 297.903137,348.779419 
	C297.953674,348.558228 297.892700,348.108612 297.876709,347.718750 
	C297.143036,345.177917 296.425354,343.026947 295.798706,340.466309 
	C295.352112,336.451019 294.814423,332.845398 294.677643,329.102966 
	C300.124878,327.335358 305.298798,326.015839 310.191742,324.010651 
	C321.297852,319.459137 331.876831,314.091248 339.438599,304.156219 
	C345.067780,296.760284 346.864075,288.010284 348.990295,279.347504 
	C350.792297,272.005585 352.406860,264.617676 354.152527,257.041107 
	C356.122284,257.417664 357.552368,257.691010 359.292145,258.130615 
	C364.163452,262.076385 365.886444,261.866425 370.443481,257.029907 
	C381.996399,256.294037 389.927063,249.856430 396.576813,241.796417 
	C405.558258,230.910217 409.967133,213.341415 398.351593,200.974304 
	C399.150787,200.256409 399.623291,199.699509 400.095764,199.142609 
	C399.474060,198.857819 398.848083,198.330795 398.231598,198.341721 
	C397.148743,198.360886 396.071747,198.709305 394.779419,198.657532 
	C390.470123,196.682404 386.507294,194.435715 382.248901,193.369781 
	C373.832367,191.263000 365.180817,195.286804 360.623749,202.609726 
	C357.860077,207.050797 354.957092,211.405167 352.116699,215.798492 
	C351.635437,215.720322 351.154175,215.642166 350.672913,215.564011 
	C349.115356,209.338913 347.724915,203.064682 345.916138,196.913483 
	C345.215179,194.529633 343.952362,192.065292 342.272919,190.265106 
	C338.569427,186.295349 333.914368,183.136642 330.587494,178.907608 
	C322.883392,169.114410 319.058167,157.876404 321.857849,145.378006 
	C323.478699,138.142212 326.463318,131.223053 328.420624,124.048561 
	C330.669037,115.807007 327.744202,109.862297 320.041229,106.016861 
	C318.263306,105.129288 316.380829,104.448479 314.536560,103.696907 
	C305.459290,99.997765 299.018311,93.624222 297.336914,83.909592 
	C296.314301,78.001343 297.148285,71.771751 297.148285,65.376389 
	C292.467072,63.883205 287.489990,62.052654 282.382996,60.719913 
	C273.248474,58.336128 264.329803,62.302830 260.195404,70.666000 
	C257.846863,75.416695 255.828659,80.366150 254.086151,85.373795 
	C250.173813,96.617119 243.619476,105.110138 231.940643,109.234238 
	C222.962143,112.404770 214.314423,110.964912 205.534775,108.717232 
	C194.687378,105.940193 187.600616,110.049263 185.082779,120.863976 
	C183.963501,125.671501 183.403503,130.657623 183.088120,135.594513 
	C182.257370,148.598984 175.422638,156.692993 163.327423,160.789795 
	C152.799911,164.355591 150.260956,167.871338 151.068054,178.792191 
	C151.542572,185.213028 153.019623,191.565247 153.395996,197.986404 
	C153.813690,205.112961 153.491547,212.282883 153.491547,219.433914 
	C152.909927,219.476273 152.328308,219.518631 151.746704,219.560989 
	C149.798447,215.612610 147.474533,211.799988 145.987656,207.684891 
	C143.599533,201.075546 138.484726,198.804260 132.344177,199.157135 
	C126.821129,199.474518 121.373718,201.108154 115.537598,202.060257 
	C114.151611,201.629807 113.120995,201.300308 112.090378,200.970795 
	C111.672714,201.534622 111.255051,202.098434 110.837387,202.662262 
	C112.042099,203.348755 113.246811,204.035263 114.077881,204.794479 
	C106.722977,209.104492 101.815102,219.431503 103.185005,227.038330 
	C106.577812,245.878006 117.244011,258.089630 136.110229,263.280945 
	C139.906921,269.311401 143.333252,269.419739 148.332108,263.960358 
	C150.452148,263.670074 152.189331,263.386139 153.947220,263.517181 
	C156.339432,274.612518 158.710922,285.292877 161.097458,296.346802 
	C165.256546,312.899078 174.881271,323.237457 191.525269,327.482300 
	C205.558075,331.061188 219.650040,333.424622 234.038742,334.504517 
	C234.055084,337.574951 234.106842,340.208435 234.112732,343.315308 
	C234.081833,347.571869 234.096817,351.355042 234.093475,355.590607 
	C233.830399,361.724060 233.585678,367.405151 233.206299,373.380005 
	C232.324158,374.426971 231.576675,375.180176 230.483704,376.010498 
	C225.116989,378.116547 220.095734,380.145477 214.633270,382.089233 
	C201.115051,382.204102 190.580933,377.162109 181.663040,367.541199 
	C172.548294,357.707916 165.096191,356.517578 152.977676,361.568146 
	C149.457764,363.035095 145.947464,364.561432 142.564789,366.315186 
	C127.396469,374.179413 113.207764,372.900879 99.979279,362.003601 
	C99.988167,362.014954 100.010361,362.034332 99.875916,361.724731 
	C90.177170,351.111298 86.715340,339.026428 88.656250,325.126099 
	C90.466759,312.159729 89.183876,299.843628 79.523621,289.746338 
	C77.918205,288.068298 76.570854,286.146027 75.004974,284.427063 
	C55.826153,263.373413 49.463074,239.028931 56.786812,211.464661 
	C62.797890,188.840805 77.105186,172.202347 96.050659,159.399231 
	C96.734222,159.623306 97.700150,159.779083 97.924805,159.441513 
	C98.742256,158.213272 99.311760,156.819977 100.294044,155.313354 
	C103.116570,151.790848 105.619789,148.443893 108.519768,145.067841 
	C111.299713,144.601471 113.682915,144.164215 115.992508,143.740479 
	C114.143875,142.750015 112.316124,141.770752 110.598602,140.379425 
	C111.155426,135.342300 111.769943,130.725998 112.012062,126.090248 
	C112.454117,117.626366 111.749588,108.992294 113.168419,100.711075 
	C116.940498,78.694908 128.190948,61.559036 148.346695,50.830780 
	C158.536713,45.406967 169.496582,45.573132 180.507187,45.834175 
	C193.684753,46.146599 205.373764,42.577385 215.267624,33.463551 
	C224.642380,24.827904 234.928802,17.610722 247.827072,15.140626 
z"/>
<path fill="#341611" opacity="1.000000" stroke="none" 
	d="
M215.074493,382.174438 
	C220.095734,380.145477 225.116989,378.116547 230.826080,376.066528 
	C232.975662,377.061493 234.437424,378.077606 235.932434,379.487854 
	C236.391769,381.298157 236.817825,382.714355 237.366501,384.442078 
	C241.357697,392.563507 245.226288,400.373413 249.094864,408.183289 
	C249.585526,407.932098 250.076187,407.680908 250.566849,407.429688 
	C246.376938,399.509277 242.187027,391.588837 237.993149,383.336304 
	C237.343826,381.660492 236.698486,380.316803 236.006836,378.638184 
	C235.087326,376.564209 234.214142,374.825226 233.340942,373.086212 
	C233.585678,367.405151 233.830399,361.724060 234.506256,355.504272 
	C240.927261,354.276245 246.917130,353.586975 253.333649,352.968445 
	C260.011353,352.321808 266.271027,351.671082 272.510590,350.864624 
	C277.037598,350.279541 281.537933,349.488342 286.479004,348.857178 
	C289.731293,348.887451 292.554779,348.849609 295.789490,348.862610 
	C296.751343,348.942474 297.301971,348.971527 297.852570,349.000580 
	C298.264679,350.716705 298.676788,352.432861 299.074280,354.686096 
	C299.100586,355.430664 299.178345,355.623291 299.292969,355.800995 
	C299.920563,358.954620 300.548126,362.108215 301.193909,365.843079 
	C301.212128,366.424286 301.121338,366.890625 300.875793,367.056915 
	C300.734344,368.130219 300.838501,369.037201 300.649017,370.000427 
	C300.210266,371.019165 300.065155,371.981689 299.611084,373.005859 
	C299.140350,374.184143 298.978577,375.300751 298.538239,376.574036 
	C294.004059,389.068909 289.748444,401.407104 285.153503,413.953796 
	C282.478668,420.057465 279.881439,425.882568 279.101654,432.194427 
	C279.652710,432.358398 280.203766,432.522369 280.754852,432.686340 
	C282.586700,426.506134 284.418549,420.325958 286.287170,413.868622 
	C290.501709,401.223480 294.679474,388.855469 299.093964,376.185394 
	C299.568909,374.931549 299.807098,373.979828 300.294495,372.815002 
	C300.716736,371.754700 300.889832,370.907532 301.311279,369.861603 
	C302.385406,369.099609 303.211212,368.536377 304.370789,368.077332 
	C309.150574,370.424866 313.493530,372.908783 318.061951,374.866455 
	C331.808899,380.757568 345.498993,386.825256 359.475677,392.127045 
	C385.217255,401.891632 400.244507,421.520447 410.441223,445.872345 
	C382.593262,468.589783 351.166595,484.318756 316.228699,492.438538 
	C251.118652,507.570526 189.620880,498.252686 132.137146,462.977783 
	C132.759094,459.205475 133.538544,456.139221 134.067856,453.030396 
	C136.899597,436.398346 143.122360,421.673340 157.748215,411.922699 
	C165.205765,406.950989 172.693024,401.893677 180.661499,397.849823 
	C191.891922,392.150604 203.581345,387.355896 215.074493,382.174438 
M281.101532,460.318298 
	C281.197510,460.362183 281.293488,460.406067 281.389496,460.449921 
	C281.277588,460.285919 281.165649,460.121948 281.027985,459.273987 
	C280.347931,458.331146 279.667877,457.388306 278.987823,456.445465 
	C278.627258,456.775513 278.266693,457.105560 277.906128,457.435638 
	C278.925537,458.305786 279.944977,459.175903 281.101532,460.318298 
M264.960175,460.741119 
	C265.082764,461.500092 265.205353,462.259064 265.327942,463.018036 
	C265.601288,462.936707 265.874634,462.855408 266.147980,462.774109 
	C265.785858,461.836212 265.423737,460.898315 265.421600,459.433472 
	C266.158691,458.184418 266.895782,456.935364 267.632874,455.686310 
	C267.066193,455.478577 266.499481,455.270844 265.932770,455.063110 
	C265.595367,456.733795 265.257996,458.404510 264.960175,460.741119 
M270.093414,470.367310 
	C270.200470,470.403076 270.307526,470.438873 270.414581,470.474640 
	C270.312805,470.289978 270.211029,470.105316 269.991425,469.236877 
	C268.509766,467.766357 267.028107,466.295837 265.546448,464.825287 
	C265.214325,465.234619 264.882202,465.643921 264.550110,466.053223 
	C266.342377,467.402679 268.134644,468.752136 270.093414,470.367310 
M280.304657,464.085449 
	C278.221283,465.712677 276.137878,467.339874 274.054504,468.967102 
	C274.760193,469.587921 275.465912,470.208710 276.171600,470.829529 
	C277.790833,468.560608 279.410065,466.291718 281.301605,463.898407 
	C281.193939,463.923157 281.086243,463.947906 280.304657,464.085449 
M270.731323,450.430573 
	C271.435638,450.839478 272.139984,451.248383 272.844299,451.657288 
	C272.997070,451.212646 273.149872,450.768005 273.302643,450.323334 
	C272.433228,450.155945 271.563812,449.988556 270.137207,449.363403 
	C266.492249,441.122650 262.847321,432.881866 259.202362,424.641113 
	C258.555115,424.964447 257.907898,425.287811 257.260651,425.611176 
	C261.742889,433.686157 266.225128,441.761169 270.731323,450.430573 
M273.835938,453.516388 
	C273.356262,453.661469 272.876617,453.806580 272.396942,453.951660 
	C272.672272,454.258759 272.947632,454.565826 273.222992,454.872955 
	C273.560547,454.557953 273.898132,454.242950 273.835938,453.516388 
M279.522278,435.505066 
	C279.147980,435.296143 278.790680,434.996643 278.391235,434.921570 
	C278.224976,434.890350 277.968811,435.337555 277.753510,435.567169 
	C278.209656,435.646851 278.665833,435.726532 279.522278,435.505066 
M274.401642,446.872803 
	C274.327911,447.207611 274.254211,447.542389 274.180481,447.877228 
	C274.636230,447.740417 275.091949,447.603638 275.547668,447.466827 
	C275.317261,447.200043 275.086853,446.933228 274.401642,446.872803 
M276.392426,443.630188 
	C275.856995,443.888702 275.321564,444.147217 274.786133,444.405731 
	C274.894592,444.619659 275.003021,444.833557 275.111481,445.047485 
	C275.636383,444.708435 276.161255,444.369385 276.392426,443.630188 
M277.521973,441.505066 
	C277.147675,441.296173 276.790375,440.996765 276.390930,440.921722 
	C276.224701,440.890503 275.968567,441.337677 275.753296,441.567291 
	C276.209442,441.646942 276.665619,441.726593 277.521973,441.505066 
M278.392609,437.630066 
	C277.857086,437.888641 277.321564,438.147217 276.786072,438.405792 
	C276.906799,438.611786 277.027557,438.817780 277.148315,439.023804 
	C277.660980,438.692657 278.173645,438.361481 278.392609,437.630066 
M276.230316,455.185791 
	C276.408264,455.126648 276.586182,455.067505 276.764130,455.008362 
	C276.585052,454.950989 276.405945,454.893585 276.230316,455.185791 
M253.000000,413.500000 
	C252.800110,413.366608 252.600220,413.233215 252.400330,413.099792 
	C252.433548,413.399872 252.466782,413.699921 253.000000,413.500000 
M250.499985,409.000000 
	C250.466934,409.300171 250.433884,409.600342 250.400864,409.900543 
	C250.600586,409.767029 250.800308,409.633545 250.499985,409.000000 
M257.998871,423.500000 
	C257.799133,423.366791 257.599396,423.233551 257.399658,423.100342 
	C257.433105,423.400238 257.466553,423.700104 257.998871,423.500000 
M256.998871,421.500000 
	C256.799133,421.366760 256.599396,421.233551 256.399658,421.100342 
	C256.433105,421.400238 256.466553,421.700104 256.998871,421.500000 
M255.500000,419.000000 
	C255.366669,419.200012 255.233337,419.399994 255.100006,419.600006 
	C255.400009,419.566681 255.699997,419.533325 255.500000,419.000000 
M254.000092,417.500000 
	C254.200073,417.633331 254.400040,417.766632 254.600037,417.899963 
	C254.566696,417.599976 254.533356,417.299988 254.000092,417.500000 
M253.499985,416.000000 
	C253.633362,415.800018 253.766724,415.600037 253.900101,415.400055 
	C253.600189,415.433380 253.300293,415.466675 253.499985,416.000000 
M251.001511,411.500000 
	C251.201157,411.633179 251.400803,411.766357 251.600449,411.899536 
	C251.566971,411.599701 251.533478,411.299835 251.001511,411.500000 
z"/>
<path fill="#7FA8C5" opacity="1.000000" stroke="none" 
	d="
M214.633270,382.089233 
	C203.581345,387.355896 191.891922,392.150604 180.661499,397.849823 
	C172.693024,401.893677 165.205765,406.950989 157.748215,411.922699 
	C143.122360,421.673340 136.899597,436.398346 134.067856,453.030396 
	C133.538544,456.139221 132.759094,459.205475 131.974091,462.672852 
	C120.470360,454.728119 108.308220,447.274353 97.841026,437.923340 
	C54.572334,399.268646 27.611296,351.111908 19.359222,293.641052 
	C8.946880,221.125153 27.129986,155.970627 74.651161,99.834297 
	C112.184784,55.496151 160.195251,28.713127 217.253799,18.283821 
	C227.022919,16.498198 237.050064,16.124315 247.392548,15.119450 
	C234.928802,17.610722 224.642380,24.827904 215.267624,33.463551 
	C205.373764,42.577385 193.684753,46.146599 180.507187,45.834175 
	C169.496582,45.573132 158.536713,45.406967 148.346695,50.830780 
	C128.190948,61.559036 116.940498,78.694908 113.168419,100.711075 
	C111.749588,108.992294 112.454117,117.626366 112.012062,126.090248 
	C111.769943,130.725998 111.155426,135.342300 110.285019,140.434250 
	C105.061775,139.852417 102.531586,136.871017 101.864662,132.003677 
	C101.404236,128.643372 100.539001,125.338531 99.621651,120.875160 
	C94.399651,139.593048 96.697960,138.797852 79.698898,140.602173 
	C89.594025,142.986450 97.499947,147.056625 95.992882,159.104553 
	C77.105186,172.202347 62.797890,188.840805 56.786812,211.464661 
	C49.463074,239.028931 55.826153,263.373413 75.004974,284.427063 
	C76.570854,286.146027 77.918205,288.068298 79.523621,289.746338 
	C89.183876,299.843628 90.466759,312.159729 88.656250,325.126099 
	C86.715340,339.026428 90.177170,351.111298 99.467796,361.800293 
	C93.994713,361.528748 88.420685,360.641113 85.994186,355.584076 
	C83.886162,351.190735 83.431923,346.003845 82.097549,340.558472 
	C80.990303,344.491302 79.847137,347.918518 79.079216,351.427795 
	C77.929367,356.682526 74.498802,358.807037 69.478592,358.965607 
	C67.027237,359.043030 64.571419,358.979004 62.117619,358.979004 
	C61.885670,359.469940 61.653721,359.960846 61.421772,360.451782 
	C74.363579,361.626740 80.137672,368.658539 79.208839,381.298340 
	C80.433426,379.082886 81.371323,377.151459 81.877998,375.112885 
	C83.845764,367.195557 88.672684,363.316742 96.961838,363.761292 
	C97.930283,363.813263 98.965912,362.612366 99.970398,361.992279 
	C113.207764,372.900879 127.396469,374.179413 142.564789,366.315186 
	C145.947464,364.561432 149.457764,363.035095 152.977676,361.568146 
	C165.096191,356.517578 172.548294,357.707916 181.663040,367.541199 
	C190.580933,377.162109 201.115051,382.204102 214.633270,382.089233 
M162.927200,378.563324 
	C157.485153,380.674347 155.457962,384.846405 157.712494,389.295502 
	C159.569260,392.959686 164.614777,394.634094 167.809616,391.831757 
	C169.671555,390.198547 170.902344,386.866119 170.894272,384.302979 
	C170.881134,380.125031 167.368820,378.779114 162.927200,378.563324 
M43.843918,260.516510 
	C44.706676,260.040436 45.660000,259.676941 46.416264,259.068512 
	C49.421280,256.650879 50.009506,253.385574 48.330666,250.200546 
	C46.576542,246.872711 43.470894,245.189072 39.579754,246.416885 
	C35.873138,247.586487 34.473892,250.496170 34.892262,254.165497 
	C35.438946,258.960175 38.538723,260.853394 43.843918,260.516510 
z"/>
<path fill="#7FA8C5" opacity="1.000000" stroke="none" 
	d="
M301.121338,366.890625 
	C301.121338,366.890625 301.212128,366.424286 301.217407,366.186768 
	C302.933380,365.731598 305.125946,364.716461 306.282654,365.415466 
	C324.598175,376.483215 338.532715,371.786102 352.680267,358.558716 
	C353.409729,357.876740 354.191864,357.226929 354.805023,356.448334 
	C364.610474,343.997162 377.321625,341.884003 392.011658,345.356537 
	C397.086670,346.556244 402.626434,347.071167 407.771973,346.432709 
	C419.658752,344.957794 426.223724,336.453339 430.604279,326.322235 
	C433.558533,319.489807 435.829559,312.293427 437.701141,305.076965 
	C440.756073,293.298004 446.497589,283.357635 455.320618,274.949371 
	C468.294098,262.585785 471.811829,247.246689 467.935486,230.135498 
	C465.306976,218.532562 457.967560,210.112854 448.498383,203.253464 
	C444.339264,200.240631 440.454681,196.815979 436.652557,193.351059 
	C431.482697,188.639786 428.826050,182.699387 429.269348,175.246735 
	C439.635284,177.675064 441.211365,179.321304 442.029755,187.783066 
	C442.141449,188.937912 442.140381,190.112640 442.360687,191.245239 
	C442.548248,192.209229 442.979675,193.125763 443.717285,195.263046 
	C446.179321,183.848251 449.801178,175.038345 463.467102,176.490753 
	C450.492126,174.855133 446.561554,166.564148 446.168884,154.927124 
	C443.138245,164.031494 442.295929,174.591599 428.861389,172.076843 
	C430.687500,164.172546 432.143860,156.159851 434.422211,148.388107 
	C438.307434,135.135239 438.302307,122.467117 430.282166,110.658096 
	C423.486816,100.652466 414.142456,94.539330 402.022278,93.020714 
	C395.932373,92.257675 389.813141,91.728729 383.722992,90.967316 
	C374.666779,89.835060 367.479370,85.483116 362.049164,78.151604 
	C359.181091,74.279373 356.365967,70.352951 353.267578,66.669136 
	C344.060150,55.722023 332.092316,53.145386 318.563141,55.576992 
	C317.922943,55.692051 317.274689,55.762100 316.457123,55.877548 
	C307.452728,33.531517 290.431396,20.963202 267.253784,15.333191 
	C295.590210,15.526041 323.247894,21.230993 349.453979,32.430550 
	C429.332092,66.567604 479.545532,126.324089 496.409424,211.412003 
	C511.241486,286.248352 492.516510,354.066101 443.914642,413.016815 
	C434.130280,424.884644 422.032318,434.845001 410.721130,445.778564 
	C400.244507,421.520447 385.217255,401.891632 359.475677,392.127045 
	C345.498993,386.825256 331.808899,380.757568 318.061951,374.866455 
	C313.493530,372.908783 309.150574,370.424866 304.192322,367.793457 
	C302.827179,367.233765 301.974274,367.062195 301.121338,366.890625 
M419.781036,363.184723 
	C418.486237,374.044281 410.722351,375.001038 400.860504,373.886658 
	C406.715637,376.893188 412.476715,378.199982 415.369995,381.807068 
	C418.195953,385.330200 418.094360,391.201569 419.502228,396.959564 
	C422.212921,386.017029 425.576538,376.809387 439.044708,379.089966 
	C434.342224,376.320892 428.838806,374.678345 426.043640,370.985748 
	C423.235809,367.276337 423.125488,361.525055 421.611298,355.835419 
	C420.912445,358.601074 420.430328,360.508972 419.781036,363.184723 
M455.733246,291.089661 
	C451.670807,291.829102 449.140045,294.819336 449.553925,298.345673 
	C449.850159,300.869720 452.498566,304.173706 454.876160,305.074432 
	C456.899780,305.841064 460.805267,304.422180 462.526245,302.654205 
	C466.727570,298.338013 463.576782,292.626678 455.733246,291.089661 
M346.510223,54.080822 
	C352.308624,53.129055 355.469421,48.474689 353.307678,44.024521 
	C351.613678,40.537262 348.402527,38.751591 345.119446,40.166374 
	C342.657867,41.227135 339.839874,44.140503 339.409058,46.616768 
	C338.734222,50.495544 341.363647,53.451687 346.510223,54.080822 
z"/>
<path fill="#FF8476" opacity="1.000000" stroke="none" 
	d="
M358.982422,257.964386 
	C357.552368,257.691010 356.122284,257.417664 354.152527,257.041107 
	C352.406860,264.617676 350.792297,272.005585 348.990295,279.347504 
	C346.864075,288.010284 345.067780,296.760284 339.438599,304.156219 
	C331.876831,314.091248 321.297852,319.459137 310.191742,324.010651 
	C305.298798,326.015839 300.124878,327.335358 294.343506,329.072327 
	C274.022217,333.955933 254.101242,334.657959 234.074142,334.067627 
	C219.650040,333.424622 205.558075,331.061188 191.525269,327.482300 
	C174.881271,323.237457 165.256546,312.899078 161.437393,296.393463 
	C169.709686,301.972229 177.936264,306.421082 188.500320,306.141235 
	C208.614059,305.608521 225.063354,284.749664 220.548309,265.015289 
	C217.301254,250.822922 204.435013,236.461227 183.627502,237.811905 
	C170.744431,238.648163 156.125748,250.299683 153.926498,263.102203 
	C152.189331,263.386139 150.452148,263.670074 148.329041,263.571289 
	C147.985870,259.188721 146.230133,256.290771 142.106491,256.194550 
	C137.939484,256.097321 136.202682,259.059296 135.951401,262.964447 
	C117.244011,258.089630 106.577812,245.878006 103.185005,227.038330 
	C101.815102,219.431503 106.722977,209.104492 114.402771,204.874741 
	C131.866516,214.868179 142.913300,229.806717 151.389420,247.150986 
	C151.594574,245.049393 151.123199,243.393860 150.443039,241.829086 
	C143.113174,224.965897 131.156937,212.120239 115.892952,202.161194 
	C121.373718,201.108154 126.821129,199.474518 132.344177,199.157135 
	C138.484726,198.804260 143.599533,201.075546 145.987656,207.684891 
	C147.474533,211.799988 149.798447,215.612610 151.746704,219.560989 
	C152.328308,219.518631 152.909927,219.476273 153.491547,219.433914 
	C153.491547,212.282883 153.813690,205.112961 153.395996,197.986404 
	C153.019623,191.565247 151.542572,185.213028 151.068054,178.792191 
	C150.260956,167.871338 152.799911,164.355591 163.327423,160.789795 
	C175.422638,156.692993 182.257370,148.598984 183.088120,135.594513 
	C183.403503,130.657623 183.963501,125.671501 185.082779,120.863976 
	C187.600616,110.049263 194.687378,105.940193 205.534775,108.717232 
	C214.314423,110.964912 222.962143,112.404770 231.940643,109.234238 
	C243.619476,105.110138 250.173813,96.617119 254.086151,85.373795 
	C255.828659,80.366150 257.846863,75.416695 260.195404,70.666000 
	C264.329803,62.302830 273.248474,58.336128 282.382996,60.719913 
	C287.489990,62.052654 292.467072,63.883205 297.148285,65.376389 
	C297.148285,71.771751 296.314301,78.001343 297.336914,83.909592 
	C299.018311,93.624222 305.459290,99.997765 314.536560,103.696907 
	C316.380829,104.448479 318.263306,105.129288 320.041229,106.016861 
	C327.744202,109.862297 330.669037,115.807007 328.420624,124.048561 
	C326.463318,131.223053 323.478699,138.142212 321.857849,145.378006 
	C319.058167,157.876404 322.883392,169.114410 330.587494,178.907608 
	C333.914368,183.136642 338.569427,186.295349 342.272919,190.265106 
	C343.952362,192.065292 345.215179,194.529633 345.916138,196.913483 
	C347.724915,203.064682 349.115356,209.338913 350.672913,215.564011 
	C351.154175,215.642166 351.635437,215.720322 352.116699,215.798492 
	C354.957092,211.405167 357.860077,207.050797 360.623749,202.609726 
	C365.180817,195.286804 373.832367,191.263000 382.248901,193.369781 
	C386.507294,194.435715 390.470123,196.682404 394.472931,198.855789 
	C373.807922,206.914246 353.631592,229.347565 356.537231,243.621872 
	C363.665100,221.603806 376.500641,206.898102 398.024872,201.135315 
	C409.967133,213.341415 405.558258,230.910217 396.576813,241.796417 
	C389.927063,249.856430 381.996399,256.294037 370.445984,256.622101 
	C369.195496,254.213593 368.817596,251.710510 367.365082,250.385391 
	C366.272095,249.388306 363.536774,249.250443 361.995972,249.874451 
	C358.408569,251.327240 358.743469,254.782639 358.982422,257.964386 
M346.219757,280.498444 
	C346.871338,278.616943 347.524994,276.736206 348.174133,274.853851 
	C352.668335,261.821442 348.938873,250.379608 340.101746,240.865356 
	C331.431702,231.530991 319.898438,228.945526 307.629486,231.747330 
	C288.478699,236.120697 277.830017,253.706619 282.143433,272.954224 
	C286.387207,291.890991 307.437195,303.655579 325.901947,297.582214 
	C334.756714,294.669739 340.903595,288.676270 346.219757,280.498444 
M285.381958,203.169785 
	C283.204559,207.671158 283.250153,212.384628 287.031128,215.533630 
	C289.671967,217.733047 293.742218,219.289810 297.149536,219.245636 
	C302.361542,219.178070 306.046387,214.450790 306.547485,209.225906 
	C306.982025,204.695206 304.029785,199.866409 299.717590,198.054688 
	C294.594025,195.902054 289.976959,197.386932 285.381958,203.169785 
M189.141327,200.434204 
	C182.408234,204.594437 180.462799,211.040527 184.205505,216.788773 
	C187.794601,222.301071 195.063934,223.612015 200.366348,219.703217 
	C204.480026,216.670700 205.983917,211.052032 203.947784,206.322449 
	C201.630600,200.939987 196.787827,198.816330 189.141327,200.434204 
M231.108475,232.501678 
	C231.093552,235.826859 231.046646,239.152283 231.069702,242.477188 
	C231.139359,252.522125 231.760437,252.932404 240.529282,248.140366 
	C244.109375,246.183914 247.497849,243.876831 250.973495,241.729263 
	C250.640503,241.188156 250.307510,240.647049 249.974503,240.105942 
	C244.839447,242.857407 239.704376,245.608871 234.091461,248.616394 
	C234.091461,237.703476 234.091461,227.912613 234.091461,218.121765 
	C234.091461,208.518677 234.091461,198.915604 234.091461,189.312515 
	C233.650330,189.285934 233.209198,189.259354 232.768082,189.232788 
	C232.220840,203.323456 231.673615,217.414139 231.108475,232.501678 
M283.219727,176.973297 
	C292.806824,178.668167 302.393951,180.363052 311.970795,182.056122 
	C311.963715,182.017197 311.998871,181.316940 311.715240,180.787384 
	C307.053131,172.081894 292.501007,168.326355 284.205505,173.766449 
	C283.348602,174.328400 283.023193,175.700867 283.219727,176.973297 
M171.964920,182.681458 
	C180.851990,180.222412 189.739044,177.763367 198.327820,175.386856 
	C191.672745,168.087967 173.117706,171.025375 169.388718,180.667892 
	C169.210236,181.129364 170.569702,182.185577 171.964920,182.681458 
M235.826477,260.693848 
	C247.759659,266.672241 260.977478,262.547302 262.928314,251.416641 
	C254.982681,261.861969 245.598022,264.509491 233.828934,257.805023 
	C234.291870,258.622650 234.754807,259.440277 235.826477,260.693848 
z"/>
<path fill="#FF726B" opacity="1.000000" stroke="none" 
	d="
M153.947220,263.517181 
	C156.125748,250.299683 170.744431,238.648163 183.627502,237.811905 
	C204.435013,236.461227 217.301254,250.822922 220.548309,265.015289 
	C225.063354,284.749664 208.614059,305.608521 188.500320,306.141235 
	C177.936264,306.421082 169.709686,301.972229 161.422348,296.019897 
	C158.710922,285.292877 156.339432,274.612518 153.947220,263.517181 
z"/>
<path fill="#91493F" opacity="1.000000" stroke="none" 
	d="
M234.038742,334.504517 
	C254.101242,334.657959 274.022217,333.955933 293.942627,329.209106 
	C294.814423,332.845398 295.352112,336.451019 295.529053,340.643616 
	C292.128937,343.750061 289.089569,346.269531 286.050171,348.789032 
	C281.537933,349.488342 277.037598,350.279541 272.510590,350.864624 
	C266.271027,351.671082 260.011353,352.321808 253.301422,352.616486 
	C246.614563,349.076477 240.386581,345.959229 234.158600,342.841949 
	C234.106842,340.208435 234.055084,337.574951 234.038742,334.504517 
z"/>
<path fill="#F5DCD2" opacity="1.000000" stroke="none" 
	d="
M428.627686,172.183868 
	C442.295929,174.591599 443.138245,164.031494 446.168884,154.927124 
	C446.561554,166.564148 450.492126,174.855133 463.467102,176.490753 
	C449.801178,175.038345 446.179321,183.848251 443.717285,195.263046 
	C442.979675,193.125763 442.548248,192.209229 442.360687,191.245239 
	C442.140381,190.112640 442.141449,188.937912 442.029755,187.783066 
	C441.211365,179.321304 439.635284,177.675064 429.270264,174.803558 
	C428.712524,173.929504 428.553253,173.110199 428.627686,172.183868 
z"/>
<path fill="#F5DCD2" opacity="1.000000" stroke="none" 
	d="
M96.050659,159.399231 
	C97.499947,147.056625 89.594025,142.986450 79.698898,140.602173 
	C96.697960,138.797852 94.399651,139.593048 99.621651,120.875160 
	C100.539001,125.338531 101.404236,128.643372 101.864662,132.003677 
	C102.531586,136.871017 105.061775,139.852417 110.174789,140.846298 
	C112.316124,141.770752 114.143875,142.750015 115.992508,143.740479 
	C113.682915,144.164215 111.299713,144.601471 108.166817,145.153900 
	C102.270287,146.734222 100.812973,150.886154 99.974747,155.488922 
	C99.311760,156.819977 98.742256,158.213272 97.924805,159.441513 
	C97.700150,159.779083 96.734222,159.623306 96.050659,159.399231 
z"/>
<path fill="#4C231D" opacity="1.000000" stroke="none" 
	d="
M398.351593,200.974304 
	C376.500641,206.898102 363.665100,221.603806 356.537231,243.621872 
	C353.631592,229.347565 373.807922,206.914246 394.685791,199.118103 
	C396.071747,198.709305 397.148743,198.360886 398.231598,198.341721 
	C398.848083,198.330795 399.474060,198.857819 400.095764,199.142609 
	C399.623291,199.699509 399.150787,200.256409 398.351593,200.974304 
z"/>
<path fill="#47201A" opacity="1.000000" stroke="none" 
	d="
M115.537598,202.060272 
	C131.156937,212.120239 143.113174,224.965897 150.443039,241.829086 
	C151.123199,243.393860 151.594574,245.049393 151.389420,247.150986 
	C142.913300,229.806717 131.866516,214.868179 114.776398,204.802017 
	C113.246811,204.035263 112.042099,203.348755 110.837387,202.662262 
	C111.255051,202.098434 111.672714,201.534622 112.090378,200.970795 
	C113.120995,201.300308 114.151611,201.629807 115.537598,202.060272 
z"/>
<path fill="#F78172" opacity="1.000000" stroke="none" 
	d="
M234.112732,343.315308 
	C240.386581,345.959229 246.614563,349.076477 252.874786,352.545715 
	C246.917130,353.586975 240.927261,354.276245 234.524597,355.051880 
	C234.096817,351.355042 234.081833,347.571869 234.112732,343.315308 
z"/>
<path fill="#FAD9CC" opacity="1.000000" stroke="none" 
	d="
M136.110229,263.280945 
	C136.202682,259.059296 137.939484,256.097321 142.106491,256.194550 
	C146.230133,256.290771 147.985870,259.188721 147.946167,263.577698 
	C143.333252,269.419739 139.906921,269.311401 136.110229,263.280945 
z"/>
<path fill="#FADCD0" opacity="1.000000" stroke="none" 
	d="
M359.292145,258.130615 
	C358.743469,254.782639 358.408569,251.327240 361.995972,249.874451 
	C363.536774,249.250443 366.272095,249.388306 367.365082,250.385391 
	C368.817596,251.710510 369.195496,254.213593 370.032593,256.618408 
	C365.886444,261.866425 364.163452,262.076385 359.292145,258.130615 
z"/>
<path fill="#F47F70" opacity="1.000000" stroke="none" 
	d="
M286.479004,348.857178 
	C289.089569,346.269531 292.128937,343.750061 295.437988,341.053284 
	C296.425354,343.026947 297.143036,345.177917 297.528778,347.695770 
	C296.590637,348.312378 295.984436,348.562073 295.378235,348.811768 
	C292.554779,348.849609 289.731293,348.887451 286.479004,348.857178 
z"/>
<path fill="#8AADC4" opacity="1.000000" stroke="none" 
	d="
M100.294044,155.313354 
	C100.812973,150.886154 102.270287,146.734222 107.770065,145.183014 
	C105.619789,148.443893 103.116570,151.790848 100.294044,155.313354 
z"/>
<path fill="#351611" opacity="1.000000" stroke="none" 
	d="
M235.899170,379.093689 
	C234.437424,378.077606 232.975662,377.061493 231.171539,375.989380 
	C231.576675,375.180176 232.324158,374.426971 233.206299,373.380005 
	C234.214142,374.825226 235.087326,376.564209 235.967072,378.666260 
	C235.973602,379.029327 235.899170,379.093689 235.899170,379.093689 
z"/>
<path fill="#351611" opacity="1.000000" stroke="none" 
	d="
M295.789490,348.862610 
	C295.984436,348.562073 296.590637,348.312378 297.544769,348.085632 
	C297.892700,348.108612 297.953674,348.558228 297.903137,348.779419 
	C297.301971,348.971527 296.751343,348.942474 295.789490,348.862610 
z"/>
<path fill="#351611" opacity="1.000000" stroke="none" 
	d="
M299.365692,355.637146 
	C299.178345,355.623291 299.100586,355.430664 299.045166,355.066376 
	C299.267639,355.024445 299.403564,355.212341 299.365692,355.637146 
z"/>
<path fill="#C8ACA2" opacity="1.000000" stroke="none" 
	d="
M285.492798,413.745300 
	C289.748444,401.407104 294.004059,389.068909 298.570251,376.576233 
	C298.880859,376.421814 298.857239,376.487488 298.857239,376.487488 
	C294.679474,388.855469 290.501709,401.223480 286.222626,413.720947 
	C285.938995,413.656036 285.729492,413.620972 285.492798,413.745300 
z"/>
<path fill="#C7AAA1" opacity="1.000000" stroke="none" 
	d="
M270.707367,449.836151 
	C266.225128,441.761169 261.742889,433.686157 257.260651,425.611176 
	C257.907898,425.287811 258.555115,424.964447 259.202362,424.641113 
	C262.847321,432.881866 266.492249,441.122650 270.448669,449.638489 
	C270.760162,449.913605 270.707367,449.836151 270.707367,449.836151 
z"/>
<path fill="#C7AAA1" opacity="1.000000" stroke="none" 
	d="
M237.997116,383.668396 
	C242.187027,391.588837 246.376938,399.509277 250.566849,407.429688 
	C250.076187,407.680908 249.585526,407.932098 249.094864,408.183289 
	C245.226288,400.373413 241.357697,392.563507 237.587708,384.380188 
	C237.686279,384.006775 237.997116,383.668396 237.997116,383.668396 
z"/>
<path fill="#351611" opacity="1.000000" stroke="none" 
	d="
M285.153473,413.953796 
	C285.729492,413.620972 285.938995,413.656036 286.185852,413.998108 
	C284.418549,420.325958 282.586700,426.506134 280.754852,432.686340 
	C280.203766,432.522369 279.652710,432.358398 279.101654,432.194427 
	C279.881439,425.882568 282.478668,420.057465 285.153473,413.953796 
z"/>
<path fill="#3A1C17" opacity="1.000000" stroke="none" 
	d="
M281.029297,464.022797 
	C279.410065,466.291718 277.790833,468.560608 276.171600,470.829529 
	C275.465912,470.208710 274.760193,469.587921 274.054504,468.967102 
	C276.137878,467.339874 278.221283,465.712677 280.653076,464.042786 
	C281.001465,464.000153 281.029297,464.022797 281.029297,464.022797 
z"/>
<path fill="#3A1C17" opacity="1.000000" stroke="none" 
	d="
M269.926910,470.101624 
	C268.134644,468.752136 266.342377,467.402679 264.550110,466.053223 
	C264.882202,465.643921 265.214325,465.234619 265.546448,464.825287 
	C267.028107,466.295837 268.509766,467.766357 270.001343,469.620605 
	C270.011292,470.004303 269.926910,470.101624 269.926910,470.101624 
z"/>
<path fill="#3A1C17" opacity="1.000000" stroke="none" 
	d="
M264.920593,460.075226 
	C265.257996,458.404510 265.595367,456.733795 265.932770,455.063110 
	C266.499481,455.270844 267.066193,455.478577 267.632874,455.686310 
	C266.895782,456.935364 266.158691,458.184418 265.205139,459.724121 
	C264.988647,460.014801 264.920563,460.075226 264.920593,460.075226 
z"/>
<path fill="#3A1C17" opacity="1.000000" stroke="none" 
	d="
M280.964386,460.046051 
	C279.944977,459.175903 278.925537,458.305786 277.906128,457.435638 
	C278.266693,457.105560 278.627258,456.775513 278.987823,456.445465 
	C279.667877,457.388306 280.347931,458.331146 281.016968,459.636414 
	C281.005951,459.998871 280.964386,460.046051 280.964386,460.046051 
z"/>
<path fill="#351611" opacity="1.000000" stroke="none" 
	d="
M237.993149,383.336304 
	C237.997116,383.668396 237.686279,384.006775 237.465088,384.068665 
	C236.817825,382.714355 236.391769,381.298157 235.932434,379.487854 
	C235.899170,379.093689 235.973602,379.029327 236.013367,379.001221 
	C236.698486,380.316803 237.343826,381.660492 237.993149,383.336304 
z"/>
<path fill="#351611" opacity="1.000000" stroke="none" 
	d="
M300.875793,367.056915 
	C301.974274,367.062195 302.827179,367.233765 303.858582,367.689240 
	C303.211212,368.536377 302.385406,369.099609 301.280945,369.832397 
	C301.002258,370.001923 300.942657,369.944214 300.942657,369.944214 
	C300.838501,369.037201 300.734344,368.130219 300.875793,367.056915 
z"/>
<path fill="#351611" opacity="1.000000" stroke="none" 
	d="
M270.727295,449.867371 
	C271.563812,449.988556 272.433228,450.155945 273.302643,450.323334 
	C273.149872,450.768005 272.997070,451.212646 272.844299,451.657288 
	C272.139984,451.248383 271.435638,450.839478 270.719360,450.133362 
	C270.707367,449.836151 270.760162,449.913605 270.727295,449.867371 
z"/>
<path fill="#351611" opacity="1.000000" stroke="none" 
	d="
M298.848816,376.419617 
	C298.978577,375.300751 299.140350,374.184143 299.642273,373.027039 
	C299.982452,372.986572 300.045349,373.028107 300.045349,373.028107 
	C299.807098,373.979828 299.568909,374.931549 299.093964,376.185394 
	C298.857239,376.487488 298.880859,376.421814 298.848816,376.419617 
z"/>
<path fill="#3A1C17" opacity="1.000000" stroke="none" 
	d="
M274.035828,453.722168 
	C273.898132,454.242950 273.560547,454.557953 273.222961,454.872925 
	C272.947632,454.565826 272.672272,454.258759 272.396942,453.951660 
	C272.876617,453.806580 273.356262,453.661469 274.035828,453.722168 
z"/>
<path fill="#351611" opacity="1.000000" stroke="none" 
	d="
M299.951233,372.965393 
	C300.065155,371.981689 300.210266,371.019165 300.649017,370.000427 
	C300.942657,369.944214 301.002258,370.001923 301.032593,370.031128 
	C300.889832,370.907532 300.716736,371.754700 300.294495,372.815002 
	C300.045349,373.028107 299.982452,372.986572 299.951233,372.965393 
z"/>
<path fill="#351611" opacity="1.000000" stroke="none" 
	d="
M279.322144,435.655640 
	C278.665833,435.726532 278.209656,435.646851 277.753510,435.567169 
	C277.968811,435.337555 278.224976,434.890350 278.391235,434.921570 
	C278.790680,434.996643 279.147980,435.296143 279.322144,435.655640 
z"/>
<path fill="#351611" opacity="1.000000" stroke="none" 
	d="
M274.629028,446.769592 
	C275.086853,446.933228 275.317261,447.200043 275.547668,447.466858 
	C275.091949,447.603638 274.636230,447.740417 274.180481,447.877197 
	C274.254211,447.542389 274.327911,447.207611 274.629028,446.769592 
z"/>
<path fill="#351611" opacity="1.000000" stroke="none" 
	d="
M276.539307,443.830261 
	C276.161255,444.369385 275.636383,444.708435 275.111481,445.047485 
	C275.003021,444.833557 274.894592,444.619659 274.786133,444.405731 
	C275.321564,444.147217 275.856995,443.888702 276.539307,443.830261 
z"/>
<path fill="#351611" opacity="1.000000" stroke="none" 
	d="
M277.321869,441.655640 
	C276.665619,441.726593 276.209442,441.646942 275.753296,441.567291 
	C275.968567,441.337677 276.224701,440.890503 276.390930,440.921722 
	C276.790375,440.996765 277.147675,441.296173 277.321869,441.655640 
z"/>
<path fill="#351611" opacity="1.000000" stroke="none" 
	d="
M278.539459,437.830200 
	C278.173645,438.361481 277.660980,438.692657 277.148315,439.023804 
	C277.027557,438.817780 276.906799,438.611786 276.786072,438.405792 
	C277.321564,438.147217 277.857086,437.888641 278.539459,437.830200 
z"/>
<path fill="#3A1C17" opacity="1.000000" stroke="none" 
	d="
M265.025146,459.987610 
	C265.423737,460.898315 265.785858,461.836212 266.147980,462.774109 
	C265.874634,462.855408 265.601288,462.936707 265.327942,463.018036 
	C265.205353,462.259064 265.082764,461.500092 264.940369,460.408173 
	C264.920563,460.075226 264.988647,460.014801 265.025146,459.987610 
z"/>
<path fill="#3A1C17" opacity="1.000000" stroke="none" 
	d="
M276.228577,455.010986 
	C276.405945,454.893585 276.585052,454.950989 276.764130,455.008362 
	C276.586182,455.067505 276.408264,455.126648 276.228577,455.010986 
z"/>
<path fill="#3A1C17" opacity="1.000000" stroke="none" 
	d="
M270.060272,469.962463 
	C270.211029,470.105316 270.312805,470.289978 270.414581,470.474640 
	C270.307526,470.438873 270.200470,470.403076 270.010162,470.234467 
	C269.926910,470.101624 270.011292,470.004303 270.060272,469.962463 
z"/>
<path fill="#3A1C17" opacity="1.000000" stroke="none" 
	d="
M281.029846,459.978394 
	C281.165649,460.121948 281.277588,460.285919 281.389496,460.449951 
	C281.293488,460.406067 281.197510,460.362183 281.032959,460.182190 
	C280.964386,460.046051 281.005951,459.998871 281.029846,459.978394 
z"/>
<path fill="#3A1C17" opacity="1.000000" stroke="none" 
	d="
M280.990021,463.986420 
	C281.086243,463.947906 281.193939,463.923157 281.165466,463.960602 
	C281.029297,464.022797 281.001465,464.000153 280.990021,463.986420 
z"/>
<path fill="#C7AAA1" opacity="1.000000" stroke="none" 
	d="
M252.750000,413.750000 
	C252.466782,413.699921 252.433548,413.399872 252.400330,413.099792 
	C252.600220,413.233215 252.800110,413.366608 252.750000,413.750000 
z"/>
<path fill="#C7AAA1" opacity="1.000000" stroke="none" 
	d="
M250.750000,409.250000 
	C250.800308,409.633545 250.600586,409.767029 250.400848,409.900513 
	C250.433884,409.600342 250.466934,409.300171 250.750000,409.250000 
z"/>
<path fill="#C7AAA1" opacity="1.000000" stroke="none" 
	d="
M257.749451,423.750000 
	C257.466553,423.700104 257.433105,423.400238 257.399658,423.100342 
	C257.599396,423.233551 257.799133,423.366791 257.749451,423.750000 
z"/>
<path fill="#C7AAA1" opacity="1.000000" stroke="none" 
	d="
M256.749451,421.750000 
	C256.466553,421.700104 256.433105,421.400238 256.399658,421.100342 
	C256.599396,421.233551 256.799133,421.366760 256.749451,421.750000 
z"/>
<path fill="#C7AAA1" opacity="1.000000" stroke="none" 
	d="
M255.750000,419.250000 
	C255.699997,419.533325 255.400009,419.566681 255.100006,419.600006 
	C255.233337,419.399994 255.366669,419.200012 255.750000,419.250000 
z"/>
<path fill="#C7AAA1" opacity="1.000000" stroke="none" 
	d="
M254.250061,417.250000 
	C254.533356,417.299988 254.566696,417.599976 254.600037,417.899963 
	C254.400040,417.766632 254.200073,417.633331 254.250061,417.250000 
z"/>
<path fill="#C7AAA1" opacity="1.000000" stroke="none" 
	d="
M253.250183,415.750000 
	C253.300293,415.466675 253.600189,415.433380 253.900085,415.400055 
	C253.766724,415.600037 253.633362,415.800018 253.250183,415.750000 
z"/>
<path fill="#C7AAA1" opacity="1.000000" stroke="none" 
	d="
M251.250763,411.250000 
	C251.533478,411.299835 251.566971,411.599701 251.600449,411.899536 
	C251.400803,411.766357 251.201157,411.633179 251.250763,411.250000 
z"/>
<path fill="#F4DBD2" opacity="1.000000" stroke="none" 
	d="
M99.979279,362.003601 
	C98.965912,362.612366 97.930283,363.813263 96.961838,363.761292 
	C88.672684,363.316742 83.845764,367.195557 81.877998,375.112885 
	C81.371323,377.151459 80.433426,379.082886 79.208839,381.298340 
	C80.137672,368.658539 74.363579,361.626740 61.421772,360.451782 
	C61.653721,359.960846 61.885670,359.469940 62.117619,358.979004 
	C64.571419,358.979004 67.027237,359.043030 69.478592,358.965607 
	C74.498802,358.807037 77.929367,356.682526 79.079216,351.427795 
	C79.847137,347.918518 80.990303,344.491302 82.097549,340.558472 
	C83.431923,346.003845 83.886162,351.190735 85.994186,355.584076 
	C88.420685,360.641113 93.994713,361.528748 99.602234,362.109924 
	C100.010361,362.034332 99.988167,362.014954 99.979279,362.003601 
z"/>
<path fill="#F7DDD3" opacity="1.000000" stroke="none" 
	d="
M163.282471,378.464661 
	C167.368820,378.779114 170.881134,380.125031 170.894272,384.302979 
	C170.902344,386.866119 169.671555,390.198547 167.809616,391.831757 
	C164.614777,394.634094 159.569260,392.959686 157.712494,389.295502 
	C155.457962,384.846405 157.485153,380.674347 163.282471,378.464661 
z"/>
<path fill="#F7DDD3" opacity="1.000000" stroke="none" 
	d="
M43.480358,260.643372 
	C38.538723,260.853394 35.438946,258.960175 34.892262,254.165497 
	C34.473892,250.496170 35.873138,247.586487 39.579754,246.416885 
	C43.470894,245.189072 46.576542,246.872711 48.330666,250.200546 
	C50.009506,253.385574 49.421280,256.650879 46.416264,259.068512 
	C45.660000,259.676941 44.706676,260.040436 43.480358,260.643372 
z"/>
<path fill="#F3DBD2" opacity="1.000000" stroke="none" 
	d="
M419.864624,362.800781 
	C420.430328,360.508972 420.912445,358.601074 421.611298,355.835419 
	C423.125488,361.525055 423.235809,367.276337 426.043640,370.985748 
	C428.838806,374.678345 434.342224,376.320892 439.044708,379.089966 
	C425.576538,376.809387 422.212921,386.017029 419.502228,396.959564 
	C418.094360,391.201569 418.195953,385.330200 415.369995,381.807068 
	C412.476715,378.199982 406.715637,376.893188 400.860504,373.886658 
	C410.722351,375.001038 418.486237,374.044281 419.864624,362.800781 
z"/>
<path fill="#F5DCD3" opacity="1.000000" stroke="none" 
	d="
M456.122620,291.069092 
	C463.576782,292.626678 466.727570,298.338013 462.526245,302.654205 
	C460.805267,304.422180 456.899780,305.841064 454.876160,305.074432 
	C452.498566,304.173706 449.850159,300.869720 449.553925,298.345673 
	C449.140045,294.819336 451.670807,291.829102 456.122620,291.069092 
z"/>
<path fill="#F7DDD3" opacity="1.000000" stroke="none" 
	d="
M346.108765,54.071892 
	C341.363647,53.451687 338.734222,50.495544 339.409058,46.616768 
	C339.839874,44.140503 342.657867,41.227135 345.119446,40.166374 
	C348.402527,38.751591 351.613678,40.537262 353.307678,44.024521 
	C355.469421,48.474689 352.308624,53.129055 346.108765,54.071892 
z"/>
<path fill="#FF726B" opacity="1.000000" stroke="none" 
	d="
M346.063385,280.839050 
	C340.903595,288.676270 334.756714,294.669739 325.901947,297.582214 
	C307.437195,303.655579 286.387207,291.890991 282.143433,272.954224 
	C277.830017,253.706619 288.478699,236.120697 307.629486,231.747330 
	C319.898438,228.945526 331.431702,231.530991 340.101746,240.865356 
	C348.938873,250.379608 352.668335,261.821442 348.174133,274.853851 
	C347.524994,276.736206 346.871338,278.616943 346.063385,280.839050 
z"/>
<path fill="#381812" opacity="1.000000" stroke="none" 
	d="
M285.593262,202.849518 
	C289.976959,197.386932 294.594025,195.902054 299.717590,198.054688 
	C304.029785,199.866409 306.982025,204.695206 306.547485,209.225906 
	C306.046387,214.450790 302.361542,219.178070 297.149536,219.245636 
	C293.742218,219.289810 289.671967,217.733047 287.031128,215.533630 
	C283.250153,212.384628 283.204559,207.671158 285.593262,202.849518 
z"/>
<path fill="#381812" opacity="1.000000" stroke="none" 
	d="
M189.488434,200.284058 
	C196.787827,198.816330 201.630600,200.939987 203.947784,206.322449 
	C205.983917,211.052032 204.480026,216.670700 200.366348,219.703217 
	C195.063934,223.612015 187.794601,222.301071 184.205505,216.788773 
	C180.462799,211.040527 182.408234,204.594437 189.488434,200.284058 
z"/>
<path fill="#522620" opacity="1.000000" stroke="none" 
	d="
M231.117432,232.003250 
	C231.673615,217.414139 232.220840,203.323456 232.768082,189.232788 
	C233.209198,189.259354 233.650330,189.285934 234.091461,189.312515 
	C234.091461,198.915604 234.091461,208.518677 234.091461,218.121765 
	C234.091461,227.912613 234.091461,237.703476 234.091461,248.616394 
	C239.704376,245.608871 244.839447,242.857407 249.974503,240.105942 
	C250.307510,240.647049 250.640503,241.188156 250.973495,241.729263 
	C247.497849,243.876831 244.109375,246.183914 240.529282,248.140366 
	C231.760437,252.932404 231.139359,252.522125 231.069702,242.477188 
	C231.046646,239.152283 231.093552,235.826859 231.117432,232.003250 
z"/>
<path fill="#3C1A15" opacity="1.000000" stroke="none" 
	d="
M282.835449,176.835266 
	C283.023193,175.700867 283.348602,174.328400 284.205505,173.766449 
	C292.501007,168.326355 307.053131,172.081894 311.715240,180.787384 
	C311.998871,181.316940 311.963715,182.017197 311.970795,182.056122 
	C302.393951,180.363052 292.806824,178.668167 282.835449,176.835266 
z"/>
<path fill="#3C1A15" opacity="1.000000" stroke="none" 
	d="
M171.588959,182.823135 
	C170.569702,182.185577 169.210236,181.129364 169.388718,180.667892 
	C173.117706,171.025375 191.672745,168.087967 198.327820,175.386856 
	C189.739044,177.763367 180.851990,180.222412 171.588959,182.823135 
z"/>
<path fill="#4C231D" opacity="1.000000" stroke="none" 
	d="
M235.522095,260.475891 
	C234.754807,259.440277 234.291870,258.622650 233.828934,257.805023 
	C245.598022,264.509491 254.982681,261.861969 262.928314,251.416641 
	C260.977478,262.547302 247.759659,266.672241 235.522095,260.475891 
z"/>
</svg>